<svg width="25" height="30" viewBox="0 0 25 30" fill="none" xmlns="http://www.w3.org/2000/svg">
<g clip-path="url(#clip0_1_35)">
<path opacity="0.3" d="M12.34 29.4168L0 22.2568L0.0300002 7.93678L12.35 15.0868L12.33 29.4268L12.34 29.4168Z" fill="#005EB8"/>
<path d="M12.34 29.4168L12.33 15.0768L24.66 7.91678L24.67 22.2568L12.34 29.4168Z" fill="#005EB8"/>
<path opacity="0.5" d="M24.7 7.92677L12.36 15.0868L0.0100002 7.93678L12.36 0.776775L24.7 7.92677Z" fill="#005EB8"/>
<path opacity="0.7" fill-rule="evenodd" clip-rule="evenodd" d="M8.9 4.89677H3.5V7.71677C3.51 8.11677 3.77 8.51677 4.3 8.81677C4.89011 9.1171 5.54286 9.27365 6.205 9.27365C6.86714 9.27365 7.51989 9.1171 8.11 8.81677C8.63 8.51677 8.9 8.11677 8.9 7.71677V4.88678V4.89677Z" fill="#005EB8"/>
<path d="M8.1 3.78677C9.15 4.38677 9.15 5.38677 8.1 5.98677C7.51165 6.28701 6.86053 6.44355 6.2 6.44355C5.53947 6.44355 4.88835 6.28701 4.3 5.98677C3.25 5.38677 3.25 4.38677 4.3 3.78677C4.88835 3.48653 5.53947 3.33 6.2 3.33C6.86053 3.33 7.51165 3.48653 8.1 3.78677V3.78677Z" fill="#005EB8"/>
<path opacity="0.7" fill-rule="evenodd" clip-rule="evenodd" d="M15.08 1.56678H9.68V4.37678C9.68 4.77678 9.95 5.17678 10.48 5.47678C11.0688 5.77546 11.7198 5.93111 12.38 5.93111C13.0402 5.93111 13.6912 5.77546 14.28 5.47678C14.81 5.17678 15.08 4.77678 15.08 4.37678V1.57678V1.56678Z" fill="#005EB8"/>
<path d="M14.27 0.446776C15.32 1.05678 15.32 2.04678 14.27 2.65678C13.6817 2.95702 13.0305 3.11355 12.37 3.11355C11.7095 3.11355 11.0583 2.95702 10.47 2.65678C9.42 2.05678 9.42 1.05678 10.47 0.456776C11.0583 0.156536 11.7095 0 12.37 0C13.0305 0 13.6817 0.156536 14.27 0.456776V0.446776Z" fill="#005EB8"/>
<path opacity="0.7" fill-rule="evenodd" clip-rule="evenodd" d="M15.08 8.26678H9.68V11.0868C9.68 11.4868 9.95 11.8868 10.48 12.1868C11.0688 12.4855 11.7198 12.6411 12.38 12.6411C13.0402 12.6411 13.6912 12.4855 14.28 12.1868C14.81 11.8868 15.08 11.4868 15.08 11.0868V8.25678V8.26678Z" fill="#005EB8"/>
<path d="M14.27 7.15678C15.32 7.75678 15.32 8.75678 14.27 9.35678C13.6817 9.65702 13.0305 9.81355 12.37 9.81355C11.7095 9.81355 11.0583 9.65702 10.47 9.35678C9.42 8.75678 9.42 7.75678 10.47 7.15678C11.0583 6.85654 11.7095 6.7 12.37 6.7C13.0305 6.7 13.6817 6.85654 14.27 7.15678V7.15678Z" fill="#005EB8"/>
<path opacity="0.7" fill-rule="evenodd" clip-rule="evenodd" d="M21.22 4.68678H15.82V7.50678C15.83 7.90678 16.1 8.30678 16.62 8.60678C17.2101 8.9071 17.8629 9.06365 18.525 9.06365C19.1871 9.06365 19.8399 8.9071 20.43 8.60678C20.95 8.30678 21.22 7.90678 21.22 7.50678V4.67678V4.68678Z" fill="#005EB8"/>
<path d="M20.42 3.57678C21.47 4.17678 21.47 5.17678 20.42 5.77678C19.8317 6.07702 19.1805 6.23355 18.52 6.23355C17.8595 6.23355 17.2083 6.07702 16.62 5.77678C15.57 5.17678 15.57 4.17678 16.62 3.57678C17.2083 3.27654 17.8595 3.12 18.52 3.12C19.1805 3.12 19.8317 3.27654 20.42 3.57678V3.57678Z" fill="#005EB8"/>
</g>
<defs>
<clipPath id="clip0_1_35">
<rect width="25" height="30" fill="white"/>
</clipPath>
</defs>
</svg>
