<svg xmlns="http://www.w3.org/2000/svg" width="30" height="30" fill="none"><mask id="a" width="25" height="30" x="3" y="0" maskUnits="userSpaceOnUse" style="mask-type:luminance"><path fill="#fff" d="M3 0h25v30H3V0Z"/></mask><g fill="#005EB8" mask="url(#a)"><path d="M15.34 29.417 3 22.257l.03-14.32 12.32 7.15-.02 14.34.01-.01Z" opacity=".3"/><path d="m15.34 29.417-.01-14.34 12.33-7.16.01 14.34-12.33 7.16Z"/><path d="m27.7 7.927-12.34 7.16-12.35-7.15L15.36.777l12.34 7.15Z" opacity=".5"/><path fill-rule="evenodd" d="M11.9 4.897H6.5v2.82c.01.4.27.8.8 1.1a4.2 4.2 0 0 0 3.81 0c.52-.3.79-.7.79-1.1v-2.83.01Z" clip-rule="evenodd" opacity=".7"/><path d="M11.1 3.787c1.05.6 1.05 1.6 0 2.2a4.18 4.18 0 0 1-3.8 0c-1.05-.6-1.05-1.6 0-2.2a4.18 4.18 0 0 1 3.8 0Z"/><path fill-rule="evenodd" d="M18.08 1.567h-5.4v2.81c0 .4.27.8.8 1.1a4.2 4.2 0 0 0 3.8 0c.53-.3.8-.7.8-1.1v-2.81Z" clip-rule="evenodd" opacity=".7"/><path d="M17.27.447c1.05.61 1.05 1.6 0 2.21a4.18 4.18 0 0 1-3.8 0c-1.05-.6-1.05-1.6 0-2.2a4.18 4.18 0 0 1 3.8 0v-.01Z"/><path fill-rule="evenodd" d="M18.08 8.267h-5.4v2.82c0 .4.27.8.8 1.1a4.2 4.2 0 0 0 3.8 0c.53-.3.8-.7.8-1.1v-2.83.01Z" clip-rule="evenodd" opacity=".7"/><path d="M17.27 7.157c1.05.6 1.05 1.6 0 2.2a4.18 4.18 0 0 1-3.8 0c-1.05-.6-1.05-1.6 0-2.2a4.18 4.18 0 0 1 3.8 0Z"/><path fill-rule="evenodd" d="M24.22 4.687h-5.4v2.82c.01.4.28.8.8 1.1a4.2 4.2 0 0 0 3.81 0c.52-.3.79-.7.79-1.1v-2.83.01Z" clip-rule="evenodd" opacity=".7"/><path d="M23.42 3.577c1.05.6 1.05 1.6 0 2.2a4.18 4.18 0 0 1-3.8 0c-1.05-.6-1.05-1.6 0-2.2a4.18 4.18 0 0 1 3.8 0Z"/></g></svg>
