<svg width="266" height="27" viewBox="0 0 266 27" fill="none" xmlns="http://www.w3.org/2000/svg">
<path d="M165.839 10.7017V9.70166V10.7017ZM265.5 12.0923L255.659 6.05211L255.348 17.5949L265.5 12.0923ZM49.2951 24.1429L49.2564 25.1421L49.2951 24.1429ZM2.00021 16.2466C1.00361 16.1642 1.00348 16.1658 1.00335 16.1674C1.00331 16.1679 1.00319 16.1695 1.0031 16.1706C1.00294 16.1727 1.00278 16.1749 1.00263 16.177C1.00232 16.1814 1.00204 16.1859 1.00178 16.1904C1.00127 16.1994 1.00085 16.2088 1.00055 16.2184C0.999949 16.2377 0.999813 16.2582 1.00028 16.2799C1.00121 16.3233 1.00455 16.3709 1.01127 16.4225C1.02479 16.5261 1.0516 16.6425 1.09766 16.7691C1.19028 17.0237 1.35435 17.3023 1.61943 17.5953C2.13982 18.1706 3.07496 18.8304 4.75849 19.5262L5.52242 17.6779C3.98117 17.0409 3.34618 16.5229 3.10265 16.2537C2.98577 16.1245 2.96942 16.0641 2.97711 16.0853C2.98072 16.0952 2.98893 16.1213 2.99448 16.1638C2.99722 16.1848 2.99922 16.2092 2.99982 16.2369C3.00011 16.2507 3.00006 16.2653 2.99958 16.2807C2.99934 16.2884 2.999 16.2962 2.99854 16.3043C2.99831 16.3083 2.99805 16.3124 2.99776 16.3165C2.99762 16.3185 2.99747 16.3206 2.99731 16.3227C2.99723 16.3237 2.99711 16.3253 2.99707 16.3258C2.99694 16.3274 2.99681 16.329 2.00021 16.2466ZM12.7522 21.7382C14.976 22.1777 17.638 22.6113 20.8255 23.021L21.0805 21.0373C17.9293 20.6323 15.3124 20.2055 13.1399 19.7761L12.7522 21.7382ZM28.9267 23.8955C31.4087 24.1197 34.1163 24.3298 37.0701 24.5215L37.1996 22.5257C34.2611 22.335 31.5704 22.1262 29.1067 21.9036L28.9267 23.8955ZM45.1858 24.9694C46.5024 25.0304 47.8588 25.088 49.2564 25.1421L49.3337 23.1436C47.9411 23.0897 46.5897 23.0323 45.2783 22.9715L45.1858 24.9694ZM49.2564 25.1421C50.6906 25.1976 52.0979 25.2378 53.4798 25.2634L53.5169 23.2638C52.1485 23.2384 50.7547 23.1986 49.3337 23.1436L49.2564 25.1421ZM61.9234 25.2399C64.8445 25.1674 67.6526 25.0293 70.3679 24.8356L70.2256 22.8407C67.5407 23.0322 64.7636 23.1688 61.8739 23.2405L61.9234 25.2399ZM78.782 24.0368C81.6489 23.6975 84.4239 23.3016 87.1358 22.8641L86.8173 20.8896C84.13 21.3232 81.383 21.7151 78.547 22.0507L78.782 24.0368ZM95.4401 21.3774C98.2144 20.8376 100.952 20.2682 103.685 19.6875L103.27 17.7311C100.541 18.3108 97.8162 18.8775 95.0581 19.4142L95.4401 21.3774ZM111.9 17.9308C114.596 17.3586 117.322 16.7923 120.112 16.2478L119.729 14.2848C116.924 14.8322 114.186 15.4011 111.484 15.9744L111.9 17.9308ZM128.35 14.7551C131.024 14.312 133.777 13.8998 136.633 13.5308L136.376 11.5473C133.494 11.9197 130.718 12.3354 128.023 12.782L128.35 14.7551ZM144.937 12.6182C147.616 12.3758 150.39 12.1749 153.278 12.0236L153.173 10.0263C150.26 10.179 147.46 10.3817 144.757 10.6263L144.937 12.6182ZM161.645 11.7364C163.017 11.7135 164.415 11.7017 165.839 11.7017V9.70166C164.404 9.70166 162.995 9.71357 161.611 9.73671L161.645 11.7364ZM165.839 11.7017C167.225 11.7017 168.61 11.7027 169.992 11.7047L169.994 9.70467C168.612 9.70268 167.226 9.70166 165.839 9.70166V11.7017ZM178.298 11.7279C181.089 11.7394 183.86 11.7545 186.604 11.7726L186.617 9.77268C183.872 9.75452 181.099 9.73944 178.306 9.72792L178.298 11.7279ZM194.906 11.8374C197.715 11.8625 200.484 11.8905 203.206 11.9208L203.228 9.92092C200.505 9.89059 197.734 9.86257 194.924 9.83743L194.906 11.8374ZM211.51 12.0221C214.349 12.0596 217.12 12.0993 219.812 12.1403L219.843 10.1405C217.149 10.0995 214.377 10.0598 211.536 10.0222L211.51 12.0221ZM228.122 12.2751C231.021 12.325 233.798 12.3757 236.436 12.4263L236.474 10.4266C233.835 10.3761 231.056 10.3253 228.156 10.2754L228.122 12.2751ZM244.724 12.5931C247.787 12.6579 250.571 12.7201 253.034 12.7774L253.08 10.778C250.616 10.7207 247.831 10.6584 244.766 10.5936L244.724 12.5931ZM165.839 10.7017V8.70166V10.7017ZM265.5 12.0923L245.818 0.0119352L245.197 23.0976L265.5 12.0923ZM49.2951 24.1429L49.2177 26.1414L49.2951 24.1429ZM2.00021 16.2466C0.00700879 16.0818 0.00675023 16.085 0.00649619 16.0881C0.00641215 16.0892 0.00616407 16.0924 0.00600088 16.0945C0.00567651 16.0987 0.00536382 16.103 0.0050633 16.1073C0.004462 16.1159 0.00390923 16.1246 0.0034076 16.1334C0.00240433 16.151 0.00160623 16.169 0.00103545 16.1873C-0.000106573 16.2239 -0.000337124 16.262 0.000510335 16.3014C0.00220764 16.3803 0.0082165 16.464 0.0196742 16.5518C0.0427223 16.7285 0.0870333 16.9162 0.157936 17.1111C0.300708 17.5034 0.538636 17.8912 0.877821 18.2662C1.53664 18.9945 2.62185 19.7252 4.37653 20.4504L5.90439 16.7537C4.43428 16.1461 3.94937 15.699 3.84426 15.5828C3.80148 15.5355 3.85899 15.5844 3.91684 15.7433C3.94528 15.8215 3.971 15.9189 3.98608 16.0345C3.99355 16.0917 3.99822 16.1521 3.99959 16.2154C4.00026 16.247 4.00011 16.2791 3.9991 16.3118C3.99859 16.3282 3.99786 16.3447 3.99691 16.3612C3.99644 16.3695 3.99591 16.3779 3.99533 16.3862C3.99504 16.3904 3.99473 16.3946 3.99441 16.3988C3.99425 16.4009 3.994 16.404 3.99392 16.4051C3.99367 16.4082 3.99341 16.4114 2.00021 16.2466ZM12.5583 22.7192C14.8078 23.1638 17.4923 23.6008 20.698 24.0128L21.2079 20.0455C18.075 19.6428 15.4806 19.2194 13.3338 18.7951L12.5583 22.7192ZM28.8367 24.8914C31.3278 25.1165 34.0439 25.3272 37.0054 25.5194L37.2644 21.5278C34.3336 21.3376 31.6513 21.1294 29.1967 20.9076L28.8367 24.8914ZM45.1395 25.9683C46.4587 26.0294 47.8177 26.0872 49.2177 26.1414L49.3724 22.1444C47.9823 22.0906 46.6334 22.0332 45.3246 21.9726L45.1395 25.9683ZM49.2177 26.1414C50.6586 26.1972 52.0726 26.2375 53.4613 26.2633L53.5355 22.264C52.1739 22.2387 50.7867 22.1991 49.3724 22.1444L49.2177 26.1414ZM61.9482 26.2396C64.885 26.1668 67.7086 26.0278 70.439 25.8331L70.1544 21.8432C67.4848 22.0336 64.7231 22.1695 61.8491 22.2408L61.9482 26.2396ZM78.8995 25.0299C81.7819 24.6888 84.5709 24.2909 87.2951 23.8513L86.658 19.9024C83.983 20.334 81.25 20.7238 78.4294 21.0576L78.8995 25.0299ZM95.6311 22.359C98.4134 21.8176 101.157 21.2469 103.893 20.6656L103.062 16.753C100.336 17.3321 97.6172 17.8975 94.8671 18.4326L95.6311 22.359ZM112.107 18.909C114.801 18.3374 117.521 17.7723 120.304 17.2293L119.538 13.3033C116.725 13.8522 113.981 14.4223 111.277 14.9962L112.107 18.909ZM128.513 15.7416C131.177 15.3003 133.918 14.8899 136.761 14.5225L136.248 10.5555C133.353 10.9296 130.565 11.3471 127.859 11.7954L128.513 15.7416ZM145.028 13.6141C147.693 13.3729 150.456 13.1729 153.33 13.0222L153.121 9.02771C150.195 9.18107 147.382 9.38469 144.667 9.63038L145.028 13.6141ZM161.662 12.7363C163.028 12.7134 164.42 12.7017 165.839 12.7017V8.70166C164.398 8.70166 162.984 8.71362 161.595 8.73685L161.662 12.7363ZM165.839 12.7017C167.225 12.7017 168.609 12.7027 169.99 12.7047L169.996 8.70467C168.613 8.70268 167.227 8.70166 165.839 8.70166V12.7017ZM178.294 12.7279C181.084 12.7394 183.855 12.7545 186.597 12.7726L186.623 8.77271C183.878 8.75454 181.104 8.73945 178.311 8.72793L178.294 12.7279ZM194.897 12.8373C197.705 12.8624 200.474 12.8904 203.195 12.9207L203.239 8.92098C200.516 8.89064 197.744 8.86262 194.933 8.83747L194.897 12.8373ZM211.496 13.022C214.335 13.0595 217.105 13.0992 219.797 13.1402L219.858 9.14065C217.164 9.09959 214.39 9.05991 211.549 9.02232L211.496 13.022ZM228.104 13.275C231.003 13.3248 233.779 13.3756 236.417 13.4261L236.494 9.42682C233.853 9.37625 231.074 9.32548 228.173 9.27557L228.104 13.275ZM244.703 13.5929C247.766 13.6576 250.549 13.7199 253.011 13.7771L253.104 9.77823C250.639 9.72091 247.853 9.65859 244.787 9.59381L244.703 13.5929Z" fill="#ACAEA7"/>
</svg>
