<svg xmlns="http://www.w3.org/2000/svg" fill="none" viewBox="0 0 281 238">
  <g opacity=".5">
    <path fill="#FFB500" d="m152.3 151.1 61.77-16.36 22.66 22.53-61.78 16.36z" opacity=".7"/>
  </g>
  <path fill="#FFB500" d="m166.73 204.33-22.6-22.54 8.17-30.7 22.6 22.54z" opacity=".5"/>
  <path fill="#FFB500" d="m236.65 157.23-8.26 30.66-61.68 16.43 8.26-30.66 61.68-16.43Z"/>
  <path fill="#FFB500" fill-rule="evenodd" d="m177.32 148.5-11.7-3.13-1.61 6.03v.01c-.23.86.11 1.87 1.07 2.82a9.52 9.52 0 0 0 8.27 2.22c1.31-.35 2.11-1.05 2.35-1.9v-.02l1.62-6.02Z" clip-rule="evenodd" opacity=".7"/>
  <path fill="#FFB500" d="M176.22 145.65c1.92 1.91 1.36 4.03-1.27 4.73-2.63.7-6.32-.3-8.25-2.2-1.92-1.93-1.36-4.05 1.27-4.74a9.5 9.5 0 0 1 8.25 2.2Z"/>
  <path fill="#FFB500" fill-rule="evenodd" d="m194.94 143.31-11.7-3.13-1.6 6.03-.01.01c-.22.86.12 1.86 1.08 2.82a9.52 9.52 0 0 0 8.27 2.21c1.3-.34 2.1-1.04 2.34-1.9v-.01l1.62-6.03Z" clip-rule="evenodd" opacity=".7"/>
  <path fill="#FFB500" d="M193.84 140.45c1.93 1.92 1.36 4.04-1.27 4.74-2.62.7-6.32-.3-8.24-2.21-1.93-1.92-1.36-4.04 1.27-4.74a9.5 9.5 0 0 1 8.24 2.21Z"/>
  <path fill="#FFB500" fill-rule="evenodd" d="m211.7 137.73-11.7-3.14-1.61 6.03v.01c-.23.86.12 1.86 1.08 2.82a9.52 9.52 0 0 0 8.27 2.21c1.3-.34 2.1-1.04 2.34-1.9l1.62-6.03Z" clip-rule="evenodd" opacity=".7"/>
  <path fill="#FFB500" d="M210.6 134.87c1.93 1.91 1.36 4.03-1.27 4.73a9.5 9.5 0 0 1-8.25-2.21c-1.92-1.92-1.36-4.04 1.27-4.73a9.5 9.5 0 0 1 8.25 2.2Z"/>
  <path fill="#FFB500" fill-rule="evenodd" d="m188.03 160-11.7-3.13-1.6 6.03-.01.01c-.22.86.12 1.86 1.08 2.82a9.52 9.52 0 0 0 8.27 2.21c1.31-.34 2.11-1.04 2.35-1.9v-.01l1.61-6.02Z" clip-rule="evenodd" opacity=".7"/>
  <path fill="#FFB500" d="M186.93 157.15c1.93 1.91 1.36 4.03-1.27 4.73a9.5 9.5 0 0 1-8.24-2.21c-1.93-1.92-1.36-4.04 1.27-4.73 2.63-.7 6.32.29 8.24 2.2Z"/>
  <path fill="#FFB500" fill-rule="evenodd" d="m205.66 154.81-11.7-3.13-1.61 6.02v.02c-.23.85.12 1.86 1.08 2.81a9.52 9.52 0 0 0 8.27 2.22c1.3-.35 2.1-1.04 2.34-1.9v-.01l1.62-6.03Z" clip-rule="evenodd" opacity=".7"/>
  <path fill="#FFB500" d="M204.56 151.95c1.93 1.92 1.36 4.04-1.27 4.74a9.5 9.5 0 0 1-8.25-2.21c-1.92-1.92-1.35-4.04 1.27-4.74a9.5 9.5 0 0 1 8.25 2.21Z"/>
  <path fill="#FFB500" fill-rule="evenodd" d="m222.42 149.22-11.7-3.13-1.62 6.03v.01c-.22.86.12 1.86 1.08 2.82a9.52 9.52 0 0 0 8.27 2.21c1.31-.34 2.11-1.04 2.35-1.9v-.01l1.62-6.03Z" clip-rule="evenodd" opacity=".7"/>
  <path fill="#FFB500" d="M221.32 146.36c1.92 1.92 1.36 4.04-1.27 4.74a9.5 9.5 0 0 1-8.25-2.21c-1.93-1.92-1.36-4.04 1.27-4.74a9.5 9.5 0 0 1 8.25 2.21Z"/>
  <g opacity=".5">
    <path fill="#FFB500" d="m29.41 55.8 45.32-45.06 30.89 8.18L60.3 63.98z" opacity=".7"/>
  </g>
  <path fill="#FFB500" d="m68.53 94.68-30.85-8.23-8.27-30.67L60.26 64z" opacity=".5"/>
  <path fill="#FFB500" d="m105.53 18.93 8.17 30.68-45.2 45.07-8.17-30.69 45.2-45.06Z"/>
  <path fill="#FFB500" fill-rule="evenodd" d="m49.78 41.04-11.7 3.13 1.62 6.03v.01c.24.86 1.04 1.55 2.35 1.9 2.64.7 6.34-.3 8.27-2.22.96-.95 1.3-1.96 1.08-2.81v-.02l-1.62-6.02Z" clip-rule="evenodd" opacity=".7"/>
  <path fill="#FFB500" d="M47.4 39.11c2.63.7 3.2 2.82 1.27 4.73a9.48 9.48 0 0 1-8.25 2.21c-2.62-.7-3.2-2.81-1.27-4.73a9.48 9.48 0 0 1 8.25-2.2Z"/>
  <path fill="#FFB500" fill-rule="evenodd" d="m62.45 27.73-11.7 3.13 1.62 6.03v.01c.24.85 1.04 1.55 2.35 1.9 2.63.7 6.34-.3 8.27-2.22.96-.95 1.3-1.96 1.08-2.81v-.02l-1.62-6.02Z" clip-rule="evenodd" opacity=".7"/>
  <path fill="#FFB500" d="M60.07 25.8c2.63.7 3.2 2.82 1.27 4.73a9.48 9.48 0 0 1-8.25 2.21c-2.63-.7-3.2-2.81-1.27-4.73a9.48 9.48 0 0 1 8.25-2.21Z"/>
  <path fill="#FFB500" fill-rule="evenodd" d="m74.17 14.51-11.7 3.13 1.62 6.03v.02c.24.85 1.04 1.55 2.35 1.9 2.63.69 6.33-.3 8.27-2.22.96-.96 1.3-1.96 1.08-2.82v-.01l-1.62-6.03Z" clip-rule="evenodd" opacity=".7"/>
  <path fill="#FFB500" d="M71.79 12.58c2.62.7 3.2 2.82 1.26 4.74a9.48 9.48 0 0 1-8.24 2.2c-2.63-.7-3.2-2.81-1.27-4.73a9.48 9.48 0 0 1 8.25-2.2Z"/>
  <path fill="#FFB500" fill-rule="evenodd" d="m64.82 45.64-11.7 3.13 1.61 6.03v.01c.24.85 1.04 1.55 2.35 1.9 2.64.7 6.34-.3 8.27-2.22.96-.95 1.3-1.96 1.08-2.81v-.02l-1.61-6.02Z" clip-rule="evenodd" opacity=".7"/>
  <path fill="#FFB500" d="M62.43 43.71c2.63.7 3.2 2.82 1.27 4.73a9.48 9.48 0 0 1-8.25 2.21c-2.62-.7-3.2-2.81-1.26-4.73a9.48 9.48 0 0 1 8.24-2.21Z"/>
  <path fill="#FFB500" fill-rule="evenodd" d="m77.48 32.33-11.7 3.13 1.62 6.03v.01c.24.85 1.04 1.55 2.35 1.9 2.63.7 6.34-.3 8.27-2.22.96-.95 1.3-1.96 1.08-2.81v-.02l-1.62-6.02Z" clip-rule="evenodd" opacity=".7"/>
  <path fill="#FFB500" d="M75.1 30.4c2.63.7 3.2 2.82 1.27 4.73a9.48 9.48 0 0 1-8.25 2.21c-2.63-.7-3.2-2.81-1.27-4.73a9.48 9.48 0 0 1 8.25-2.21Z"/>
  <path fill="#FFB500" fill-rule="evenodd" d="m89.2 19.1-11.7 3.14 1.62 6.03v.01c.24.86 1.04 1.55 2.35 1.9 2.63.7 6.33-.3 8.27-2.21.96-.96 1.3-1.96 1.08-2.82v-.02l-1.62-6.02Z" clip-rule="evenodd" opacity=".7"/>
  <path fill="#FFB500" d="M86.82 17.18c2.62.7 3.2 2.82 1.26 4.74a9.48 9.48 0 0 1-8.24 2.2c-2.63-.7-3.2-2.81-1.27-4.73a9.48 9.48 0 0 1 8.25-2.2Z"/>
  <mask id="a" width="281" height="157" x="0" y="33" maskUnits="userSpaceOnUse" style="mask-type:alpha">
    <path fill="#D9D9D9" fill-rule="evenodd" d="M114.73 33.07H174v14.6h-59.27v-14.6ZM29.27 63.99H.5v92.76h5.58v14.6h26.63v-91.9h-3.44V63.99Zm251.23-3h-46.81v14.6h6.87v78.58h39.94V61ZM104 175.2h39.94v14.6H104v-14.6Z" clip-rule="evenodd"/>
  </mask>
  <g mask="url(#a)">
    <path stroke="#0086BF" stroke-dasharray="10 10" d="M210.27 53.7c3.3 1.42 6.5 2.94 9.6 4.56l-.41.26a124.93 124.93 0 0 1 8.74 5.05l.46-.24a102.9 102.9 0 0 1 7.89 5.54l-.5.21a85.95 85.95 0 0 1 6.89 5.93l.52-.18a72.7 72.7 0 0 1 5.86 6.33l-.55.15a61.27 61.27 0 0 1 4.73 6.6l.57-.13c1.4 2.26 2.6 4.55 3.6 6.87l-.6.08c1 2.32 1.8 4.66 2.4 7l.61-.05c.6 2.37 1.01 4.75 1.21 7.14l-.6.02c.2 2.38.2 4.76 0 7.14l.6.02a43.6 43.6 0 0 1-1.2 7.13l-.61-.05a47 47 0 0 1-2.4 7l.59.09c-1 2.31-2.2 4.6-3.6 6.86l-.57-.12a61.18 61.18 0 0 1-4.73 6.6l.55.15a72.61 72.61 0 0 1-5.86 6.33l-.52-.19c-2.1 2.03-4.4 4-6.88 5.93l.49.22c-2.45 1.9-5.08 3.75-7.9 5.54l-.45-.24a116.49 116.49 0 0 1-8.38 4.86l.41.26c-2.84 1.5-5.76 2.9-8.77 4.23l-.37-.28a151.08 151.08 0 0 1-9.36 3.74l.32.3a166.63 166.63 0 0 1-9.95 3.25l-.28-.32c-3.4 1-6.86 1.9-10.37 2.7l.23.34a194.7 194.7 0 0 1-10.81 2.15l-.18-.34c-3.65.63-7.33 1.15-11.05 1.58l.12.35c-3.74.43-7.51.76-11.3 1l-.07-.35c-3.77.23-7.56.37-11.36.4l.01.36c-3.81.03-7.63-.03-11.43-.19l.04-.35c-3.78-.16-7.55-.42-11.3-.77l-.1.35a216.3 216.3 0 0 1-11.19-1.36l.15-.35A203.37 203.37 0 0 1 92.9 181l-.2.33c-3.22-.66-6.4-1.39-9.54-2.2l.25-.32c-3.1-.8-6.14-1.67-9.14-2.62l-.3.3c-2.98-.94-5.9-1.96-8.78-3.05l.34-.3a146.83 146.83 0 0 1-8.28-3.44l-.38.28a135.7 135.7 0 0 1-7.81-3.84l.41-.26a125.4 125.4 0 0 1-7.95-4.63l-.45.24a102.7 102.7 0 0 1-7.9-5.55l.5-.2a86.1 86.1 0 0 1-6.88-5.94l-.53.19a72.63 72.63 0 0 1-5.86-6.33l.56-.15a61.23 61.23 0 0 1-4.73-6.6l-.58.12a53.1 53.1 0 0 1-3.6-6.86l.6-.09c-1-2.31-1.8-4.65-2.4-7l-.6.05A42.88 42.88 0 0 1 8.43 116l.61-.02a42.3 42.3 0 0 1 0-7.14l-.6-.02c.2-2.38.6-4.77 1.2-7.14l.61.06c.6-2.35 1.4-4.7 2.4-7l-.6-.1c1-2.3 2.2-4.6 3.6-6.86l.58.12a61.32 61.32 0 0 1 4.73-6.6l-.56-.14a72.73 72.73 0 0 1 5.86-6.33l.53.18c2.1-2.02 4.4-4 6.88-5.93l-.5-.2a103.8 103.8 0 0 1 7.9-5.55l.45.24a116.38 116.38 0 0 1 8.75-5.05l-.41-.26c3.1-1.62 6.3-3.14 9.6-4.56l.36.29c3.33-1.44 6.76-2.76 10.27-3.98l-.31-.3c3.57-1.24 7.23-2.37 10.95-3.38l.26.32c3.75-1.02 7.56-1.93 11.43-2.73l-.2-.33c3.9-.81 7.88-1.5 11.88-2.08l.15.34c4.01-.57 8.06-1.04 12.13-1.38l-.09-.35c4.1-.35 8.23-.59 12.37-.7l.03.35c4.11-.12 8.24-.12 12.36 0l.03-.35c4.14.11 8.26.35 12.37.7l-.1.35c4.08.34 8.13.8 12.13 1.38l.15-.34a201 201 0 0 1 11.9 2.08l-.21.33c3.87.8 7.68 1.7 11.42 2.73l.26-.32c3.73 1.01 7.38 2.14 10.96 3.38l-.32.3c3.51 1.22 6.94 2.54 10.28 3.98l.36-.29Z"/>
  </g>
  <path fill="#FFB500" d="m77.68 198.07-30.82-8.25-8.26-30.79 30.82 8.25z" opacity=".3"/>
  <path fill="#FFB500" d="m77.64 198.08-8.24-30.8 22.56-22.55 8.24 30.8z"/>
  <path fill="#FFB500" d="m92.02 144.72-22.57 22.56-30.83-8.25 22.58-22.55z" opacity=".5"/>
  <path fill="#FFB500" fill-rule="evenodd" d="m56.1 147.38-11.67 3.13 1.62 6.04v.01c.24.86 1.04 1.56 2.34 1.9a9.43 9.43 0 0 0 8.25-2.2c.96-.96 1.3-1.97 1.08-2.82v-.02l-1.63-6.04Z" clip-rule="evenodd" opacity=".7"/>
  <path fill="#FFB500" d="M53.71 145.44c2.63.7 3.2 2.83 1.28 4.75a9.41 9.41 0 0 1-8.23 2.2c-2.62-.7-3.19-2.82-1.27-4.74a9.41 9.41 0 0 1 8.22-2.2Z"/>
  <path fill="#FFB500" fill-rule="evenodd" d="m67.54 136.63-11.66 3.13 1.62 6.04v.02c.24.85 1.03 1.55 2.34 1.9 2.63.7 6.32-.29 8.25-2.21.96-.96 1.3-1.96 1.08-2.82l-1.63-6.06Z" clip-rule="evenodd" opacity=".7"/>
  <path fill="#FFB500" d="M65.16 134.7c2.62.7 3.2 2.83 1.27 4.74a9.41 9.41 0 0 1-8.22 2.2c-2.62-.7-3.2-2.82-1.27-4.74a9.41 9.41 0 0 1 8.22-2.2Z"/>
  <path fill="#FFB500" fill-rule="evenodd" d="m71.4 151.04-11.66 3.12 1.62 6.05v.01c.24.85 1.03 1.56 2.34 1.9 2.63.7 6.32-.28 8.25-2.2.96-.96 1.3-1.97 1.07-2.82l-1.62-6.06Z" clip-rule="evenodd" opacity=".7"/>
  <path fill="#FFB500" d="M69.02 149.1c2.62.7 3.2 2.83 1.27 4.75a9.41 9.41 0 0 1-8.22 2.2c-2.62-.7-3.2-2.82-1.27-4.74a9.41 9.41 0 0 1 8.22-2.2Z"/>
  <path fill="#FFB500" fill-rule="evenodd" d="m82.63 139.78-11.66 3.13 1.62 6.04v.02c.24.85 1.04 1.55 2.34 1.9a9.5 9.5 0 0 0 8.25-2.2c.96-.96 1.3-1.97 1.08-2.83l-1.63-6.06Z" clip-rule="evenodd" opacity=".7"/>
  <path fill="#FFB500" d="M80.25 137.85c2.62.7 3.2 2.83 1.27 4.75a9.41 9.41 0 0 1-8.22 2.2c-2.62-.7-3.2-2.83-1.27-4.75a9.41 9.41 0 0 1 8.22-2.2Z"/>
  <path fill="#FFB500" d="M199.36 80.4 176.8 57.86l8.24-30.79 22.57 22.56z" opacity=".3"/>
  <path fill="#FFB500" d="m199.32 80.4 8.26-30.79 30.82-8.25-8.26 30.79z"/>
  <path fill="#FFB500" d="m238.46 41.39-30.83 8.24-22.58-22.55 30.83-8.24z" opacity=".5"/>
  <path fill="#FFB500" fill-rule="evenodd" d="m206.01 25.72-11.66-3.12-1.62 6.04v.01c-.23.86.11 1.87 1.07 2.82a9.45 9.45 0 0 0 8.25 2.21c1.3-.35 2.1-1.05 2.34-1.9v-.02l1.62-6.04Z" clip-rule="evenodd" opacity=".7"/>
  <path fill="#FFB500" d="M204.92 22.86c1.92 1.91 1.35 4.04-1.27 4.74-2.63.7-6.3-.28-8.23-2.2-1.92-1.92-1.35-4.05 1.28-4.75 2.62-.7 6.3.29 8.22 2.2Z"/>
  <path fill="#FFB500" fill-rule="evenodd" d="M221.3 22.14 209.64 19l-1.62 6.04v.02c-.23.86.11 1.86 1.07 2.82a9.45 9.45 0 0 0 8.25 2.2c1.3-.34 2.1-1.04 2.34-1.9l1.62-6.05Z" clip-rule="evenodd" opacity=".7"/>
  <path fill="#FFB500" d="M220.2 19.27c1.93 1.92 1.36 4.05-1.27 4.75-2.62.7-6.3-.29-8.22-2.2-1.92-1.92-1.35-4.05 1.27-4.75 2.62-.7 6.3.28 8.23 2.2Z"/>
  <path fill="#FFB500" fill-rule="evenodd" d="m217.44 36.54-11.66-3.12-1.62 6.04v.02c-.23.85.11 1.86 1.07 2.82a9.45 9.45 0 0 0 8.25 2.2c1.3-.34 2.1-1.05 2.34-1.9l1.62-6.06Z" clip-rule="evenodd" opacity=".7"/>
  <path fill="#FFB500" d="M216.34 33.68c1.92 1.92 1.36 4.04-1.27 4.74a9.4 9.4 0 0 1-8.22-2.2c-1.92-1.92-1.35-4.04 1.27-4.75 2.62-.7 6.3.29 8.22 2.2Z"/>
  <path fill="#FFB500" fill-rule="evenodd" d="m232.8 32.41-11.67-3.12-1.62 6.04v.01c-.23.86.11 1.87 1.07 2.82a9.45 9.45 0 0 0 8.25 2.21c1.3-.35 2.1-1.05 2.34-1.9l1.62-6.06Z" clip-rule="evenodd" opacity=".7"/>
  <path fill="#FFB500" d="M231.7 29.55c1.92 1.92 1.35 4.04-1.27 4.74-2.63.7-6.3-.28-8.23-2.2-1.92-1.92-1.35-4.05 1.28-4.75 2.62-.7 6.3.29 8.22 2.2Z"/>
</svg>
