<svg xmlns="http://www.w3.org/2000/svg" fill="none" viewBox="0 0 299 278">
  <mask id="a" width="270" height="156" x="15" y="112" maskUnits="userSpaceOnUse" style="mask-type:alpha">
    <path fill="#0086BF" d="M154.89 113.05a.7.7 0 0 1-.64 0c-.18-.1-.18-.27 0-.37.18-.1.46-.1.64 0s.18.27 0 .37Zm-4.79 2.76a.7.7 0 0 1-.64 0c-.17-.1-.17-.26 0-.37a.7.7 0 0 1 .64 0c.18.1.18.27 0 .37Zm-4.79 2.77a.7.7 0 0 1-.63 0c-.18-.1-.18-.27 0-.37a.7.7 0 0 1 .63 0c.18.1.18.27 0 .37Zm-4.78 2.76a.7.7 0 0 1-.64 0c-.18-.1-.18-.27 0-.37.18-.1.46-.1.64 0 .17.1.17.27 0 .37Zm-4.79 2.76c-.18.1-.46.1-.64 0-.17-.1-.17-.26 0-.36a.7.7 0 0 1 .64 0c.18.1.18.26 0 .37Zm-4.79 2.77a.7.7 0 0 1-.63 0c-.18-.1-.18-.27 0-.37a.7.7 0 0 1 .63 0c.18.1.18.27 0 .37Zm-4.78 2.76a.7.7 0 0 1-.64 0c-.18-.1-.18-.26 0-.37.17-.1.46-.1.64 0 .17.1.17.27 0 .37Zm-4.79 2.77c-.18.1-.46.1-.64 0s-.18-.27 0-.37a.7.7 0 0 1 .64 0c.18.1.18.26 0 .37Zm-4.78 2.76a.7.7 0 0 1-.65 0c-.17-.1-.17-.27 0-.37a.7.7 0 0 1 .64 0c.18.1.18.27 0 .37Zm-4.8 2.76a.7.7 0 0 1-.63 0c-.18-.1-.18-.26 0-.37a.7.7 0 0 1 .63 0c.18.1.18.27 0 .37Zm-4.78 2.77c-.18.1-.46.1-.64 0s-.18-.27 0-.37a.7.7 0 0 1 .64 0c.17.1.17.27 0 .37Zm-4.79 2.76a.7.7 0 0 1-.64 0c-.17-.1-.17-.27 0-.37a.7.7 0 0 1 .64 0c.18.1.18.27 0 .37Zm-4.79 2.76a.7.7 0 0 1-.64 0c-.17-.1-.17-.26 0-.36a.7.7 0 0 1 .64 0c.18.1.18.26 0 .36Zm-4.78 2.77c-.18.1-.47.1-.64 0-.18-.1-.18-.27 0-.37a.7.7 0 0 1 .64 0c.17.1.17.27 0 .37Zm-4.79 2.76a.7.7 0 0 1-.64 0c-.18-.1-.18-.27 0-.37a.7.7 0 0 1 .64 0c.17.1.17.27 0 .37Zm-4.79 2.76a.7.7 0 0 1-.64 0c-.17-.1-.17-.26 0-.36a.7.7 0 0 1 .64 0c.18.1.18.26 0 .37Zm-4.78 2.77c-.18.1-.47.1-.64 0-.18-.1-.18-.27 0-.37a.7.7 0 0 1 .63 0c.18.1.18.27 0 .37Zm-4.8 2.76a.7.7 0 0 1-.63 0c-.18-.1-.18-.26 0-.37a.7.7 0 0 1 .64 0c.17.1.17.27 0 .37Zm-4.78 2.77a.7.7 0 0 1-.64 0c-.18-.1-.18-.27 0-.37a.7.7 0 0 1 .64 0c.18.1.18.26 0 .37Zm-4.79 2.76a.7.7 0 0 1-.64 0c-.17-.1-.17-.27 0-.37.18-.1.47-.1.64 0 .18.1.18.27 0 .37Zm-4.79 2.76a.7.7 0 0 1-.63 0c-.18-.1-.18-.26 0-.36a.7.7 0 0 1 .63 0c.18.1.18.26 0 .36Zm-4.78 2.77a.7.7 0 0 1-.64 0c-.18-.1-.18-.27 0-.37a.7.7 0 0 1 .64 0c.17.1.17.27 0 .37Zm-4.79 2.76a.7.7 0 0 1-.64 0c-.17-.1-.17-.27 0-.37.18-.1.46-.1.64 0s.18.27 0 .37Zm-4.79 2.76a.7.7 0 0 1-.64 0c-.17-.1-.17-.26 0-.36a.7.7 0 0 1 .64 0c.18.1.18.26 0 .36ZM40 179.38a.7.7 0 0 1-.64 0c-.18-.1-.18-.27 0-.37a.7.7 0 0 1 .64 0c.17.1.17.27 0 .37Zm-4.8 2.76a.7.7 0 0 1-.63 0c-.18-.1-.18-.26 0-.37.18-.1.46-.1.64 0 .17.1.17.27 0 .37Zm-4.78 2.76c-.18.1-.46.1-.64 0-.17-.1-.17-.26 0-.36a.7.7 0 0 1 .64 0c.18.1.18.26 0 .37Zm-4.79 2.77a.7.7 0 0 1-.63 0c-.18-.1-.18-.27 0-.37a.7.7 0 0 1 .63 0c.18.1.18.27 0 .37Zm-4.78 2.76a.7.7 0 0 1-.64 0c-.18-.1-.18-.26 0-.37.17-.1.46-.1.64 0 .17.1.17.27 0 .37Zm-4.79 2.77c-.18.1-.46.1-.64 0s-.18-.27 0-.37a.7.7 0 0 1 .64 0c.18.1.18.26 0 .37Zm143.62-77.39a.7.7 0 0 1-.64 0c-.18-.1-.18-.26 0-.37a.7.7 0 0 1 .64 0c.17.1.17.27 0 .37Zm-4.79 2.77a.7.7 0 0 1-.64 0c-.18-.1-.18-.27 0-.37a.7.7 0 0 1 .64 0c.18.1.18.27 0 .37Zm-4.79 2.76a.7.7 0 0 1-.64 0c-.17-.1-.17-.27 0-.37.18-.1.47-.1.64 0 .18.1.18.27 0 .37Zm-4.79 2.76a.7.7 0 0 1-.63 0c-.18-.1-.18-.26 0-.36a.7.7 0 0 1 .63 0c.18.1.18.26 0 .37Zm-4.78 2.77a.7.7 0 0 1-.64 0c-.18-.1-.18-.27 0-.37a.7.7 0 0 1 .64 0c.17.1.17.27 0 .37Zm-4.79 2.76a.7.7 0 0 1-.64 0c-.17-.1-.17-.26 0-.37.18-.1.46-.1.64 0s.18.27 0 .37Zm-4.79 2.77a.7.7 0 0 1-.63 0c-.18-.1-.18-.27 0-.37a.7.7 0 0 1 .63 0c.18.1.18.26 0 .37Zm-4.78 2.76a.7.7 0 0 1-.64 0c-.18-.1-.18-.27 0-.37a.7.7 0 0 1 .64 0c.17.1.17.27 0 .37Zm-4.79 2.76a.7.7 0 0 1-.64 0c-.18-.1-.18-.26 0-.37.18-.1.46-.1.64 0s.18.27 0 .37Zm-4.78 2.77c-.18.1-.47.1-.65 0-.17-.1-.17-.27 0-.37a.7.7 0 0 1 .64 0c.18.1.18.27 0 .37Zm-4.8 2.76a.7.7 0 0 1-.63 0c-.18-.1-.18-.27 0-.37a.7.7 0 0 1 .63 0c.18.1.18.27 0 .37Zm-4.78 2.76a.7.7 0 0 1-.64 0c-.18-.1-.18-.26 0-.36a.7.7 0 0 1 .64 0c.17.1.17.26 0 .36Zm-4.79 2.77c-.18.1-.46.1-.64 0-.17-.1-.17-.27 0-.37a.7.7 0 0 1 .64 0c.18.1.18.27 0 .37Zm-4.79 2.76a.7.7 0 0 1-.64 0c-.17-.1-.17-.27 0-.37a.7.7 0 0 1 .64 0c.18.1.18.27 0 .37Zm-4.78 2.76a.7.7 0 0 1-.64 0c-.18-.1-.18-.26 0-.36a.7.7 0 0 1 .64 0c.17.1.17.26 0 .37Zm-4.79 2.77c-.18.1-.46.1-.64 0s-.18-.27 0-.37a.7.7 0 0 1 .64 0c.17.1.17.27 0 .37Zm-4.79 2.76a.7.7 0 0 1-.64 0c-.17-.1-.17-.26 0-.37a.7.7 0 0 1 .64 0c.18.1.18.27 0 .37Zm-4.78 2.77a.7.7 0 0 1-.64 0c-.18-.1-.18-.27 0-.37a.7.7 0 0 1 .63 0c.18.1.18.26 0 .37Zm-4.8 2.76a.7.7 0 0 1-.63 0c-.18-.1-.18-.27 0-.37.17-.1.46-.1.64 0 .17.1.17.27 0 .37Zm-4.78 2.76a.7.7 0 0 1-.64 0c-.18-.1-.18-.26 0-.36a.7.7 0 0 1 .64 0c.18.1.18.26 0 .36Zm-4.79 2.77a.7.7 0 0 1-.64 0c-.17-.1-.17-.27 0-.37a.7.7 0 0 1 .64 0c.18.1.18.27 0 .37Zm-4.79 2.76a.7.7 0 0 1-.63 0c-.18-.1-.18-.27 0-.37a.7.7 0 0 1 .63 0c.18.1.18.27 0 .37Zm-4.78 2.77c-.18.1-.46.1-.64 0s-.18-.27 0-.37a.7.7 0 0 1 .64 0c.17.1.17.26 0 .37Zm-4.79 2.76a.7.7 0 0 1-.64 0c-.17-.1-.17-.27 0-.37a.7.7 0 0 1 .64 0c.18.1.18.27 0 .37Zm-4.79 2.76a.7.7 0 0 1-.64 0c-.17-.1-.17-.26 0-.37.18-.1.47-.1.64 0 .18.1.18.27 0 .37ZM40 184.9c-.18.1-.47.1-.64 0-.18-.1-.18-.26 0-.36a.7.7 0 0 1 .64 0c.17.1.17.26 0 .37Zm-4.8 2.77a.7.7 0 0 1-.63 0c-.18-.1-.18-.27 0-.37a.7.7 0 0 1 .64 0c.17.1.17.27 0 .37Zm-4.78 2.76a.7.7 0 0 1-.64 0c-.17-.1-.17-.26 0-.37.18-.1.46-.1.64 0s.18.27 0 .37Zm-4.79 2.77a.7.7 0 0 1-.63 0c-.18-.1-.18-.27 0-.37a.7.7 0 0 1 .63 0c.18.1.18.26 0 .37Zm-4.78 2.76a.7.7 0 0 1-.64 0c-.18-.1-.18-.27 0-.37a.7.7 0 0 1 .64 0c.17.1.17.27 0 .37Zm143.61-77.38a.7.7 0 0 1-.63 0c-.18-.1-.18-.27 0-.37a.7.7 0 0 1 .63 0c.18.1.18.27 0 .37Zm-4.78 2.76a.7.7 0 0 1-.64 0c-.18-.1-.18-.27 0-.37.18-.1.46-.1.64 0 .17.1.17.27 0 .37Zm-4.79 2.76c-.18.1-.46.1-.64 0s-.18-.26 0-.36a.7.7 0 0 1 .64 0c.18.1.18.26 0 .37Zm-4.79 2.77a.7.7 0 0 1-.64 0c-.17-.1-.17-.27 0-.37a.7.7 0 0 1 .64 0c.18.1.18.27 0 .37Zm-4.79 2.76a.7.7 0 0 1-.63 0c-.18-.1-.18-.26 0-.37a.7.7 0 0 1 .63 0c.18.1.18.27 0 .37Zm-4.78 2.77c-.18.1-.46.1-.64 0s-.18-.27 0-.37a.7.7 0 0 1 .64 0c.17.1.17.26 0 .37Zm-4.79 2.76a.7.7 0 0 1-.64 0c-.17-.1-.17-.27 0-.37a.7.7 0 0 1 .64 0c.18.1.18.27 0 .37Zm-4.79 2.76a.7.7 0 0 1-.63 0c-.18-.1-.18-.26 0-.37a.7.7 0 0 1 .63 0c.18.1.18.27 0 .37Zm-4.78 2.77c-.18.1-.47.1-.64 0-.18-.1-.18-.27 0-.37a.7.7 0 0 1 .64 0c.17.1.17.27 0 .37Zm-4.79 2.76a.7.7 0 0 1-.64 0c-.18-.1-.18-.27 0-.37a.7.7 0 0 1 .64 0c.18.1.18.27 0 .37Zm-4.78 2.76a.7.7 0 0 1-.65 0c-.17-.1-.17-.26 0-.36a.7.7 0 0 1 .64 0c.18.1.18.26 0 .36Zm-4.8 2.77a.7.7 0 0 1-.63 0c-.18-.1-.18-.27 0-.37a.7.7 0 0 1 .63 0c.18.1.18.27 0 .37Zm-4.78 2.76a.7.7 0 0 1-.64 0c-.18-.1-.18-.27 0-.37a.7.7 0 0 1 .64 0c.17.1.17.27 0 .37Zm-4.79 2.76a.7.7 0 0 1-.64 0c-.17-.1-.17-.26 0-.36a.7.7 0 0 1 .64 0c.18.1.18.26 0 .37Zm-4.79 2.77c-.17.1-.46.1-.64 0-.17-.1-.17-.27 0-.37a.7.7 0 0 1 .64 0c.18.1.18.27 0 .37Zm-4.78 2.76a.7.7 0 0 1-.64 0c-.18-.1-.18-.26 0-.37a.7.7 0 0 1 .64 0c.17.1.17.27 0 .37Zm-4.79 2.77a.7.7 0 0 1-.64 0c-.18-.1-.18-.27 0-.37a.7.7 0 0 1 .64 0c.17.1.17.26 0 .37Zm-4.79 2.76a.7.7 0 0 1-.64 0c-.17-.1-.17-.27 0-.37.18-.1.46-.1.64 0s.18.27 0 .37Zm-4.78 2.76a.7.7 0 0 1-.64 0c-.18-.1-.18-.26 0-.36a.7.7 0 0 1 .63 0c.18.1.18.26 0 .36Zm-4.8 2.77a.7.7 0 0 1-.63 0c-.18-.1-.18-.27 0-.37a.7.7 0 0 1 .64 0c.17.1.17.27 0 .37Zm-4.78 2.76a.7.7 0 0 1-.64 0c-.18-.1-.18-.27 0-.37.18-.1.46-.1.64 0s.18.27 0 .37Zm-4.79 2.76a.7.7 0 0 1-.64 0c-.17-.1-.17-.26 0-.36a.7.7 0 0 1 .64 0c.18.1.18.26 0 .36Zm-4.79 2.77a.7.7 0 0 1-.63 0c-.18-.1-.18-.27 0-.37a.7.7 0 0 1 .63 0c.18.1.18.27 0 .37Zm-4.78 2.76a.7.7 0 0 1-.64 0c-.18-.1-.18-.26 0-.37.18-.1.46-.1.64 0 .17.1.17.27 0 .37Zm-4.79 2.76c-.18.1-.46.1-.64 0-.17-.1-.17-.26 0-.36a.7.7 0 0 1 .64 0c.18.1.18.26 0 .37Zm-4.79 2.77a.7.7 0 0 1-.64 0c-.17-.1-.17-.27 0-.37a.7.7 0 0 1 .64 0c.18.1.18.27 0 .37ZM40 190.43a.7.7 0 0 1-.64 0c-.18-.1-.18-.26 0-.37.17-.1.46-.1.64 0 .17.1.17.27 0 .37Zm-4.8 2.77c-.17.1-.45.1-.63 0s-.18-.27 0-.37a.7.7 0 0 1 .64 0c.17.1.17.26 0 .37Zm-4.78 2.76a.7.7 0 0 1-.64 0c-.17-.1-.17-.27 0-.37a.7.7 0 0 1 .64 0c.18.1.18.27 0 .37Zm-4.79 2.76a.7.7 0 0 1-.63 0c-.18-.1-.18-.26 0-.37a.7.7 0 0 1 .63 0c.18.1.18.27 0 .37Zm143.62-77.38a.7.7 0 0 1-.64 0c-.17-.1-.17-.27 0-.37.18-.1.46-.1.64 0s.18.27 0 .37Zm-4.79 2.76a.7.7 0 0 1-.63 0c-.18-.1-.18-.26 0-.36a.7.7 0 0 1 .63 0c.18.1.18.26 0 .37Zm-4.78 2.77a.7.7 0 0 1-.64 0c-.18-.1-.18-.27 0-.37a.7.7 0 0 1 .64 0c.17.1.17.27 0 .37Zm-4.79 2.76a.7.7 0 0 1-.64 0c-.18-.1-.18-.26 0-.37.18-.1.46-.1.64 0s.18.27 0 .37Zm-4.79 2.77c-.17.1-.46.1-.64 0-.17-.1-.17-.27 0-.37a.7.7 0 0 1 .64 0c.18.1.18.26 0 .37Zm-4.79 2.76a.7.7 0 0 1-.63 0c-.18-.1-.18-.27 0-.37a.7.7 0 0 1 .63 0c.18.1.18.27 0 .37Zm-4.78 2.76a.7.7 0 0 1-.64 0c-.18-.1-.18-.26 0-.37.18-.1.46-.1.64 0 .17.1.17.27 0 .37Zm-4.79 2.77c-.18.1-.46.1-.64 0-.17-.1-.17-.27 0-.37a.7.7 0 0 1 .64 0c.18.1.18.27 0 .37Zm-4.79 2.76a.7.7 0 0 1-.63 0c-.18-.1-.18-.27 0-.37a.7.7 0 0 1 .63 0c.18.1.18.27 0 .37Zm-4.78 2.76a.7.7 0 0 1-.64 0c-.18-.1-.18-.26 0-.36a.7.7 0 0 1 .64 0c.17.1.17.26 0 .36Zm-4.79 2.77c-.18.1-.46.1-.64 0s-.18-.27 0-.37a.7.7 0 0 1 .64 0c.18.1.18.27 0 .37Zm-4.78 2.76a.7.7 0 0 1-.65 0c-.17-.1-.17-.27 0-.37a.7.7 0 0 1 .64 0c.18.1.18.27 0 .37Zm-4.8 2.76a.7.7 0 0 1-.63 0c-.18-.1-.18-.26 0-.36a.7.7 0 0 1 .63 0c.18.1.18.26 0 .37Zm-4.78 2.77c-.18.1-.46.1-.64 0s-.18-.27 0-.37a.7.7 0 0 1 .64 0c.17.1.17.27 0 .37Zm-4.79 2.76a.7.7 0 0 1-.64 0c-.17-.1-.17-.26 0-.37a.7.7 0 0 1 .64 0c.18.1.18.27 0 .37Zm-4.79 2.77a.7.7 0 0 1-.64 0c-.17-.1-.17-.27 0-.37a.7.7 0 0 1 .64 0c.18.1.18.26 0 .37Zm-4.78 2.76a.7.7 0 0 1-.64 0c-.18-.1-.18-.27 0-.37.17-.1.46-.1.64 0 .17.1.17.27 0 .37Zm-4.79 2.76a.7.7 0 0 1-.64 0c-.18-.1-.18-.26 0-.36a.7.7 0 0 1 .64 0c.17.1.17.26 0 .36Zm-4.79 2.77a.7.7 0 0 1-.64 0c-.17-.1-.17-.27 0-.37a.7.7 0 0 1 .64 0c.18.1.18.27 0 .37Zm-4.78 2.76a.7.7 0 0 1-.64 0c-.18-.1-.18-.27 0-.37a.7.7 0 0 1 .63 0c.18.1.18.27 0 .37Zm-4.8 2.77a.7.7 0 0 1-.63 0c-.18-.1-.18-.27 0-.37a.7.7 0 0 1 .64 0c.17.1.17.26 0 .37Zm-4.78 2.76a.7.7 0 0 1-.64 0c-.18-.1-.18-.27 0-.37a.7.7 0 0 1 .64 0c.18.1.18.27 0 .37Zm-4.79 2.76a.7.7 0 0 1-.64 0c-.17-.1-.17-.26 0-.37.18-.1.47-.1.64 0 .18.1.18.27 0 .37Zm-4.79 2.76a.7.7 0 0 1-.63 0c-.18-.1-.18-.26 0-.36a.7.7 0 0 1 .63 0c.18.1.18.26 0 .37Zm-4.78 2.77a.7.7 0 0 1-.64 0c-.18-.1-.18-.27 0-.37a.7.7 0 0 1 .64 0c.17.1.17.27 0 .37Zm-4.79 2.76a.7.7 0 0 1-.64 0c-.17-.1-.17-.26 0-.37.18-.1.46-.1.64 0s.18.27 0 .37Zm-4.79 2.77c-.17.1-.46.1-.64 0-.17-.1-.17-.27 0-.37a.7.7 0 0 1 .64 0c.18.1.18.26 0 .37ZM40 195.96a.7.7 0 0 1-.64 0c-.18-.1-.18-.27 0-.37a.7.7 0 0 1 .64 0c.17.1.17.27 0 .37Zm-4.8 2.76a.7.7 0 0 1-.63 0c-.18-.1-.18-.26 0-.37.18-.1.46-.1.64 0 .17.1.17.27 0 .37Zm-4.78 2.77c-.18.1-.46.1-.64 0-.17-.1-.17-.27 0-.37a.7.7 0 0 1 .64 0c.18.1.18.27 0 .37Zm143.62-77.39c-.18.1-.46.1-.64 0s-.18-.26 0-.36a.7.7 0 0 1 .64 0c.18.1.18.26 0 .37Zm-4.79 2.77a.7.7 0 0 1-.64 0c-.17-.1-.17-.27 0-.37a.7.7 0 0 1 .64 0c.18.1.18.27 0 .37Zm-4.79 2.76a.7.7 0 0 1-.63 0c-.18-.1-.18-.26 0-.37a.7.7 0 0 1 .63 0c.18.1.18.27 0 .37Zm-4.78 2.77c-.18.1-.47.1-.64 0-.18-.1-.18-.27 0-.37a.7.7 0 0 1 .64 0c.17.1.17.26 0 .37Zm-4.79 2.76a.7.7 0 0 1-.64 0c-.18-.1-.18-.27 0-.37a.7.7 0 0 1 .64 0c.18.1.18.27 0 .37Zm-4.79 2.76a.7.7 0 0 1-.64 0c-.17-.1-.17-.26 0-.37.18-.1.47-.1.64 0 .18.1.18.27 0 .37Zm-4.79 2.77a.7.7 0 0 1-.63 0c-.18-.1-.18-.27 0-.37a.7.7 0 0 1 .63 0c.18.1.18.27 0 .37Zm-4.78 2.76a.7.7 0 0 1-.64 0c-.18-.1-.18-.27 0-.37a.7.7 0 0 1 .64 0c.17.1.17.27 0 .37Zm-4.79 2.76a.7.7 0 0 1-.64 0c-.17-.1-.17-.26 0-.36a.7.7 0 0 1 .64 0c.18.1.18.26 0 .36Zm-4.79 2.77a.7.7 0 0 1-.63 0c-.18-.1-.18-.27 0-.37a.7.7 0 0 1 .63 0c.18.1.18.27 0 .37Zm-4.78 2.76a.7.7 0 0 1-.64 0c-.18-.1-.18-.27 0-.37a.7.7 0 0 1 .64 0c.17.1.17.27 0 .37Zm-4.79 2.76a.7.7 0 0 1-.64 0c-.18-.1-.18-.26 0-.36a.7.7 0 0 1 .64 0c.18.1.18.26 0 .37Zm-4.78 2.77c-.18.1-.47.1-.65 0-.17-.1-.17-.27 0-.37a.7.7 0 0 1 .64 0c.18.1.18.27 0 .37Zm-4.8 2.76a.7.7 0 0 1-.63 0c-.18-.1-.18-.26 0-.37a.7.7 0 0 1 .63 0c.18.1.18.27 0 .37Zm-4.78 2.77a.7.7 0 0 1-.64 0c-.18-.1-.18-.27 0-.37a.7.7 0 0 1 .64 0c.17.1.17.26 0 .37Zm-4.79 2.76a.7.7 0 0 1-.64 0c-.17-.1-.17-.27 0-.37.18-.1.46-.1.64 0s.18.27 0 .37Zm-4.79 2.76a.7.7 0 0 1-.64 0c-.17-.1-.17-.26 0-.36a.7.7 0 0 1 .64 0c.18.1.18.26 0 .36Zm-4.78 2.77a.7.7 0 0 1-.64 0c-.18-.1-.18-.27 0-.37a.7.7 0 0 1 .64 0c.17.1.17.27 0 .37Zm-4.79 2.76a.7.7 0 0 1-.64 0c-.18-.1-.18-.27 0-.37.18-.1.46-.1.64 0 .17.1.17.27 0 .37Zm-4.79 2.76a.7.7 0 0 1-.64 0c-.17-.1-.17-.26 0-.36a.7.7 0 0 1 .64 0c.18.1.18.26 0 .36Zm-4.78 2.77a.7.7 0 0 1-.64 0c-.18-.1-.18-.27 0-.37a.7.7 0 0 1 .63 0c.18.1.18.27 0 .37Zm-4.8 2.76a.7.7 0 0 1-.63 0c-.18-.1-.18-.26 0-.37.17-.1.46-.1.64 0 .17.1.17.27 0 .37Zm-4.78 2.76c-.18.1-.46.1-.64 0s-.18-.26 0-.36a.7.7 0 0 1 .64 0c.18.1.18.26 0 .37Zm-4.79 2.77a.7.7 0 0 1-.64 0c-.17-.1-.17-.27 0-.37a.7.7 0 0 1 .64 0c.18.1.18.27 0 .37Zm-4.79 2.76a.7.7 0 0 1-.63 0c-.18-.1-.18-.26 0-.37a.7.7 0 0 1 .63 0c.18.1.18.27 0 .37Zm-4.78 2.77c-.18.1-.46.1-.64 0s-.18-.27 0-.37a.7.7 0 0 1 .64 0c.17.1.17.26 0 .37Zm-4.79 2.76a.7.7 0 0 1-.64 0c-.17-.1-.17-.27 0-.37a.7.7 0 0 1 .64 0c.18.1.18.27 0 .37Zm-4.79 2.76a.7.7 0 0 1-.64 0c-.17-.1-.17-.26 0-.37.18-.1.47-.1.64 0 .18.1.18.27 0 .37ZM40 201.49c-.18.1-.47.1-.64 0-.18-.1-.18-.27 0-.37a.7.7 0 0 1 .64 0c.17.1.17.27 0 .37Zm-4.8 2.76a.7.7 0 0 1-.63 0c-.18-.1-.18-.26 0-.37a.7.7 0 0 1 .64 0c.17.1.17.27 0 .37Zm143.63-77.38a.7.7 0 0 1-.64 0c-.18-.1-.18-.27 0-.37a.7.7 0 0 1 .64 0c.17.1.17.27 0 .37Zm-4.79 2.76a.7.7 0 0 1-.64 0c-.18-.1-.18-.26 0-.37.18-.1.46-.1.64 0s.18.27 0 .37Zm-4.79 2.77c-.18.1-.46.1-.64 0-.17-.1-.17-.27 0-.37a.7.7 0 0 1 .64 0c.18.1.18.26 0 .37Zm-4.79 2.76a.7.7 0 0 1-.63 0c-.18-.1-.18-.27 0-.37a.7.7 0 0 1 .63 0c.18.1.18.27 0 .37Zm-4.78 2.76a.7.7 0 0 1-.64 0c-.18-.1-.18-.26 0-.37.18-.1.46-.1.64 0 .17.1.17.27 0 .37Zm-4.79 2.77c-.18.1-.46.1-.64 0s-.18-.27 0-.37a.7.7 0 0 1 .64 0c.18.1.18.27 0 .37Zm-4.79 2.76a.7.7 0 0 1-.64 0c-.17-.1-.17-.27 0-.37a.7.7 0 0 1 .64 0c.18.1.18.27 0 .37Zm-4.79 2.76a.7.7 0 0 1-.63 0c-.18-.1-.18-.26 0-.36a.7.7 0 0 1 .63 0c.18.1.18.26 0 .36Zm-4.78 2.77c-.18.1-.46.1-.64 0s-.18-.27 0-.37a.7.7 0 0 1 .64 0c.17.1.17.27 0 .37Zm-4.79 2.76a.7.7 0 0 1-.64 0c-.17-.1-.17-.27 0-.37a.7.7 0 0 1 .64 0c.18.1.18.27 0 .37Zm-4.79 2.76a.7.7 0 0 1-.63 0c-.18-.1-.18-.26 0-.36a.7.7 0 0 1 .63 0c.18.1.18.26 0 .37Zm-4.78 2.77c-.18.1-.47.1-.64 0-.18-.1-.18-.27 0-.37a.7.7 0 0 1 .64 0c.17.1.17.27 0 .37Zm-4.79 2.76a.7.7 0 0 1-.64 0c-.18-.1-.18-.26 0-.37a.7.7 0 0 1 .64 0c.18.1.18.27 0 .37Zm-4.78 2.77a.7.7 0 0 1-.65 0c-.17-.1-.17-.27 0-.37a.7.7 0 0 1 .64 0c.18.1.18.26 0 .37Zm-4.8 2.76a.7.7 0 0 1-.63 0c-.18-.1-.18-.27 0-.37a.7.7 0 0 1 .63 0c.18.1.18.27 0 .37Zm-4.78 2.76a.7.7 0 0 1-.64 0c-.18-.1-.18-.26 0-.36a.7.7 0 0 1 .64 0c.17.1.17.26 0 .36Zm-4.79 2.77a.7.7 0 0 1-.64 0c-.17-.1-.17-.27 0-.37a.7.7 0 0 1 .64 0c.18.1.18.27 0 .37Zm-4.79 2.76a.7.7 0 0 1-.64 0c-.17-.1-.17-.27 0-.37.18-.1.47-.1.64 0 .18.1.18.27 0 .37Zm-4.78 2.76a.7.7 0 0 1-.64 0c-.18-.1-.18-.26 0-.36a.7.7 0 0 1 .64 0c.17.1.17.26 0 .36Zm-4.79 2.77a.7.7 0 0 1-.64 0c-.18-.1-.18-.27 0-.37a.7.7 0 0 1 .64 0c.17.1.17.27 0 .37Zm-4.79 2.76a.7.7 0 0 1-.64 0c-.17-.1-.17-.26 0-.37.18-.1.46-.1.64 0s.18.27 0 .37Zm-4.78 2.76c-.18.1-.47.1-.64 0-.18-.1-.18-.26 0-.36a.7.7 0 0 1 .63 0c.18.1.18.26 0 .37Zm-4.8 2.77a.7.7 0 0 1-.63 0c-.18-.1-.18-.27 0-.37a.7.7 0 0 1 .64 0c.17.1.17.27 0 .37Zm-4.78 2.76a.7.7 0 0 1-.64 0c-.18-.1-.18-.26 0-.37.18-.1.46-.1.64 0s.18.27 0 .37Zm-4.79 2.77c-.17.1-.46.1-.64 0-.17-.1-.17-.27 0-.37a.7.7 0 0 1 .64 0c.18.1.18.26 0 .37Zm-4.79 2.76a.7.7 0 0 1-.63 0c-.18-.1-.18-.27 0-.37a.7.7 0 0 1 .63 0c.18.1.18.27 0 .37Zm-4.78 2.76a.7.7 0 0 1-.64 0c-.18-.1-.18-.26 0-.37.18-.1.46-.1.64 0 .17.1.17.27 0 .37Zm-4.79 2.77c-.18.1-.46.1-.64 0-.17-.1-.17-.27 0-.37a.7.7 0 0 1 .64 0c.18.1.18.27 0 .37Zm-4.79 2.76a.7.7 0 0 1-.64 0c-.17-.1-.17-.26 0-.37a.7.7 0 0 1 .64 0c.18.1.18.27 0 .37ZM40 207.01a.7.7 0 0 1-.64 0c-.18-.1-.18-.26 0-.36a.7.7 0 0 1 .64 0c.17.1.17.26 0 .36Zm143.61-77.38a.7.7 0 0 1-.64 0c-.17-.1-.17-.26 0-.37.18-.1.47-.1.64 0 .18.1.18.27 0 .37Zm-4.78 2.77c-.18.1-.47.1-.64 0-.18-.1-.18-.27 0-.37a.7.7 0 0 1 .64 0c.17.1.17.26 0 .37Zm-4.79 2.76a.7.7 0 0 1-.64 0c-.18-.1-.18-.27 0-.37a.7.7 0 0 1 .64 0c.18.1.18.27 0 .37Zm-4.79 2.76a.7.7 0 0 1-.64 0c-.17-.1-.17-.26 0-.37.18-.1.46-.1.64 0s.18.27 0 .37Zm-4.79 2.77a.7.7 0 0 1-.63 0c-.18-.1-.18-.27 0-.37a.7.7 0 0 1 .63 0c.18.1.18.27 0 .37Zm-4.78 2.76a.7.7 0 0 1-.64 0c-.18-.1-.18-.27 0-.37a.7.7 0 0 1 .64 0c.17.1.17.27 0 .37Zm-4.79 2.76a.7.7 0 0 1-.64 0c-.18-.1-.18-.26 0-.36a.7.7 0 0 1 .64 0c.18.1.18.26 0 .36Zm-4.79 2.77c-.17.1-.46.1-.64 0-.17-.1-.17-.27 0-.37a.7.7 0 0 1 .64 0c.18.1.18.27 0 .37Zm-4.79 2.76a.7.7 0 0 1-.63 0c-.18-.1-.18-.27 0-.37a.7.7 0 0 1 .63 0c.18.1.18.27 0 .37Zm-4.78 2.76a.7.7 0 0 1-.64 0c-.18-.1-.18-.26 0-.36a.7.7 0 0 1 .64 0c.17.1.17.26 0 .37Zm-4.79 2.77c-.18.1-.46.1-.64 0-.17-.1-.17-.27 0-.37a.7.7 0 0 1 .64 0c.18.1.18.27 0 .37Zm-4.79 2.76a.7.7 0 0 1-.63 0c-.18-.1-.18-.26 0-.37a.7.7 0 0 1 .63 0c.18.1.18.27 0 .37Zm-4.78 2.77a.7.7 0 0 1-.64 0c-.18-.1-.18-.27 0-.37a.7.7 0 0 1 .64 0c.17.1.17.26 0 .37Zm-4.79 2.76a.7.7 0 0 1-.64 0c-.18-.1-.18-.27 0-.37.18-.1.46-.1.64 0s.18.27 0 .37Zm-4.78 2.76a.7.7 0 0 1-.65 0c-.17-.1-.17-.26 0-.36a.7.7 0 0 1 .64 0c.18.1.18.26 0 .36Zm-4.8 2.77a.7.7 0 0 1-.63 0c-.18-.1-.18-.27 0-.37a.7.7 0 0 1 .63 0c.18.1.18.27 0 .37Zm-4.78 2.76a.7.7 0 0 1-.64 0c-.18-.1-.18-.27 0-.37.18-.1.46-.1.64 0 .17.1.17.27 0 .37Zm-4.79 2.76a.7.7 0 0 1-.64 0c-.17-.1-.17-.26 0-.36a.7.7 0 0 1 .64 0c.18.1.18.26 0 .36Zm-4.79 2.77a.7.7 0 0 1-.64 0c-.17-.1-.17-.27 0-.37a.7.7 0 0 1 .64 0c.18.1.18.27 0 .37Zm-4.78 2.76a.7.7 0 0 1-.64 0c-.18-.1-.18-.26 0-.37.17-.1.46-.1.64 0 .17.1.17.27 0 .37Zm-4.79 2.76c-.18.1-.46.1-.64 0s-.18-.26 0-.36a.7.7 0 0 1 .64 0c.17.1.17.26 0 .37Zm-4.79 2.77a.7.7 0 0 1-.64 0c-.17-.1-.17-.27 0-.37a.7.7 0 0 1 .64 0c.18.1.18.27 0 .37Zm-4.78 2.76a.7.7 0 0 1-.64 0c-.18-.1-.18-.26 0-.37a.7.7 0 0 1 .63 0c.18.1.18.27 0 .37Zm-4.8 2.77a.7.7 0 0 1-.63 0c-.18-.1-.18-.27 0-.37a.7.7 0 0 1 .64 0c.17.1.17.26 0 .37Zm-4.78 2.76a.7.7 0 0 1-.64 0c-.18-.1-.18-.27 0-.37a.7.7 0 0 1 .64 0c.18.1.18.27 0 .37Zm-4.79 2.76a.7.7 0 0 1-.64 0c-.17-.1-.17-.26 0-.37.18-.1.47-.1.64 0 .18.1.18.27 0 .37Zm-4.79 2.77a.7.7 0 0 1-.63 0c-.18-.1-.18-.27 0-.37a.7.7 0 0 1 .63 0c.18.1.18.27 0 .37Zm-4.78 2.76a.7.7 0 0 1-.64 0c-.18-.1-.18-.26 0-.37a.7.7 0 0 1 .64 0c.17.1.17.27 0 .37Zm-4.79 2.76a.7.7 0 0 1-.64 0c-.17-.1-.17-.26 0-.36a.7.7 0 0 1 .64 0c.18.1.18.26 0 .36Zm-4.79 2.77c-.17.1-.46.1-.64 0-.17-.1-.17-.27 0-.37a.7.7 0 0 1 .64 0c.18.1.18.27 0 .37ZM188.4 132.4c-.18.1-.46.1-.64 0-.17-.1-.17-.27 0-.37a.7.7 0 0 1 .64 0c.18.1.18.26 0 .37Zm-4.79 2.76a.7.7 0 0 1-.64 0c-.17-.1-.17-.27 0-.37a.7.7 0 0 1 .64 0c.18.1.18.27 0 .37Zm-4.78 2.76a.7.7 0 0 1-.64 0c-.18-.1-.18-.26 0-.37.17-.1.46-.1.64 0 .17.1.17.27 0 .37Zm-4.79 2.77c-.18.1-.46.1-.64 0s-.18-.27 0-.37a.7.7 0 0 1 .64 0c.18.1.18.27 0 .37Zm-4.79 2.76a.7.7 0 0 1-.64 0c-.17-.1-.17-.27 0-.37a.7.7 0 0 1 .64 0c.18.1.18.27 0 .37Zm-4.79 2.76a.7.7 0 0 1-.63 0c-.18-.1-.18-.26 0-.37a.7.7 0 0 1 .63 0c.18.1.18.27 0 .37Zm-4.78 2.77c-.18.1-.47.1-.64 0-.18-.1-.18-.27 0-.37a.7.7 0 0 1 .64 0c.17.1.17.27 0 .37Zm-4.79 2.76a.7.7 0 0 1-.64 0c-.18-.1-.18-.27 0-.37a.7.7 0 0 1 .64 0c.18.1.18.27 0 .37Zm-4.79 2.76a.7.7 0 0 1-.64 0c-.17-.1-.17-.26 0-.36a.7.7 0 0 1 .64 0c.18.1.18.26 0 .37Zm-4.79 2.77a.7.7 0 0 1-.63 0c-.18-.1-.18-.27 0-.37a.7.7 0 0 1 .63 0c.18.1.18.27 0 .37Zm-4.78 2.76a.7.7 0 0 1-.64 0c-.18-.1-.18-.26 0-.37a.7.7 0 0 1 .64 0c.17.1.17.27 0 .37Zm-4.79 2.77a.7.7 0 0 1-.64 0c-.17-.1-.17-.27 0-.37a.7.7 0 0 1 .64 0c.18.1.18.26 0 .37Zm-4.79 2.76a.7.7 0 0 1-.63 0c-.18-.1-.18-.27 0-.37a.7.7 0 0 1 .63 0c.18.1.18.27 0 .37Zm-4.78 2.76a.7.7 0 0 1-.64 0c-.18-.1-.18-.26 0-.36a.7.7 0 0 1 .64 0c.17.1.17.26 0 .36Zm-4.79 2.77a.7.7 0 0 1-.64 0c-.18-.1-.18-.27 0-.37a.7.7 0 0 1 .64 0c.18.1.18.27 0 .37Zm-4.78 2.76a.7.7 0 0 1-.65 0c-.17-.1-.17-.27 0-.37.18-.1.47-.1.64 0 .18.1.18.27 0 .37Zm-4.8 2.76a.7.7 0 0 1-.63 0c-.18-.1-.18-.26 0-.36a.7.7 0 0 1 .63 0c.18.1.18.26 0 .36Zm-4.78 2.77a.7.7 0 0 1-.64 0c-.18-.1-.18-.27 0-.37a.7.7 0 0 1 .64 0c.17.1.17.27 0 .37Zm-4.79 2.76a.7.7 0 0 1-.64 0c-.17-.1-.17-.26 0-.37.18-.1.46-.1.64 0s.18.27 0 .37Zm-4.79 2.76c-.17.1-.46.1-.64 0-.17-.1-.17-.26 0-.36a.7.7 0 0 1 .64 0c.18.1.18.26 0 .37Zm-4.78 2.77a.7.7 0 0 1-.64 0c-.18-.1-.18-.27 0-.37a.7.7 0 0 1 .64 0c.17.1.17.27 0 .37Zm-4.79 2.76a.7.7 0 0 1-.64 0c-.18-.1-.18-.26 0-.37.18-.1.46-.1.64 0 .17.1.17.27 0 .37Zm-4.79 2.77c-.18.1-.46.1-.64 0-.17-.1-.17-.27 0-.37a.7.7 0 0 1 .64 0c.18.1.18.26 0 .37Zm-4.78 2.76a.7.7 0 0 1-.64 0c-.18-.1-.18-.27 0-.37a.7.7 0 0 1 .63 0c.18.1.18.27 0 .37Zm-4.8 2.76a.7.7 0 0 1-.63 0c-.18-.1-.18-.26 0-.37.17-.1.46-.1.64 0 .17.1.17.27 0 .37Zm-4.78 2.77c-.18.1-.46.1-.64 0s-.18-.27 0-.37a.7.7 0 0 1 .64 0c.18.1.18.27 0 .37Zm-4.79 2.76a.7.7 0 0 1-.64 0c-.17-.1-.17-.26 0-.37a.7.7 0 0 1 .64 0c.18.1.18.27 0 .37Zm-4.79 2.76a.7.7 0 0 1-.63 0c-.18-.1-.18-.26 0-.36a.7.7 0 0 1 .63 0c.18.1.18.26 0 .36Zm-4.78 2.77c-.18.1-.46.1-.64 0s-.18-.27 0-.37a.7.7 0 0 1 .64 0c.17.1.17.27 0 .37Zm-4.79 2.76a.7.7 0 0 1-.64 0c-.17-.1-.17-.26 0-.37a.7.7 0 0 1 .64 0c.18.1.18.27 0 .37Zm143.62-77.38a.7.7 0 0 1-.64 0c-.18-.1-.18-.27 0-.37a.7.7 0 0 1 .64 0c.17.1.17.27 0 .37Zm-4.79 2.76a.7.7 0 0 1-.64 0c-.17-.1-.17-.26 0-.37.18-.1.46-.1.64 0s.18.27 0 .37Zm-4.79 2.77c-.17.1-.46.1-.64 0-.17-.1-.17-.27 0-.37a.7.7 0 0 1 .64 0c.18.1.18.27 0 .37Zm-4.78 2.76a.7.7 0 0 1-.64 0c-.18-.1-.18-.27 0-.37a.7.7 0 0 1 .64 0c.17.1.17.27 0 .37Zm-4.79 2.76a.7.7 0 0 1-.64 0c-.18-.1-.18-.26 0-.37.18-.1.46-.1.64 0s.18.27 0 .37Zm-4.79 2.77c-.18.1-.46.1-.64 0-.17-.1-.17-.27 0-.37a.7.7 0 0 1 .64 0c.18.1.18.27 0 .37Zm-4.79 2.76a.7.7 0 0 1-.63 0c-.18-.1-.18-.27 0-.37a.7.7 0 0 1 .63 0c.18.1.18.27 0 .37Zm-4.78 2.76a.7.7 0 0 1-.64 0c-.18-.1-.18-.26 0-.36a.7.7 0 0 1 .64 0c.17.1.17.26 0 .37Zm-4.79 2.77c-.18.1-.46.1-.64 0s-.18-.27 0-.37a.7.7 0 0 1 .64 0c.18.1.18.27 0 .37Zm-4.79 2.76a.7.7 0 0 1-.64 0c-.17-.1-.17-.26 0-.37a.7.7 0 0 1 .64 0c.18.1.18.27 0 .37Zm-4.79 2.77a.7.7 0 0 1-.63 0c-.18-.1-.18-.27 0-.37a.7.7 0 0 1 .63 0c.18.1.18.26 0 .37Zm-4.78 2.76a.7.7 0 0 1-.64 0c-.18-.1-.18-.27 0-.37.18-.1.46-.1.64 0 .17.1.17.27 0 .37Zm-4.79 2.76a.7.7 0 0 1-.64 0c-.17-.1-.17-.26 0-.36a.7.7 0 0 1 .64 0c.18.1.18.26 0 .36Zm-4.79 2.77a.7.7 0 0 1-.63 0c-.18-.1-.18-.27 0-.37a.7.7 0 0 1 .63 0c.18.1.18.27 0 .37Zm-4.78 2.76a.7.7 0 0 1-.64 0c-.18-.1-.18-.27 0-.37.17-.1.46-.1.64 0 .17.1.17.27 0 .37Zm-4.79 2.76a.7.7 0 0 1-.64 0c-.18-.1-.18-.26 0-.36a.7.7 0 0 1 .64 0c.18.1.18.26 0 .36Zm-4.78 2.77a.7.7 0 0 1-.65 0c-.17-.1-.17-.27 0-.37a.7.7 0 0 1 .64 0c.18.1.18.27 0 .37Zm-4.8 2.76a.7.7 0 0 1-.63 0c-.18-.1-.18-.26 0-.37a.7.7 0 0 1 .63 0c.18.1.18.27 0 .37Zm-4.78 2.76c-.18.1-.46.1-.64 0s-.18-.26 0-.36a.7.7 0 0 1 .64 0c.17.1.17.26 0 .37Zm-4.79 2.77a.7.7 0 0 1-.64 0c-.17-.1-.17-.27 0-.37a.7.7 0 0 1 .64 0c.18.1.18.27 0 .37Zm-4.79 2.76a.7.7 0 0 1-.64 0c-.17-.1-.17-.26 0-.37.18-.1.47-.1.64 0 .18.1.18.27 0 .37Zm-4.78 2.77c-.18.1-.47.1-.64 0-.18-.1-.18-.27 0-.37a.7.7 0 0 1 .64 0c.17.1.17.26 0 .37Zm-4.79 2.76a.7.7 0 0 1-.64 0c-.18-.1-.18-.27 0-.37a.7.7 0 0 1 .64 0c.17.1.17.27 0 .37Zm-4.79 2.76a.7.7 0 0 1-.64 0c-.17-.1-.17-.26 0-.37.18-.1.46-.1.64 0s.18.27 0 .37Zm-4.78 2.77c-.18.1-.47.1-.64 0-.18-.1-.18-.27 0-.37a.7.7 0 0 1 .63 0c.18.1.18.27 0 .37Zm-4.8 2.76a.7.7 0 0 1-.63 0c-.18-.1-.18-.26 0-.37a.7.7 0 0 1 .64 0c.17.1.17.27 0 .37Zm-4.78 2.76a.7.7 0 0 1-.64 0c-.18-.1-.18-.26 0-.36a.7.7 0 0 1 .64 0c.18.1.18.26 0 .36Zm-4.79 2.77c-.17.1-.46.1-.64 0-.17-.1-.17-.27 0-.37a.7.7 0 0 1 .64 0c.18.1.18.27 0 .37Zm-4.79 2.76a.7.7 0 0 1-.63 0c-.18-.1-.18-.26 0-.37a.7.7 0 0 1 .63 0c.18.1.18.27 0 .37Zm-4.78 2.76a.7.7 0 0 1-.64 0c-.18-.1-.18-.26 0-.36a.7.7 0 0 1 .64 0c.17.1.17.26 0 .37Zm143.61-77.38a.7.7 0 0 1-.63 0c-.18-.1-.18-.26 0-.37a.7.7 0 0 1 .63 0c.18.1.18.27 0 .37Zm-4.78 2.77c-.18.1-.47.1-.64 0-.18-.1-.18-.27 0-.37a.7.7 0 0 1 .64 0c.17.1.17.27 0 .37Zm-4.79 2.76a.7.7 0 0 1-.64 0c-.17-.1-.17-.27 0-.37a.7.7 0 0 1 .64 0c.18.1.18.27 0 .37Zm-4.79 2.76a.7.7 0 0 1-.64 0c-.17-.1-.17-.26 0-.36a.7.7 0 0 1 .64 0c.18.1.18.26 0 .36Zm-4.78 2.77c-.18.1-.47.1-.64 0-.18-.1-.18-.27 0-.37a.7.7 0 0 1 .64 0c.17.1.17.27 0 .37Zm-4.79 2.76a.7.7 0 0 1-.64 0c-.18-.1-.18-.27 0-.37a.7.7 0 0 1 .64 0c.18.1.18.27 0 .37Zm-4.79 2.76a.7.7 0 0 1-.64 0c-.17-.1-.17-.26 0-.36a.7.7 0 0 1 .64 0c.18.1.18.26 0 .37Zm-4.79 2.77a.7.7 0 0 1-.63 0c-.18-.1-.18-.27 0-.37a.7.7 0 0 1 .63 0c.18.1.18.27 0 .37Zm-4.78 2.76a.7.7 0 0 1-.64 0c-.18-.1-.18-.26 0-.37a.7.7 0 0 1 .64 0c.17.1.17.27 0 .37Zm-4.79 2.77a.7.7 0 0 1-.64 0c-.18-.1-.18-.27 0-.37a.7.7 0 0 1 .64 0c.18.1.18.26 0 .37Zm-4.79 2.76a.7.7 0 0 1-.64 0c-.17-.1-.17-.27 0-.37.18-.1.47-.1.64 0 .18.1.18.27 0 .37Zm-4.79 2.76a.7.7 0 0 1-.63 0c-.18-.1-.18-.26 0-.36a.7.7 0 0 1 .63 0c.18.1.18.26 0 .36Zm-4.78 2.77a.7.7 0 0 1-.64 0c-.18-.1-.18-.27 0-.37a.7.7 0 0 1 .64 0c.17.1.17.27 0 .37Zm-4.79 2.76a.7.7 0 0 1-.64 0c-.17-.1-.17-.27 0-.37.18-.1.46-.1.64 0s.18.27 0 .37Zm-4.79 2.76a.7.7 0 0 1-.63 0c-.18-.1-.18-.26 0-.36a.7.7 0 0 1 .63 0c.18.1.18.26 0 .36Zm-4.78 2.77a.7.7 0 0 1-.64 0c-.18-.1-.18-.27 0-.37a.7.7 0 0 1 .64 0c.17.1.17.27 0 .37Zm-4.79 2.76a.7.7 0 0 1-.64 0c-.18-.1-.18-.26 0-.37.18-.1.46-.1.64 0s.18.27 0 .37Zm-4.78 2.76c-.18.1-.47.1-.65 0-.17-.1-.17-.26 0-.36a.7.7 0 0 1 .64 0c.18.1.18.26 0 .37Zm-4.8 2.77a.7.7 0 0 1-.63 0c-.18-.1-.18-.27 0-.37a.7.7 0 0 1 .63 0c.18.1.18.27 0 .37Zm-4.78 2.76a.7.7 0 0 1-.64 0c-.18-.1-.18-.26 0-.37.18-.1.46-.1.64 0 .17.1.17.27 0 .37Zm-4.79 2.77c-.18.1-.46.1-.64 0-.17-.1-.17-.27 0-.37a.7.7 0 0 1 .64 0c.18.1.18.26 0 .37Zm-4.79 2.76a.7.7 0 0 1-.64 0c-.17-.1-.17-.27 0-.37a.7.7 0 0 1 .64 0c.18.1.18.27 0 .37Zm-4.78 2.76a.7.7 0 0 1-.64 0c-.18-.1-.18-.26 0-.37.17-.1.46-.1.64 0 .17.1.17.27 0 .37Zm-4.79 2.77c-.18.1-.46.1-.64 0s-.18-.27 0-.37a.7.7 0 0 1 .64 0c.17.1.17.27 0 .37Zm-4.79 2.76a.7.7 0 0 1-.64 0c-.17-.1-.17-.26 0-.37a.7.7 0 0 1 .64 0c.18.1.18.27 0 .37Zm-4.78 2.76a.7.7 0 0 1-.64 0c-.18-.1-.18-.26 0-.36a.7.7 0 0 1 .63 0c.18.1.18.26 0 .36Zm-4.8 2.77a.7.7 0 0 1-.63 0c-.18-.1-.18-.27 0-.37a.7.7 0 0 1 .64 0c.17.1.17.27 0 .37Zm-4.78 2.76a.7.7 0 0 1-.64 0c-.18-.1-.18-.26 0-.37a.7.7 0 0 1 .64 0c.18.1.18.27 0 .37Zm-4.79 2.76a.7.7 0 0 1-.64 0c-.17-.1-.17-.26 0-.36a.7.7 0 0 1 .64 0c.18.1.18.26 0 .37Zm-4.79 2.77a.7.7 0 0 1-.63 0c-.18-.1-.18-.27 0-.37a.7.7 0 0 1 .63 0c.18.1.18.27 0 .37Zm143.62-77.38c-.17.1-.46.1-.64 0-.17-.1-.17-.27 0-.37a.7.7 0 0 1 .64 0c.18.1.18.27 0 .37Zm-4.79 2.76a.7.7 0 0 1-.63 0c-.18-.1-.18-.27 0-.37a.7.7 0 0 1 .63 0c.18.1.18.27 0 .37Zm-4.78 2.76a.7.7 0 0 1-.64 0c-.18-.1-.18-.26 0-.36a.7.7 0 0 1 .64 0c.17.1.17.26 0 .36Zm-4.79 2.77c-.18.1-.46.1-.64 0-.17-.1-.17-.27 0-.37a.7.7 0 0 1 .64 0c.18.1.18.27 0 .37Zm-4.79 2.76a.7.7 0 0 1-.64 0c-.17-.1-.17-.27 0-.37a.7.7 0 0 1 .64 0c.18.1.18.27 0 .37Zm-4.78 2.76a.7.7 0 0 1-.64 0c-.18-.1-.18-.26 0-.36a.7.7 0 0 1 .64 0c.17.1.17.26 0 .37Zm-4.79 2.77c-.18.1-.46.1-.64 0s-.18-.27 0-.37a.7.7 0 0 1 .64 0c.18.1.18.27 0 .37Zm-4.79 2.76a.7.7 0 0 1-.64 0c-.17-.1-.17-.26 0-.37a.7.7 0 0 1 .64 0c.18.1.18.27 0 .37Zm-4.79 2.77a.7.7 0 0 1-.63 0c-.18-.1-.18-.27 0-.37a.7.7 0 0 1 .63 0c.18.1.18.26 0 .37Zm-4.78 2.76a.7.7 0 0 1-.64 0c-.18-.1-.18-.27 0-.37.18-.1.46-.1.64 0 .17.1.17.27 0 .37Zm-4.79 2.76a.7.7 0 0 1-.64 0c-.18-.1-.18-.26 0-.36a.7.7 0 0 1 .64 0c.18.1.18.26 0 .36Zm-4.79 2.77a.7.7 0 0 1-.64 0c-.17-.1-.17-.27 0-.37a.7.7 0 0 1 .64 0c.18.1.18.27 0 .37Zm-4.79 2.76a.7.7 0 0 1-.63 0c-.18-.1-.18-.27 0-.37a.7.7 0 0 1 .63 0c.18.1.18.27 0 .37Zm-4.78 2.76a.7.7 0 0 1-.64 0c-.18-.1-.18-.26 0-.36a.7.7 0 0 1 .64 0c.17.1.17.26 0 .36Zm-4.79 2.77a.7.7 0 0 1-.64 0c-.17-.1-.17-.27 0-.37a.7.7 0 0 1 .64 0c.18.1.18.27 0 .37Zm-4.79 2.76a.7.7 0 0 1-.63 0c-.18-.1-.18-.26 0-.37a.7.7 0 0 1 .63 0c.18.1.18.27 0 .37Zm-4.78 2.76c-.18.1-.47.1-.64 0-.18-.1-.18-.26 0-.36a.7.7 0 0 1 .64 0c.17.1.17.26 0 .37Zm-4.79 2.77a.7.7 0 0 1-.64 0c-.18-.1-.18-.27 0-.37a.7.7 0 0 1 .64 0c.18.1.18.27 0 .37Zm-4.78 2.76a.7.7 0 0 1-.65 0c-.17-.1-.17-.26 0-.37.18-.1.47-.1.64 0 .18.1.18.27 0 .37Zm-4.8 2.77a.7.7 0 0 1-.63 0c-.18-.1-.18-.27 0-.37a.7.7 0 0 1 .63 0c.18.1.18.26 0 .37Zm-4.78 2.76a.7.7 0 0 1-.64 0c-.18-.1-.18-.27 0-.37a.7.7 0 0 1 .64 0c.17.1.17.27 0 .37Zm-4.79 2.76a.7.7 0 0 1-.64 0c-.17-.1-.17-.26 0-.37.18-.1.46-.1.64 0s.18.27 0 .37Zm-4.79 2.77c-.17.1-.46.1-.64 0-.17-.1-.17-.27 0-.37a.7.7 0 0 1 .64 0c.18.1.18.27 0 .37Zm-4.78 2.76a.7.7 0 0 1-.64 0c-.18-.1-.18-.26 0-.37a.7.7 0 0 1 .64 0c.17.1.17.27 0 .37Zm-4.79 2.76a.7.7 0 0 1-.64 0c-.18-.1-.18-.26 0-.36a.7.7 0 0 1 .64 0c.17.1.17.26 0 .36Zm-4.79 2.77c-.18.1-.46.1-.64 0-.17-.1-.17-.27 0-.37a.7.7 0 0 1 .64 0c.18.1.18.27 0 .37Zm-4.78 2.76a.7.7 0 0 1-.64 0c-.18-.1-.18-.26 0-.37a.7.7 0 0 1 .63 0c.18.1.18.27 0 .37Zm-4.8 2.76a.7.7 0 0 1-.63 0c-.18-.1-.18-.26 0-.36a.7.7 0 0 1 .64 0c.17.1.17.26 0 .37Zm-4.78 2.77c-.18.1-.46.1-.64 0s-.18-.27 0-.37a.7.7 0 0 1 .64 0c.18.1.18.27 0 .37Zm-4.79 2.76a.7.7 0 0 1-.64 0c-.17-.1-.17-.26 0-.37a.7.7 0 0 1 .64 0c.18.1.18.27 0 .37Zm143.62-77.38a.7.7 0 0 1-.64 0c-.17-.1-.17-.27 0-.37a.7.7 0 0 1 .64 0c.18.1.18.27 0 .37Zm-4.79 2.76a.7.7 0 0 1-.64 0c-.17-.1-.17-.26 0-.36a.7.7 0 0 1 .64 0c.18.1.18.26 0 .36Zm-4.79 2.77a.7.7 0 0 1-.63 0c-.18-.1-.18-.27 0-.37a.7.7 0 0 1 .63 0c.18.1.18.27 0 .37Zm-4.78 2.76a.7.7 0 0 1-.64 0c-.18-.1-.18-.27 0-.37a.7.7 0 0 1 .64 0c.17.1.17.27 0 .37Zm-4.79 2.76a.7.7 0 0 1-.64 0c-.17-.1-.17-.26 0-.36a.7.7 0 0 1 .64 0c.18.1.18.26 0 .37Zm-4.79 2.77c-.17.1-.46.1-.64 0-.17-.1-.17-.27 0-.37a.7.7 0 0 1 .64 0c.18.1.18.27 0 .37Zm-4.78 2.76a.7.7 0 0 1-.64 0c-.18-.1-.18-.26 0-.37a.7.7 0 0 1 .64 0c.17.1.17.27 0 .37Zm-4.79 2.77a.7.7 0 0 1-.64 0c-.18-.1-.18-.27 0-.37a.7.7 0 0 1 .64 0c.18.1.18.26 0 .37Zm-4.79 2.76a.7.7 0 0 1-.64 0c-.17-.1-.17-.27 0-.37.18-.1.46-.1.64 0s.18.27 0 .37Zm-4.79 2.76a.7.7 0 0 1-.63 0c-.18-.1-.18-.26 0-.36a.7.7 0 0 1 .63 0c.18.1.18.26 0 .36Zm-4.78 2.77a.7.7 0 0 1-.64 0c-.18-.1-.18-.27 0-.37a.7.7 0 0 1 .64 0c.17.1.17.27 0 .37Zm-4.79 2.76a.7.7 0 0 1-.64 0c-.18-.1-.18-.27 0-.37.18-.1.46-.1.64 0s.18.27 0 .37Zm-4.79 2.76a.7.7 0 0 1-.64 0c-.17-.1-.17-.26 0-.36a.7.7 0 0 1 .64 0c.18.1.18.26 0 .36Zm-4.79 2.77a.7.7 0 0 1-.63 0c-.18-.1-.18-.27 0-.37a.7.7 0 0 1 .63 0c.18.1.18.27 0 .37Zm-4.78 2.76a.7.7 0 0 1-.64 0c-.18-.1-.18-.26 0-.37.18-.1.46-.1.64 0 .17.1.17.27 0 .37Zm-4.79 2.76c-.18.1-.46.1-.64 0-.17-.1-.17-.26 0-.36a.7.7 0 0 1 .64 0c.18.1.18.26 0 .37Zm-4.79 2.77a.7.7 0 0 1-.63 0c-.18-.1-.18-.27 0-.37a.7.7 0 0 1 .63 0c.18.1.18.27 0 .37Zm-4.78 2.76a.7.7 0 0 1-.64 0c-.18-.1-.18-.26 0-.37.17-.1.46-.1.64 0 .17.1.17.27 0 .37Zm-4.79 2.77c-.18.1-.46.1-.64 0s-.18-.27 0-.37a.7.7 0 0 1 .64 0c.18.1.18.26 0 .37Zm-4.78 2.76a.7.7 0 0 1-.65 0c-.17-.1-.17-.27 0-.37a.7.7 0 0 1 .64 0c.18.1.18.27 0 .37Zm-4.8 2.76a.7.7 0 0 1-.63 0c-.18-.1-.18-.26 0-.37a.7.7 0 0 1 .63 0c.18.1.18.27 0 .37Zm-4.78 2.77c-.18.1-.46.1-.64 0s-.18-.27 0-.37a.7.7 0 0 1 .64 0c.17.1.17.27 0 .37Zm-4.79 2.76a.7.7 0 0 1-.64 0c-.17-.1-.17-.26 0-.37a.7.7 0 0 1 .64 0c.18.1.18.27 0 .37Zm-4.79 2.76a.7.7 0 0 1-.64 0c-.17-.1-.17-.26 0-.36a.7.7 0 0 1 .64 0c.18.1.18.26 0 .36Zm-4.78 2.77c-.18.1-.47.1-.64 0-.18-.1-.18-.27 0-.37a.7.7 0 0 1 .64 0c.17.1.17.27 0 .37Zm-4.79 2.76a.7.7 0 0 1-.64 0c-.18-.1-.18-.26 0-.37a.7.7 0 0 1 .64 0c.17.1.17.27 0 .37Zm-4.79 2.76a.7.7 0 0 1-.64 0c-.17-.1-.17-.26 0-.36a.7.7 0 0 1 .64 0c.18.1.18.26 0 .37Zm-4.78 2.77c-.18.1-.47.1-.64 0-.18-.1-.18-.27 0-.37a.7.7 0 0 1 .63 0c.18.1.18.27 0 .37Zm-4.8 2.76a.7.7 0 0 1-.63 0c-.18-.1-.18-.26 0-.37a.7.7 0 0 1 .64 0c.17.1.17.27 0 .37Zm-4.78 2.77a.7.7 0 0 1-.64 0c-.18-.1-.18-.27 0-.37a.7.7 0 0 1 .64 0c.18.1.18.27 0 .37Zm143.62-77.39a.7.7 0 0 1-.64 0c-.18-.1-.18-.26 0-.36a.7.7 0 0 1 .64 0c.17.1.17.26 0 .36Zm-4.79 2.77c-.18.1-.46.1-.64 0-.17-.1-.17-.27 0-.37a.7.7 0 0 1 .64 0c.18.1.18.27 0 .37Zm-4.79 2.76a.7.7 0 0 1-.64 0c-.17-.1-.17-.27 0-.37a.7.7 0 0 1 .64 0c.18.1.18.27 0 .37Zm-4.79 2.76a.7.7 0 0 1-.63 0c-.18-.1-.18-.26 0-.36a.7.7 0 0 1 .63 0c.18.1.18.26 0 .37Zm-4.78 2.77c-.18.1-.47.1-.64 0-.18-.1-.18-.27 0-.37a.7.7 0 0 1 .64 0c.17.1.17.27 0 .37Zm-4.79 2.76a.7.7 0 0 1-.64 0c-.17-.1-.17-.26 0-.37a.7.7 0 0 1 .64 0c.18.1.18.27 0 .37Zm-4.79 2.77a.7.7 0 0 1-.64 0c-.17-.1-.17-.27 0-.37a.7.7 0 0 1 .64 0c.18.1.18.26 0 .37Zm-4.78 2.76a.7.7 0 0 1-.64 0c-.18-.1-.18-.27 0-.37.17-.1.46-.1.64 0 .17.1.17.27 0 .37Zm-4.79 2.76a.7.7 0 0 1-.64 0c-.18-.1-.18-.26 0-.36a.7.7 0 0 1 .64 0c.18.1.18.26 0 .36Zm-4.79 2.77a.7.7 0 0 1-.64 0c-.17-.1-.17-.27 0-.37a.7.7 0 0 1 .64 0c.18.1.18.27 0 .37Zm-4.79 2.76a.7.7 0 0 1-.63 0c-.18-.1-.18-.27 0-.37a.7.7 0 0 1 .63 0c.18.1.18.27 0 .37Zm-4.78 2.76a.7.7 0 0 1-.64 0c-.18-.1-.18-.26 0-.36a.7.7 0 0 1 .64 0c.17.1.17.26 0 .36Zm-4.79 2.77a.7.7 0 0 1-.64 0c-.18-.1-.18-.27 0-.37a.7.7 0 0 1 .64 0c.18.1.18.27 0 .37Zm-4.79 2.76a.7.7 0 0 1-.64 0c-.17-.1-.17-.26 0-.37.18-.1.47-.1.64 0 .18.1.18.27 0 .37Zm-4.79 2.76a.7.7 0 0 1-.63 0c-.18-.1-.18-.26 0-.36a.7.7 0 0 1 .63 0c.18.1.18.26 0 .37Zm-4.78 2.77a.7.7 0 0 1-.64 0c-.18-.1-.18-.27 0-.37a.7.7 0 0 1 .64 0c.17.1.17.27 0 .37Zm-4.79 2.76a.7.7 0 0 1-.64 0c-.17-.1-.17-.26 0-.37.18-.1.46-.1.64 0s.18.27 0 .37Zm-4.79 2.77a.7.7 0 0 1-.63 0c-.18-.1-.18-.27 0-.37a.7.7 0 0 1 .63 0c.18.1.18.26 0 .37Zm-4.78 2.76a.7.7 0 0 1-.64 0c-.18-.1-.18-.27 0-.37a.7.7 0 0 1 .64 0c.17.1.17.27 0 .37Zm-4.79 2.76a.7.7 0 0 1-.64 0c-.18-.1-.18-.26 0-.37.18-.1.46-.1.64 0s.18.27 0 .37Zm-4.78 2.77c-.18.1-.47.1-.65 0-.17-.1-.17-.27 0-.37a.7.7 0 0 1 .64 0c.18.1.18.27 0 .37Zm-4.8 2.76a.7.7 0 0 1-.63 0c-.18-.1-.18-.26 0-.37a.7.7 0 0 1 .63 0c.18.1.18.27 0 .37Zm-4.78 2.76a.7.7 0 0 1-.64 0c-.18-.1-.18-.26 0-.36a.7.7 0 0 1 .64 0c.17.1.17.26 0 .36Zm-4.79 2.77c-.18.1-.46.1-.64 0-.17-.1-.17-.27 0-.37a.7.7 0 0 1 .64 0c.18.1.18.27 0 .37Zm-4.79 2.76a.7.7 0 0 1-.64 0c-.17-.1-.17-.26 0-.37a.7.7 0 0 1 .64 0c.18.1.18.27 0 .37Zm-4.78 2.76a.7.7 0 0 1-.64 0c-.18-.1-.18-.26 0-.36a.7.7 0 0 1 .64 0c.17.1.17.26 0 .37Zm-4.79 2.77c-.18.1-.46.1-.64 0s-.18-.27 0-.37a.7.7 0 0 1 .64 0c.17.1.17.27 0 .37Zm-4.79 2.76a.7.7 0 0 1-.64 0c-.17-.1-.17-.26 0-.37a.7.7 0 0 1 .64 0c.18.1.18.27 0 .37Zm-4.78 2.77a.7.7 0 0 1-.64 0c-.18-.1-.18-.27 0-.37a.7.7 0 0 1 .63 0c.18.1.18.27 0 .37Zm-4.8 2.76a.7.7 0 0 1-.63 0c-.18-.1-.18-.27 0-.37.17-.1.46-.1.64 0 .17.1.17.27 0 .37Zm143.62-77.38a.7.7 0 0 1-.63 0c-.18-.1-.18-.27 0-.37a.7.7 0 0 1 .63 0c.18.1.18.27 0 .37Zm-4.78 2.76a.7.7 0 0 1-.64 0c-.18-.1-.18-.27 0-.37a.7.7 0 0 1 .64 0c.17.1.17.27 0 .37Zm-4.79 2.76a.7.7 0 0 1-.64 0c-.17-.1-.17-.26 0-.36a.7.7 0 0 1 .64 0c.18.1.18.26 0 .37Zm-4.79 2.77c-.17.1-.46.1-.64 0-.17-.1-.17-.27 0-.37a.7.7 0 0 1 .64 0c.18.1.18.27 0 .37Zm-4.79 2.76a.7.7 0 0 1-.63 0c-.18-.1-.18-.26 0-.37a.7.7 0 0 1 .63 0c.18.1.18.27 0 .37Zm-4.78 2.77a.7.7 0 0 1-.64 0c-.18-.1-.18-.27 0-.37a.7.7 0 0 1 .64 0c.17.1.17.26 0 .37Zm-4.79 2.76a.7.7 0 0 1-.64 0c-.17-.1-.17-.27 0-.37.18-.1.46-.1.64 0s.18.27 0 .37Zm-4.79 2.76a.7.7 0 0 1-.64 0c-.17-.1-.17-.26 0-.36a.7.7 0 0 1 .64 0c.18.1.18.26 0 .36Zm-4.78 2.77a.7.7 0 0 1-.64 0c-.18-.1-.18-.27 0-.37a.7.7 0 0 1 .64 0c.17.1.17.27 0 .37Zm-4.79 2.76a.7.7 0 0 1-.64 0c-.18-.1-.18-.27 0-.37.18-.1.46-.1.64 0s.18.27 0 .37Zm-4.79 2.76a.7.7 0 0 1-.64 0c-.17-.1-.17-.26 0-.36a.7.7 0 0 1 .64 0c.18.1.18.26 0 .36Zm-4.79 2.77a.7.7 0 0 1-.63 0c-.18-.1-.18-.27 0-.37a.7.7 0 0 1 .63 0c.18.1.18.27 0 .37Zm-4.78 2.76a.7.7 0 0 1-.64 0c-.18-.1-.18-.26 0-.37.18-.1.46-.1.64 0 .17.1.17.27 0 .37Zm-4.79 2.76c-.18.1-.46.1-.64 0s-.18-.26 0-.36a.7.7 0 0 1 .64 0c.18.1.18.26 0 .37Zm-4.79 2.77a.7.7 0 0 1-.64 0c-.17-.1-.17-.27 0-.37a.7.7 0 0 1 .64 0c.18.1.18.27 0 .37Zm-4.79 2.76a.7.7 0 0 1-.63 0c-.18-.1-.18-.26 0-.37a.7.7 0 0 1 .63 0c.18.1.18.27 0 .37Zm-4.78 2.77c-.18.1-.46.1-.64 0s-.18-.27 0-.37a.7.7 0 0 1 .64 0c.17.1.17.26 0 .37Zm-4.79 2.76a.7.7 0 0 1-.64 0c-.17-.1-.17-.27 0-.37a.7.7 0 0 1 .64 0c.18.1.18.27 0 .37Zm-4.79 2.76a.7.7 0 0 1-.63 0c-.18-.1-.18-.26 0-.37a.7.7 0 0 1 .63 0c.18.1.18.27 0 .37Zm-4.78 2.77c-.18.1-.47.1-.64 0-.18-.1-.18-.27 0-.37a.7.7 0 0 1 .64 0c.17.1.17.27 0 .37Zm-4.79 2.76a.7.7 0 0 1-.64 0c-.18-.1-.18-.26 0-.37a.7.7 0 0 1 .64 0c.18.1.18.27 0 .37Zm-4.78 2.76a.7.7 0 0 1-.65 0c-.17-.1-.17-.26 0-.36a.7.7 0 0 1 .64 0c.18.1.18.26 0 .36Zm-4.8 2.77a.7.7 0 0 1-.63 0c-.18-.1-.18-.27 0-.37a.7.7 0 0 1 .63 0c.18.1.18.27 0 .37Zm-4.78 2.76a.7.7 0 0 1-.64 0c-.18-.1-.18-.26 0-.37a.7.7 0 0 1 .64 0c.17.1.17.27 0 .37Zm-4.79 2.76a.7.7 0 0 1-.64 0c-.17-.1-.17-.26 0-.36a.7.7 0 0 1 .64 0c.18.1.18.26 0 .37Zm-4.79 2.77c-.17.1-.46.1-.64 0-.17-.1-.17-.27 0-.37a.7.7 0 0 1 .64 0c.18.1.18.27 0 .37Zm-4.78 2.76a.7.7 0 0 1-.64 0c-.18-.1-.18-.26 0-.37a.7.7 0 0 1 .64 0c.17.1.17.27 0 .37Zm-4.79 2.77a.7.7 0 0 1-.64 0c-.18-.1-.18-.27 0-.37a.7.7 0 0 1 .64 0c.17.1.17.27 0 .37Zm-4.79 2.76a.7.7 0 0 1-.64 0c-.17-.1-.17-.27 0-.37.18-.1.46-.1.64 0s.18.27 0 .37Zm-4.78 2.76a.7.7 0 0 1-.64 0c-.18-.1-.18-.26 0-.36a.7.7 0 0 1 .63 0c.18.1.18.26 0 .36Zm143.61-77.38a.7.7 0 0 1-.64 0c-.17-.1-.17-.27 0-.37a.7.7 0 0 1 .64 0c.18.1.18.27 0 .37Zm-4.79 2.76a.7.7 0 0 1-.63 0c-.18-.1-.18-.26 0-.36a.7.7 0 0 1 .63 0c.18.1.18.26 0 .37Zm-4.78 2.77c-.18.1-.47.1-.64 0-.18-.1-.18-.27 0-.37a.7.7 0 0 1 .64 0c.17.1.17.27 0 .37Zm-4.79 2.76a.7.7 0 0 1-.64 0c-.17-.1-.17-.26 0-.37a.7.7 0 0 1 .64 0c.18.1.18.27 0 .37Zm-4.79 2.77a.7.7 0 0 1-.64 0c-.17-.1-.17-.27 0-.37a.7.7 0 0 1 .64 0c.18.1.18.26 0 .37Zm-4.79 2.76a.7.7 0 0 1-.63 0c-.18-.1-.18-.27 0-.37a.7.7 0 0 1 .63 0c.18.1.18.27 0 .37Zm-4.78 2.76a.7.7 0 0 1-.64 0c-.18-.1-.18-.26 0-.36a.7.7 0 0 1 .64 0c.17.1.17.26 0 .36Zm-4.79 2.77a.7.7 0 0 1-.64 0c-.17-.1-.17-.27 0-.37a.7.7 0 0 1 .64 0c.18.1.18.27 0 .37Zm-4.79 2.76a.7.7 0 0 1-.64 0c-.17-.1-.17-.27 0-.37.18-.1.47-.1.64 0 .18.1.18.27 0 .37Zm-4.78 2.76a.7.7 0 0 1-.64 0c-.18-.1-.18-.26 0-.36a.7.7 0 0 1 .64 0c.17.1.17.26 0 .36Zm-4.79 2.77a.7.7 0 0 1-.64 0c-.18-.1-.18-.27 0-.37a.7.7 0 0 1 .64 0c.18.1.18.27 0 .37Zm-4.79 2.76a.7.7 0 0 1-.64 0c-.17-.1-.17-.26 0-.37.18-.1.46-.1.64 0s.18.27 0 .37Zm-4.79 2.76a.7.7 0 0 1-.63 0c-.18-.1-.18-.26 0-.36a.7.7 0 0 1 .63 0c.18.1.18.26 0 .37Zm-4.78 2.77a.7.7 0 0 1-.64 0c-.18-.1-.18-.27 0-.37a.7.7 0 0 1 .64 0c.17.1.17.27 0 .37Zm-4.79 2.76a.7.7 0 0 1-.64 0c-.18-.1-.18-.26 0-.37.18-.1.46-.1.64 0s.18.27 0 .37Zm-4.79 2.77c-.17.1-.46.1-.64 0-.17-.1-.17-.27 0-.37a.7.7 0 0 1 .64 0c.18.1.18.26 0 .37Zm-4.79 2.76a.7.7 0 0 1-.63 0c-.18-.1-.18-.27 0-.37a.7.7 0 0 1 .63 0c.18.1.18.27 0 .37Zm-4.78 2.76a.7.7 0 0 1-.64 0c-.18-.1-.18-.26 0-.37.18-.1.46-.1.64 0 .17.1.17.27 0 .37Zm-4.79 2.77c-.18.1-.46.1-.64 0-.17-.1-.17-.27 0-.37a.7.7 0 0 1 .64 0c.18.1.18.27 0 .37Zm-4.79 2.76a.7.7 0 0 1-.63 0c-.18-.1-.18-.26 0-.37a.7.7 0 0 1 .63 0c.18.1.18.27 0 .37Zm-4.78 2.76a.7.7 0 0 1-.64 0c-.18-.1-.18-.26 0-.36a.7.7 0 0 1 .64 0c.17.1.17.26 0 .36Zm-4.79 2.77c-.18.1-.46.1-.64 0s-.18-.27 0-.37a.7.7 0 0 1 .64 0c.18.1.18.27 0 .37Zm-4.78 2.76a.7.7 0 0 1-.65 0c-.17-.1-.17-.26 0-.37a.7.7 0 0 1 .64 0c.18.1.18.27 0 .37Zm-4.8 2.76a.7.7 0 0 1-.63 0c-.18-.1-.18-.26 0-.36a.7.7 0 0 1 .63 0c.18.1.18.26 0 .37Zm-4.78 2.77c-.18.1-.46.1-.64 0s-.18-.27 0-.37a.7.7 0 0 1 .64 0c.17.1.17.27 0 .37Zm-4.79 2.76a.7.7 0 0 1-.64 0c-.17-.1-.17-.26 0-.37a.7.7 0 0 1 .64 0c.18.1.18.27 0 .37Zm-4.79 2.77a.7.7 0 0 1-.64 0c-.17-.1-.17-.27 0-.37a.7.7 0 0 1 .64 0c.18.1.18.27 0 .37Zm-4.78 2.76a.7.7 0 0 1-.64 0c-.18-.1-.18-.27 0-.37.17-.1.46-.1.64 0 .17.1.17.27 0 .37Zm-4.79 2.76a.7.7 0 0 1-.64 0c-.18-.1-.18-.26 0-.36a.7.7 0 0 1 .64 0c.17.1.17.26 0 .36Zm-4.79 2.77a.7.7 0 0 1-.64 0c-.17-.1-.17-.27 0-.37a.7.7 0 0 1 .64 0c.18.1.18.27 0 .37ZM226.7 154.5a.7.7 0 0 1-.64 0c-.18-.1-.18-.26 0-.36a.7.7 0 0 1 .64 0c.18.1.18.26 0 .37Zm-4.79 2.77c-.17.1-.46.1-.64 0-.17-.1-.17-.27 0-.37a.7.7 0 0 1 .64 0c.18.1.18.27 0 .37Zm-4.79 2.76a.7.7 0 0 1-.63 0c-.18-.1-.18-.26 0-.37a.7.7 0 0 1 .63 0c.18.1.18.27 0 .37Zm-4.78 2.77a.7.7 0 0 1-.64 0c-.18-.1-.18-.27 0-.37a.7.7 0 0 1 .64 0c.17.1.17.26 0 .37Zm-4.79 2.76a.7.7 0 0 1-.64 0c-.17-.1-.17-.27 0-.37.18-.1.46-.1.64 0s.18.27 0 .37Zm-4.79 2.76a.7.7 0 0 1-.64 0c-.17-.1-.17-.26 0-.36a.7.7 0 0 1 .64 0c.18.1.18.26 0 .36Zm-4.79 2.77a.7.7 0 0 1-.63 0c-.18-.1-.18-.27 0-.37a.7.7 0 0 1 .63 0c.18.1.18.27 0 .37Zm-4.78 2.76a.7.7 0 0 1-.64 0c-.18-.1-.18-.27 0-.37.17-.1.46-.1.64 0 .17.1.17.27 0 .37Zm-4.79 2.76a.7.7 0 0 1-.64 0c-.17-.1-.17-.26 0-.36a.7.7 0 0 1 .64 0c.18.1.18.26 0 .36Zm-4.79 2.77a.7.7 0 0 1-.64 0c-.17-.1-.17-.27 0-.37a.7.7 0 0 1 .64 0c.18.1.18.27 0 .37Zm-4.78 2.76a.7.7 0 0 1-.64 0c-.18-.1-.18-.26 0-.37.17-.1.46-.1.64 0 .17.1.17.27 0 .37Zm-4.79 2.76c-.18.1-.46.1-.64 0s-.18-.26 0-.36a.7.7 0 0 1 .64 0c.18.1.18.26 0 .37Zm-4.79 2.77a.7.7 0 0 1-.64 0c-.17-.1-.17-.27 0-.37a.7.7 0 0 1 .64 0c.18.1.18.27 0 .37Zm-4.79 2.76a.7.7 0 0 1-.63 0c-.18-.1-.18-.26 0-.37a.7.7 0 0 1 .63 0c.18.1.18.27 0 .37Zm-4.78 2.77c-.18.1-.47.1-.64 0-.18-.1-.18-.27 0-.37a.7.7 0 0 1 .64 0c.17.1.17.26 0 .37Zm-4.79 2.76a.7.7 0 0 1-.64 0c-.18-.1-.18-.27 0-.37a.7.7 0 0 1 .64 0c.18.1.18.27 0 .37Zm-4.79 2.76a.7.7 0 0 1-.64 0c-.17-.1-.17-.26 0-.37.18-.1.47-.1.64 0 .18.1.18.27 0 .37Zm-4.79 2.77a.7.7 0 0 1-.63 0c-.18-.1-.18-.27 0-.37a.7.7 0 0 1 .63 0c.18.1.18.27 0 .37Zm-4.78 2.76a.7.7 0 0 1-.64 0c-.18-.1-.18-.26 0-.37a.7.7 0 0 1 .64 0c.17.1.17.27 0 .37Zm-4.79 2.76a.7.7 0 0 1-.64 0c-.17-.1-.17-.26 0-.36a.7.7 0 0 1 .64 0c.18.1.18.26 0 .36Zm-4.79 2.77a.7.7 0 0 1-.63 0c-.18-.1-.18-.27 0-.37a.7.7 0 0 1 .63 0c.18.1.18.27 0 .37Zm-4.78 2.76a.7.7 0 0 1-.64 0c-.18-.1-.18-.26 0-.37a.7.7 0 0 1 .64 0c.17.1.17.27 0 .37Zm-4.79 2.76a.7.7 0 0 1-.64 0c-.18-.1-.18-.26 0-.36a.7.7 0 0 1 .64 0c.18.1.18.26 0 .37Zm-4.78 2.77c-.18.1-.47.1-.65 0-.17-.1-.17-.27 0-.37a.7.7 0 0 1 .64 0c.18.1.18.27 0 .37Zm-4.8 2.76a.7.7 0 0 1-.63 0c-.18-.1-.18-.26 0-.37a.7.7 0 0 1 .63 0c.18.1.18.27 0 .37Zm-4.78 2.77a.7.7 0 0 1-.64 0c-.18-.1-.18-.27 0-.37a.7.7 0 0 1 .64 0c.17.1.17.27 0 .37Zm-4.79 2.76a.7.7 0 0 1-.64 0c-.17-.1-.17-.27 0-.37.18-.1.46-.1.64 0s.18.27 0 .37Zm-4.79 2.76a.7.7 0 0 1-.64 0c-.17-.1-.17-.26 0-.36a.7.7 0 0 1 .64 0c.18.1.18.26 0 .36Zm-4.78 2.77a.7.7 0 0 1-.64 0c-.18-.1-.18-.27 0-.37a.7.7 0 0 1 .64 0c.17.1.17.27 0 .37Zm-4.79 2.76a.7.7 0 0 1-.64 0c-.18-.1-.18-.27 0-.37.18-.1.46-.1.64 0 .17.1.17.27 0 .37Zm143.62-77.38c-.18.1-.47.1-.64 0-.18-.1-.18-.27 0-.37a.7.7 0 0 1 .64 0c.17.1.17.27 0 .37Zm-4.79 2.76a.7.7 0 0 1-.64 0c-.18-.1-.18-.26 0-.37a.7.7 0 0 1 .64 0c.18.1.18.27 0 .37Zm-4.79 2.77a.7.7 0 0 1-.64 0c-.17-.1-.17-.27 0-.37a.7.7 0 0 1 .64 0c.18.1.18.26 0 .37Zm-4.79 2.76a.7.7 0 0 1-.63 0c-.18-.1-.18-.27 0-.37a.7.7 0 0 1 .63 0c.18.1.18.27 0 .37Zm-4.78 2.76a.7.7 0 0 1-.64 0c-.18-.1-.18-.26 0-.36a.7.7 0 0 1 .64 0c.17.1.17.26 0 .36Zm-4.79 2.77a.7.7 0 0 1-.64 0c-.17-.1-.17-.27 0-.37a.7.7 0 0 1 .64 0c.18.1.18.27 0 .37Zm-4.79 2.76a.7.7 0 0 1-.64 0c-.17-.1-.17-.27 0-.37.18-.1.47-.1.64 0 .18.1.18.27 0 .37Zm-4.79 2.76a.7.7 0 0 1-.63 0c-.18-.1-.18-.26 0-.36a.7.7 0 0 1 .63 0c.18.1.18.26 0 .36Zm-4.78 2.77a.7.7 0 0 1-.64 0c-.18-.1-.18-.27 0-.37a.7.7 0 0 1 .64 0c.17.1.17.27 0 .37Zm-4.79 2.76a.7.7 0 0 1-.64 0c-.17-.1-.17-.26 0-.37.18-.1.46-.1.64 0s.18.27 0 .37Zm-4.79 2.76c-.17.1-.46.1-.64 0-.17-.1-.17-.26 0-.36a.7.7 0 0 1 .64 0c.18.1.18.26 0 .37Zm-4.78 2.77a.7.7 0 0 1-.64 0c-.18-.1-.18-.27 0-.37a.7.7 0 0 1 .64 0c.17.1.17.27 0 .37Zm-4.79 2.76a.7.7 0 0 1-.64 0c-.18-.1-.18-.26 0-.37.18-.1.46-.1.64 0s.18.27 0 .37Zm-4.79 2.77c-.18.1-.46.1-.64 0-.17-.1-.17-.27 0-.37a.7.7 0 0 1 .64 0c.18.1.18.26 0 .37Zm-4.79 2.76a.7.7 0 0 1-.63 0c-.18-.1-.18-.27 0-.37a.7.7 0 0 1 .63 0c.18.1.18.27 0 .37Zm-4.78 2.76a.7.7 0 0 1-.64 0c-.18-.1-.18-.26 0-.37.18-.1.46-.1.64 0 .17.1.17.27 0 .37Zm-4.79 2.77c-.18.1-.46.1-.64 0s-.18-.27 0-.37a.7.7 0 0 1 .64 0c.18.1.18.27 0 .37Zm-4.79 2.76a.7.7 0 0 1-.64 0c-.17-.1-.17-.26 0-.37a.7.7 0 0 1 .64 0c.18.1.18.27 0 .37Zm-4.79 2.76a.7.7 0 0 1-.63 0c-.18-.1-.18-.26 0-.36a.7.7 0 0 1 .63 0c.18.1.18.26 0 .36Zm-4.78 2.77c-.18.1-.46.1-.64 0s-.18-.27 0-.37a.7.7 0 0 1 .64 0c.17.1.17.27 0 .37Zm-4.79 2.76a.7.7 0 0 1-.64 0c-.17-.1-.17-.26 0-.37a.7.7 0 0 1 .64 0c.18.1.18.27 0 .37Zm-4.79 2.76a.7.7 0 0 1-.63 0c-.18-.1-.18-.26 0-.36a.7.7 0 0 1 .63 0c.18.1.18.26 0 .37Zm-4.78 2.77c-.18.1-.47.1-.64 0-.18-.1-.18-.27 0-.37a.7.7 0 0 1 .64 0c.17.1.17.27 0 .37Zm-4.79 2.76a.7.7 0 0 1-.64 0c-.18-.1-.18-.26 0-.37a.7.7 0 0 1 .64 0c.18.1.18.27 0 .37Zm-4.78 2.77a.7.7 0 0 1-.65 0c-.17-.1-.17-.27 0-.37a.7.7 0 0 1 .64 0c.18.1.18.27 0 .37Zm-4.8 2.76a.7.7 0 0 1-.63 0c-.18-.1-.18-.27 0-.37a.7.7 0 0 1 .63 0c.18.1.18.27 0 .37Zm-4.78 2.76a.7.7 0 0 1-.64 0c-.18-.1-.18-.26 0-.36a.7.7 0 0 1 .64 0c.17.1.17.26 0 .36Zm-4.79 2.77a.7.7 0 0 1-.64 0c-.17-.1-.17-.27 0-.37a.7.7 0 0 1 .64 0c.18.1.18.27 0 .37Zm-4.79 2.76a.7.7 0 0 1-.64 0c-.17-.1-.17-.27 0-.37.18-.1.47-.1.64 0 .18.1.18.27 0 .37Zm-4.78 2.76a.7.7 0 0 1-.64 0c-.18-.1-.18-.26 0-.36a.7.7 0 0 1 .64 0c.17.1.17.26 0 .36Zm143.61-77.38a.7.7 0 0 1-.64 0c-.17-.1-.17-.26 0-.37a.7.7 0 0 1 .64 0c.18.1.18.27 0 .37Zm-4.78 2.77a.7.7 0 0 1-.64 0c-.18-.1-.18-.27 0-.37a.7.7 0 0 1 .64 0c.17.1.17.26 0 .37Zm-4.79 2.76a.7.7 0 0 1-.64 0c-.18-.1-.18-.27 0-.37.18-.1.46-.1.64 0s.18.27 0 .37Zm-4.79 2.76a.7.7 0 0 1-.64 0c-.17-.1-.17-.26 0-.36a.7.7 0 0 1 .64 0c.18.1.18.26 0 .36Zm-4.79 2.77a.7.7 0 0 1-.63 0c-.18-.1-.18-.27 0-.37a.7.7 0 0 1 .63 0c.18.1.18.27 0 .37Zm-4.78 2.76a.7.7 0 0 1-.64 0c-.18-.1-.18-.27 0-.37.17-.1.46-.1.64 0 .17.1.17.27 0 .37Zm-4.79 2.76a.7.7 0 0 1-.64 0c-.17-.1-.17-.26 0-.36a.7.7 0 0 1 .64 0c.18.1.18.26 0 .36Zm-4.79 2.77a.7.7 0 0 1-.64 0c-.17-.1-.17-.27 0-.37a.7.7 0 0 1 .64 0c.18.1.18.27 0 .37Zm-4.79 2.76a.7.7 0 0 1-.63 0c-.18-.1-.18-.26 0-.37a.7.7 0 0 1 .63 0c.18.1.18.27 0 .37Zm-4.78 2.76c-.18.1-.47.1-.64 0-.18-.1-.18-.26 0-.36a.7.7 0 0 1 .64 0c.17.1.17.26 0 .37Zm-4.79 2.77a.7.7 0 0 1-.64 0c-.17-.1-.17-.27 0-.37a.7.7 0 0 1 .64 0c.18.1.18.27 0 .37Zm-4.79 2.76a.7.7 0 0 1-.64 0c-.17-.1-.17-.26 0-.37.18-.1.47-.1.64 0 .18.1.18.27 0 .37Zm-4.78 2.77c-.18.1-.47.1-.64 0-.18-.1-.18-.27 0-.37a.7.7 0 0 1 .64 0c.17.1.17.26 0 .37Zm-4.79 2.76a.7.7 0 0 1-.64 0c-.18-.1-.18-.27 0-.37a.7.7 0 0 1 .64 0c.18.1.18.27 0 .37Zm-4.79 2.76a.7.7 0 0 1-.64 0c-.17-.1-.17-.26 0-.37.18-.1.46-.1.64 0s.18.27 0 .37Zm-4.79 2.77a.7.7 0 0 1-.63 0c-.18-.1-.18-.27 0-.37a.7.7 0 0 1 .63 0c.18.1.18.27 0 .37Zm-4.78 2.76a.7.7 0 0 1-.64 0c-.18-.1-.18-.26 0-.37a.7.7 0 0 1 .64 0c.17.1.17.27 0 .37Zm-4.79 2.76a.7.7 0 0 1-.64 0c-.18-.1-.18-.26 0-.36a.7.7 0 0 1 .64 0c.18.1.18.26 0 .36Zm-4.79 2.77c-.17.1-.46.1-.64 0-.17-.1-.17-.27 0-.37a.7.7 0 0 1 .64 0c.18.1.18.27 0 .37Zm-4.79 2.76a.7.7 0 0 1-.63 0c-.18-.1-.18-.26 0-.37a.7.7 0 0 1 .63 0c.18.1.18.27 0 .37Zm-4.78 2.76a.7.7 0 0 1-.64 0c-.18-.1-.18-.26 0-.36a.7.7 0 0 1 .64 0c.17.1.17.26 0 .37Zm-4.79 2.77c-.18.1-.46.1-.64 0-.17-.1-.17-.27 0-.37a.7.7 0 0 1 .64 0c.18.1.18.27 0 .37Zm-4.79 2.76a.7.7 0 0 1-.63 0c-.18-.1-.18-.26 0-.37a.7.7 0 0 1 .63 0c.18.1.18.27 0 .37Zm-4.78 2.77a.7.7 0 0 1-.64 0c-.18-.1-.18-.27 0-.37a.7.7 0 0 1 .64 0c.17.1.17.27 0 .37Zm-4.79 2.76a.7.7 0 0 1-.64 0c-.18-.1-.18-.27 0-.37.18-.1.46-.1.64 0s.18.27 0 .37Zm-4.78 2.76a.7.7 0 0 1-.65 0c-.17-.1-.17-.26 0-.36a.7.7 0 0 1 .64 0c.18.1.18.26 0 .36Zm-4.8 2.77a.7.7 0 0 1-.63 0c-.18-.1-.18-.27 0-.37a.7.7 0 0 1 .63 0c.18.1.18.27 0 .37Zm-4.78 2.76a.7.7 0 0 1-.64 0c-.18-.1-.18-.27 0-.37.18-.1.46-.1.64 0 .17.1.17.27 0 .37Zm-4.79 2.76a.7.7 0 0 1-.64 0c-.17-.1-.17-.26 0-.36a.7.7 0 0 1 .64 0c.18.1.18.26 0 .36Zm-4.79 2.77a.7.7 0 0 1-.64 0c-.17-.1-.17-.27 0-.37a.7.7 0 0 1 .64 0c.18.1.18.27 0 .37Zm143.62-77.38a.7.7 0 0 1-.64 0c-.17-.1-.17-.27 0-.37a.7.7 0 0 1 .64 0c.18.1.18.26 0 .37Zm-4.79 2.76a.7.7 0 0 1-.64 0c-.17-.1-.17-.27 0-.37.18-.1.47-.1.64 0 .18.1.18.27 0 .37Zm-4.78 2.76a.7.7 0 0 1-.64 0c-.18-.1-.18-.26 0-.36a.7.7 0 0 1 .64 0c.17.1.17.26 0 .36Zm-4.79 2.77a.7.7 0 0 1-.64 0c-.18-.1-.18-.27 0-.37a.7.7 0 0 1 .64 0c.18.1.18.27 0 .37Zm-4.79 2.76a.7.7 0 0 1-.64 0c-.17-.1-.17-.27 0-.37.18-.1.47-.1.64 0 .18.1.18.27 0 .37Zm-4.79 2.76a.7.7 0 0 1-.63 0c-.18-.1-.18-.26 0-.36a.7.7 0 0 1 .63 0c.18.1.18.26 0 .36Zm-4.78 2.77a.7.7 0 0 1-.64 0c-.18-.1-.18-.27 0-.37a.7.7 0 0 1 .64 0c.17.1.17.27 0 .37Zm-4.79 2.76a.7.7 0 0 1-.64 0c-.17-.1-.17-.26 0-.37.18-.1.46-.1.64 0s.18.27 0 .37Zm-4.79 2.76c-.17.1-.46.1-.64 0-.17-.1-.17-.26 0-.36a.7.7 0 0 1 .64 0c.18.1.18.26 0 .37Zm-4.79 2.77a.7.7 0 0 1-.63 0c-.18-.1-.18-.27 0-.37a.7.7 0 0 1 .63 0c.18.1.18.27 0 .37Zm-4.78 2.76a.7.7 0 0 1-.64 0c-.18-.1-.18-.26 0-.37.17-.1.46-.1.64 0 .17.1.17.27 0 .37Zm-4.79 2.77c-.18.1-.46.1-.64 0-.17-.1-.17-.27 0-.37a.7.7 0 0 1 .64 0c.18.1.18.26 0 .37Zm-4.79 2.76a.7.7 0 0 1-.64 0c-.17-.1-.17-.27 0-.37a.7.7 0 0 1 .64 0c.18.1.18.27 0 .37Zm-4.78 2.76a.7.7 0 0 1-.64 0c-.18-.1-.18-.26 0-.37.17-.1.46-.1.64 0 .17.1.17.27 0 .37Zm-4.79 2.77c-.18.1-.46.1-.64 0s-.18-.27 0-.37a.7.7 0 0 1 .64 0c.18.1.18.27 0 .37Zm-4.79 2.76a.7.7 0 0 1-.64 0c-.17-.1-.17-.26 0-.37a.7.7 0 0 1 .64 0c.18.1.18.27 0 .37Zm-4.79 2.76a.7.7 0 0 1-.63 0c-.18-.1-.18-.26 0-.36a.7.7 0 0 1 .63 0c.18.1.18.26 0 .36Zm-4.78 2.77c-.18.1-.47.1-.64 0-.18-.1-.18-.27 0-.37a.7.7 0 0 1 .64 0c.17.1.17.27 0 .37Zm-4.79 2.76a.7.7 0 0 1-.64 0c-.18-.1-.18-.26 0-.37a.7.7 0 0 1 .64 0c.18.1.18.27 0 .37Zm-4.79 2.76a.7.7 0 0 1-.64 0c-.17-.1-.17-.26 0-.36a.7.7 0 0 1 .64 0c.18.1.18.26 0 .37Zm-4.79 2.77a.7.7 0 0 1-.63 0c-.18-.1-.18-.27 0-.37a.7.7 0 0 1 .63 0c.18.1.18.27 0 .37Zm-4.78 2.76a.7.7 0 0 1-.64 0c-.18-.1-.18-.26 0-.37a.7.7 0 0 1 .64 0c.17.1.17.27 0 .37Zm-4.79 2.77a.7.7 0 0 1-.64 0c-.17-.1-.17-.27 0-.37a.7.7 0 0 1 .64 0c.18.1.18.27 0 .37Zm-4.79 2.76a.7.7 0 0 1-.63 0c-.18-.1-.18-.27 0-.37a.7.7 0 0 1 .63 0c.18.1.18.27 0 .37Zm-4.78 2.76a.7.7 0 0 1-.64 0c-.18-.1-.18-.26 0-.36a.7.7 0 0 1 .64 0c.17.1.17.26 0 .36Zm-4.79 2.77a.7.7 0 0 1-.64 0c-.18-.1-.18-.27 0-.37a.7.7 0 0 1 .64 0c.18.1.18.27 0 .37Zm-4.78 2.76a.7.7 0 0 1-.65 0c-.17-.1-.17-.27 0-.37.18-.1.47-.1.64 0 .18.1.18.27 0 .37Zm-4.8 2.77a.7.7 0 0 1-.63 0c-.18-.1-.18-.27 0-.37a.7.7 0 0 1 .63 0c.18.1.18.26 0 .37Zm-4.78 2.76a.7.7 0 0 1-.64 0c-.18-.1-.18-.27 0-.37a.7.7 0 0 1 .64 0c.17.1.17.27 0 .37Zm-4.79 2.76a.7.7 0 0 1-.64 0c-.17-.1-.17-.26 0-.37.18-.1.46-.1.64 0s.18.27 0 .37Zm143.62-77.38a.7.7 0 0 1-.64 0c-.18-.1-.18-.27 0-.37.17-.1.46-.1.64 0 .17.1.17.27 0 .37Zm-4.79 2.76a.7.7 0 0 1-.64 0c-.17-.1-.17-.26 0-.36a.7.7 0 0 1 .64 0c.18.1.18.26 0 .36Zm-4.79 2.77a.7.7 0 0 1-.64 0c-.17-.1-.17-.27 0-.37a.7.7 0 0 1 .64 0c.18.1.18.27 0 .37Zm-4.78 2.76a.7.7 0 0 1-.64 0c-.18-.1-.18-.27 0-.37.17-.1.46-.1.64 0 .17.1.17.27 0 .37Zm-4.79 2.76a.7.7 0 0 1-.64 0c-.18-.1-.18-.26 0-.36a.7.7 0 0 1 .64 0c.18.1.18.26 0 .36Zm-4.79 2.77a.7.7 0 0 1-.64 0c-.17-.1-.17-.27 0-.37a.7.7 0 0 1 .64 0c.18.1.18.27 0 .37Zm-4.79 2.76a.7.7 0 0 1-.63 0c-.18-.1-.18-.26 0-.37a.7.7 0 0 1 .63 0c.18.1.18.27 0 .37Zm-4.78 2.76c-.18.1-.47.1-.64 0-.18-.1-.18-.26 0-.36a.7.7 0 0 1 .64 0c.17.1.17.26 0 .37Zm-4.79 2.77a.7.7 0 0 1-.64 0c-.17-.1-.17-.27 0-.37a.7.7 0 0 1 .64 0c.18.1.18.27 0 .37Zm-4.79 2.76a.7.7 0 0 1-.64 0c-.17-.1-.17-.26 0-.37.18-.1.47-.1.64 0 .18.1.18.27 0 .37Zm-4.79 2.77a.7.7 0 0 1-.63 0c-.18-.1-.18-.27 0-.37a.7.7 0 0 1 .63 0c.18.1.18.26 0 .37Zm-4.78 2.76a.7.7 0 0 1-.64 0c-.18-.1-.18-.27 0-.37a.7.7 0 0 1 .64 0c.17.1.17.27 0 .37Zm-4.79 2.76a.7.7 0 0 1-.64 0c-.17-.1-.17-.26 0-.37.18-.1.46-.1.64 0s.18.27 0 .37Zm-4.79 2.77c-.17.1-.46.1-.64 0-.17-.1-.17-.27 0-.37a.7.7 0 0 1 .64 0c.18.1.18.27 0 .37Zm-4.78 2.76a.7.7 0 0 1-.64 0c-.18-.1-.18-.26 0-.37a.7.7 0 0 1 .64 0c.17.1.17.27 0 .37Zm-4.79 2.76a.7.7 0 0 1-.64 0c-.18-.1-.18-.26 0-.36a.7.7 0 0 1 .64 0c.18.1.18.26 0 .36Zm-4.79 2.77c-.18.1-.46.1-.64 0-.17-.1-.17-.27 0-.37a.7.7 0 0 1 .64 0c.18.1.18.27 0 .37Zm-4.79 2.76a.7.7 0 0 1-.63 0c-.18-.1-.18-.26 0-.37a.7.7 0 0 1 .63 0c.18.1.18.27 0 .37Zm-4.78 2.76a.7.7 0 0 1-.64 0c-.18-.1-.18-.26 0-.36a.7.7 0 0 1 .64 0c.17.1.17.26 0 .37Zm-4.79 2.77c-.18.1-.46.1-.64 0s-.18-.27 0-.37a.7.7 0 0 1 .64 0c.18.1.18.27 0 .37Zm-4.79 2.76a.7.7 0 0 1-.64 0c-.17-.1-.17-.26 0-.37a.7.7 0 0 1 .64 0c.18.1.18.27 0 .37Zm-4.79 2.77a.7.7 0 0 1-.63 0c-.18-.1-.18-.27 0-.37a.7.7 0 0 1 .63 0c.18.1.18.27 0 .37Zm-4.78 2.76a.7.7 0 0 1-.64 0c-.18-.1-.18-.27 0-.37.18-.1.46-.1.64 0 .17.1.17.27 0 .37Zm-4.79 2.76a.7.7 0 0 1-.64 0c-.17-.1-.17-.26 0-.36a.7.7 0 0 1 .64 0c.18.1.18.26 0 .36Zm-4.79 2.77a.7.7 0 0 1-.63 0c-.18-.1-.18-.27 0-.37a.7.7 0 0 1 .63 0c.18.1.18.27 0 .37Zm-4.78 2.76a.7.7 0 0 1-.64 0c-.18-.1-.18-.27 0-.37.17-.1.46-.1.64 0 .17.1.17.27 0 .37Zm-4.79 2.77c-.18.1-.46.1-.64 0s-.18-.27 0-.37a.7.7 0 0 1 .64 0c.18.1.18.26 0 .37Zm-4.78 2.76a.7.7 0 0 1-.65 0c-.17-.1-.17-.27 0-.37a.7.7 0 0 1 .64 0c.18.1.18.27 0 .37Zm-4.8 2.76a.7.7 0 0 1-.63 0c-.18-.1-.18-.26 0-.37a.7.7 0 0 1 .63 0c.18.1.18.27 0 .37Zm-4.78 2.76c-.18.1-.46.1-.64 0s-.18-.26 0-.36a.7.7 0 0 1 .64 0c.17.1.17.26 0 .37Zm143.61-77.38a.7.7 0 0 1-.63 0c-.18-.1-.18-.26 0-.36a.7.7 0 0 1 .63 0c.18.1.18.26 0 .36Zm-4.78 2.77a.7.7 0 0 1-.64 0c-.18-.1-.18-.27 0-.37a.7.7 0 0 1 .64 0c.17.1.17.27 0 .37Zm-4.79 2.76a.7.7 0 0 1-.64 0c-.17-.1-.17-.27 0-.37.18-.1.46-.1.64 0s.18.27 0 .37Zm-4.79 2.76a.7.7 0 0 1-.64 0c-.17-.1-.17-.26 0-.36a.7.7 0 0 1 .64 0c.18.1.18.26 0 .36Zm-4.78 2.77a.7.7 0 0 1-.64 0c-.18-.1-.18-.27 0-.37a.7.7 0 0 1 .64 0c.17.1.17.27 0 .37Zm-4.79 2.76a.7.7 0 0 1-.64 0c-.18-.1-.18-.26 0-.37.18-.1.46-.1.64 0s.18.27 0 .37Zm-4.79 2.76c-.17.1-.46.1-.64 0-.17-.1-.17-.26 0-.36a.7.7 0 0 1 .64 0c.18.1.18.26 0 .37Zm-4.79 2.77a.7.7 0 0 1-.63 0c-.18-.1-.18-.27 0-.37a.7.7 0 0 1 .63 0c.18.1.18.27 0 .37Zm-4.78 2.76a.7.7 0 0 1-.64 0c-.18-.1-.18-.26 0-.37.17-.1.46-.1.64 0 .17.1.17.27 0 .37Zm-4.79 2.77c-.18.1-.46.1-.64 0-.17-.1-.17-.27 0-.37a.7.7 0 0 1 .64 0c.18.1.18.26 0 .37Zm-4.79 2.76a.7.7 0 0 1-.64 0c-.17-.1-.17-.27 0-.37a.7.7 0 0 1 .64 0c.18.1.18.27 0 .37Zm-4.79 2.76a.7.7 0 0 1-.63 0c-.18-.1-.18-.26 0-.37a.7.7 0 0 1 .63 0c.18.1.18.27 0 .37Zm-4.78 2.77c-.18.1-.47.1-.64 0-.18-.1-.18-.27 0-.37a.7.7 0 0 1 .64 0c.17.1.17.27 0 .37Zm-4.79 2.76a.7.7 0 0 1-.64 0c-.17-.1-.17-.26 0-.37a.7.7 0 0 1 .64 0c.18.1.18.27 0 .37Zm-4.79 2.76a.7.7 0 0 1-.64 0c-.17-.1-.17-.26 0-.36a.7.7 0 0 1 .64 0c.18.1.18.26 0 .36Zm-4.78 2.77c-.18.1-.47.1-.64 0-.18-.1-.18-.27 0-.37a.7.7 0 0 1 .64 0c.17.1.17.27 0 .37Zm-4.79 2.76a.7.7 0 0 1-.64 0c-.18-.1-.18-.26 0-.37a.7.7 0 0 1 .64 0c.18.1.18.27 0 .37Zm-4.79 2.76a.7.7 0 0 1-.64 0c-.17-.1-.17-.26 0-.36a.7.7 0 0 1 .64 0c.18.1.18.26 0 .37Zm-4.79 2.77a.7.7 0 0 1-.63 0c-.18-.1-.18-.27 0-.37a.7.7 0 0 1 .63 0c.18.1.18.27 0 .37Zm-4.78 2.76a.7.7 0 0 1-.64 0c-.18-.1-.18-.26 0-.37a.7.7 0 0 1 .64 0c.17.1.17.27 0 .37Zm-4.79 2.77a.7.7 0 0 1-.64 0c-.18-.1-.18-.27 0-.37a.7.7 0 0 1 .64 0c.18.1.18.27 0 .37Zm-4.79 2.76a.7.7 0 0 1-.64 0c-.17-.1-.17-.27 0-.37.18-.1.47-.1.64 0 .18.1.18.27 0 .37Zm-4.79 2.76a.7.7 0 0 1-.63 0c-.18-.1-.18-.26 0-.36a.7.7 0 0 1 .63 0c.18.1.18.26 0 .36Zm-4.78 2.77a.7.7 0 0 1-.64 0c-.18-.1-.18-.27 0-.37a.7.7 0 0 1 .64 0c.17.1.17.27 0 .37Zm-4.79 2.76a.7.7 0 0 1-.64 0c-.17-.1-.17-.27 0-.37.18-.1.46-.1.64 0s.18.27 0 .37Zm-4.79 2.77a.7.7 0 0 1-.63 0c-.18-.1-.18-.27 0-.37a.7.7 0 0 1 .63 0c.18.1.18.26 0 .37Zm-4.78 2.76a.7.7 0 0 1-.64 0c-.18-.1-.18-.27 0-.37a.7.7 0 0 1 .64 0c.17.1.17.27 0 .37Zm-4.79 2.76a.7.7 0 0 1-.64 0c-.18-.1-.18-.26 0-.37.18-.1.46-.1.64 0s.18.27 0 .37Zm-4.78 2.76c-.18.1-.47.1-.65 0-.17-.1-.17-.26 0-.36a.7.7 0 0 1 .64 0c.18.1.18.26 0 .37Zm-4.8 2.77a.7.7 0 0 1-.63 0c-.18-.1-.18-.27 0-.37a.7.7 0 0 1 .63 0c.18.1.18.27 0 .37Zm143.62-77.38a.7.7 0 0 1-.64 0c-.17-.1-.17-.27 0-.37a.7.7 0 0 1 .64 0c.18.1.18.27 0 .37Zm-4.79 2.76a.7.7 0 0 1-.63 0c-.18-.1-.18-.27 0-.37a.7.7 0 0 1 .63 0c.18.1.18.27 0 .37Zm-4.78 2.76a.7.7 0 0 1-.64 0c-.18-.1-.18-.26 0-.36a.7.7 0 0 1 .64 0c.17.1.17.26 0 .36Zm-4.79 2.77a.7.7 0 0 1-.64 0c-.17-.1-.17-.27 0-.37a.7.7 0 0 1 .64 0c.18.1.18.27 0 .37Zm-4.79 2.76a.7.7 0 0 1-.64 0c-.17-.1-.17-.26 0-.37.18-.1.47-.1.64 0 .18.1.18.27 0 .37Zm-4.78 2.76c-.18.1-.47.1-.64 0-.18-.1-.18-.26 0-.36a.7.7 0 0 1 .64 0c.17.1.17.26 0 .37Zm-4.79 2.77a.7.7 0 0 1-.64 0c-.18-.1-.18-.27 0-.37a.7.7 0 0 1 .64 0c.18.1.18.27 0 .37Zm-4.79 2.76a.7.7 0 0 1-.64 0c-.17-.1-.17-.26 0-.37.18-.1.47-.1.64 0 .18.1.18.27 0 .37Zm-4.79 2.77a.7.7 0 0 1-.63 0c-.18-.1-.18-.27 0-.37a.7.7 0 0 1 .63 0c.18.1.18.26 0 .37Zm-4.78 2.76a.7.7 0 0 1-.64 0c-.18-.1-.18-.27 0-.37a.7.7 0 0 1 .64 0c.17.1.17.27 0 .37Zm-4.79 2.76a.7.7 0 0 1-.64 0c-.17-.1-.17-.26 0-.37.18-.1.46-.1.64 0s.18.27 0 .37Zm-4.79 2.77c-.17.1-.46.1-.64 0-.17-.1-.17-.27 0-.37a.7.7 0 0 1 .64 0c.18.1.18.27 0 .37Zm-4.79 2.76a.7.7 0 0 1-.63 0c-.18-.1-.18-.26 0-.37a.7.7 0 0 1 .63 0c.18.1.18.27 0 .37Zm-4.78 2.76a.7.7 0 0 1-.64 0c-.18-.1-.18-.26 0-.36a.7.7 0 0 1 .64 0c.17.1.17.26 0 .36Zm-4.79 2.77c-.18.1-.46.1-.64 0-.17-.1-.17-.27 0-.37a.7.7 0 0 1 .64 0c.18.1.18.27 0 .37Zm-4.79 2.76a.7.7 0 0 1-.64 0c-.17-.1-.17-.26 0-.37a.7.7 0 0 1 .64 0c.18.1.18.27 0 .37Zm-4.78 2.76a.7.7 0 0 1-.64 0c-.18-.1-.18-.26 0-.36a.7.7 0 0 1 .64 0c.17.1.17.26 0 .37Zm-4.79 2.77c-.18.1-.46.1-.64 0s-.18-.27 0-.37a.7.7 0 0 1 .64 0c.18.1.18.27 0 .37Zm-4.79 2.76a.7.7 0 0 1-.64 0c-.17-.1-.17-.26 0-.37a.7.7 0 0 1 .64 0c.18.1.18.27 0 .37Zm-4.79 2.77a.7.7 0 0 1-.63 0c-.18-.1-.18-.27 0-.37a.7.7 0 0 1 .63 0c.18.1.18.27 0 .37Zm-4.78 2.76a.7.7 0 0 1-.64 0c-.18-.1-.18-.27 0-.37.18-.1.46-.1.64 0 .17.1.17.27 0 .37Zm-4.79 2.76a.7.7 0 0 1-.64 0c-.18-.1-.18-.26 0-.36a.7.7 0 0 1 .64 0c.18.1.18.26 0 .36Zm-4.79 2.77a.7.7 0 0 1-.64 0c-.17-.1-.17-.27 0-.37a.7.7 0 0 1 .64 0c.18.1.18.27 0 .37Zm-4.79 2.76a.7.7 0 0 1-.63 0c-.18-.1-.18-.27 0-.37a.7.7 0 0 1 .63 0c.18.1.18.27 0 .37Zm-4.78 2.77c-.18.1-.46.1-.64 0s-.18-.27 0-.37a.7.7 0 0 1 .64 0c.17.1.17.26 0 .37Zm-4.79 2.76a.7.7 0 0 1-.64 0c-.17-.1-.17-.27 0-.37a.7.7 0 0 1 .64 0c.18.1.18.27 0 .37Zm-4.79 2.76a.7.7 0 0 1-.63 0c-.18-.1-.18-.26 0-.37a.7.7 0 0 1 .63 0c.18.1.18.27 0 .37Zm-4.78 2.76c-.18.1-.47.1-.64 0-.18-.1-.18-.26 0-.36a.7.7 0 0 1 .64 0c.17.1.17.26 0 .37Zm-4.79 2.77a.7.7 0 0 1-.64 0c-.18-.1-.18-.27 0-.37a.7.7 0 0 1 .64 0c.18.1.18.27 0 .37Zm-4.78 2.76a.7.7 0 0 1-.65 0c-.17-.1-.17-.26 0-.36.18-.1.47-.1.64 0 .18.1.18.26 0 .36Zm143.6-77.38a.7.7 0 0 1-.63 0c-.18-.1-.18-.27 0-.37.18-.1.46-.1.64 0s.18.27 0 .37Zm-4.78 2.76a.7.7 0 0 1-.64 0c-.17-.1-.17-.26 0-.36a.7.7 0 0 1 .64 0c.18.1.18.26 0 .36Zm-4.79 2.77a.7.7 0 0 1-.63 0c-.18-.1-.18-.27 0-.37a.7.7 0 0 1 .63 0c.18.1.18.27 0 .37Zm-4.78 2.76a.7.7 0 0 1-.64 0c-.18-.1-.18-.26 0-.37.17-.1.46-.1.64 0 .17.1.17.27 0 .37Zm-4.79 2.76c-.18.1-.46.1-.64 0-.17-.1-.17-.26 0-.36a.7.7 0 0 1 .64 0c.18.1.18.26 0 .37Zm-4.79 2.77a.7.7 0 0 1-.64 0c-.17-.1-.17-.27 0-.37a.7.7 0 0 1 .64 0c.18.1.18.27 0 .37Zm-4.78 2.76a.7.7 0 0 1-.64 0c-.18-.1-.18-.26 0-.37.17-.1.46-.1.64 0 .17.1.17.27 0 .37Zm-4.79 2.77c-.18.1-.46.1-.64 0s-.18-.27 0-.37a.7.7 0 0 1 .64 0c.18.1.18.26 0 .37Zm-4.79 2.76a.7.7 0 0 1-.64 0c-.17-.1-.17-.27 0-.37a.7.7 0 0 1 .64 0c.18.1.18.27 0 .37Zm-4.79 2.76a.7.7 0 0 1-.63 0c-.18-.1-.18-.26 0-.37a.7.7 0 0 1 .63 0c.18.1.18.27 0 .37Zm-4.78 2.77c-.18.1-.47.1-.64 0-.18-.1-.18-.27 0-.37a.7.7 0 0 1 .64 0c.17.1.17.27 0 .37Zm-4.79 2.76a.7.7 0 0 1-.64 0c-.17-.1-.17-.26 0-.37a.7.7 0 0 1 .64 0c.18.1.18.27 0 .37Zm-4.79 2.76a.7.7 0 0 1-.64 0c-.17-.1-.17-.26 0-.36a.7.7 0 0 1 .64 0c.18.1.18.26 0 .36Zm-4.79 2.77a.7.7 0 0 1-.63 0c-.18-.1-.18-.27 0-.37a.7.7 0 0 1 .63 0c.18.1.18.27 0 .37Zm-4.78 2.76a.7.7 0 0 1-.64 0c-.18-.1-.18-.26 0-.37a.7.7 0 0 1 .64 0c.17.1.17.27 0 .37Zm-4.79 2.76a.7.7 0 0 1-.64 0c-.17-.1-.17-.26 0-.36a.7.7 0 0 1 .64 0c.18.1.18.26 0 .37Zm-4.79 2.77c-.17.1-.46.1-.64 0-.17-.1-.17-.27 0-.37a.7.7 0 0 1 .64 0c.18.1.18.27 0 .37Zm-4.78 2.76a.7.7 0 0 1-.64 0c-.18-.1-.18-.26 0-.37a.7.7 0 0 1 .64 0c.17.1.17.27 0 .37Zm-4.79 2.77a.7.7 0 0 1-.64 0c-.18-.1-.18-.27 0-.37a.7.7 0 0 1 .64 0c.18.1.18.27 0 .37Zm-4.79 2.76a.7.7 0 0 1-.64 0c-.17-.1-.17-.27 0-.37.18-.1.46-.1.64 0s.18.27 0 .37Zm-4.79 2.76a.7.7 0 0 1-.63 0c-.18-.1-.18-.26 0-.36a.7.7 0 0 1 .63 0c.18.1.18.26 0 .36Zm-4.78 2.77a.7.7 0 0 1-.64 0c-.18-.1-.18-.27 0-.37a.7.7 0 0 1 .64 0c.17.1.17.27 0 .37Zm-4.79 2.76a.7.7 0 0 1-.64 0c-.18-.1-.18-.27 0-.37.18-.1.46-.1.64 0s.18.27 0 .37Zm-4.79 2.77c-.17.1-.46.1-.64 0-.17-.1-.17-.27 0-.37a.7.7 0 0 1 .64 0c.18.1.18.26 0 .37Zm-4.79 2.76a.7.7 0 0 1-.63 0c-.18-.1-.18-.27 0-.37a.7.7 0 0 1 .63 0c.18.1.18.27 0 .37Zm-4.78 2.76a.7.7 0 0 1-.64 0c-.18-.1-.18-.26 0-.37.18-.1.46-.1.64 0 .17.1.17.27 0 .37Zm-4.79 2.76c-.18.1-.46.1-.64 0-.17-.1-.17-.26 0-.36a.7.7 0 0 1 .64 0c.18.1.18.26 0 .37Zm-4.79 2.77a.7.7 0 0 1-.63 0c-.18-.1-.18-.27 0-.37a.7.7 0 0 1 .63 0c.18.1.18.27 0 .37Zm-4.78 2.76a.7.7 0 0 1-.64 0c-.18-.1-.18-.26 0-.36.17-.1.46-.1.64 0 .17.1.17.26 0 .36Zm-4.79 2.77c-.18.1-.46.1-.64 0s-.18-.27 0-.37a.7.7 0 0 1 .64 0c.18.1.18.27 0 .37ZM265 176.61a.7.7 0 0 1-.64 0c-.18-.1-.18-.26 0-.36a.7.7 0 0 1 .64 0c.17.1.17.26 0 .36Zm-4.8 2.77a.7.7 0 0 1-.63 0c-.18-.1-.18-.27 0-.37a.7.7 0 0 1 .64 0c.18.1.18.27 0 .37Zm-4.78 2.76a.7.7 0 0 1-.64 0c-.17-.1-.17-.26 0-.37.18-.1.47-.1.64 0 .18.1.18.27 0 .37Zm-4.79 2.76a.7.7 0 0 1-.63 0c-.18-.1-.18-.26 0-.36a.7.7 0 0 1 .63 0c.18.1.18.26 0 .37Zm-4.78 2.77a.7.7 0 0 1-.64 0c-.18-.1-.18-.27 0-.37a.7.7 0 0 1 .64 0c.17.1.17.27 0 .37Zm-4.79 2.76a.7.7 0 0 1-.64 0c-.17-.1-.17-.26 0-.37.18-.1.46-.1.64 0s.18.27 0 .37Zm-4.79 2.77c-.17.1-.46.1-.64 0-.17-.1-.17-.27 0-.37a.7.7 0 0 1 .64 0c.18.1.18.26 0 .37Zm-4.78 2.76a.7.7 0 0 1-.64 0c-.18-.1-.18-.27 0-.37a.7.7 0 0 1 .64 0c.17.1.17.27 0 .37Zm-4.79 2.76a.7.7 0 0 1-.64 0c-.18-.1-.18-.26 0-.37.18-.1.46-.1.64 0s.18.27 0 .37Zm-4.79 2.77c-.17.1-.46.1-.64 0-.17-.1-.17-.27 0-.37a.7.7 0 0 1 .64 0c.18.1.18.27 0 .37Zm-4.79 2.76a.7.7 0 0 1-.63 0c-.18-.1-.18-.26 0-.37a.7.7 0 0 1 .63 0c.18.1.18.27 0 .37Zm-4.78 2.76a.7.7 0 0 1-.64 0c-.18-.1-.18-.26 0-.36a.7.7 0 0 1 .64 0c.17.1.17.26 0 .36Zm-4.79 2.77c-.18.1-.46.1-.64 0-.17-.1-.17-.27 0-.37a.7.7 0 0 1 .64 0c.18.1.18.27 0 .37Zm-4.79 2.76a.7.7 0 0 1-.64 0c-.17-.1-.17-.26 0-.37a.7.7 0 0 1 .64 0c.18.1.18.27 0 .37Zm-4.79 2.76a.7.7 0 0 1-.63 0c-.18-.1-.18-.26 0-.36a.7.7 0 0 1 .63 0c.18.1.18.26 0 .37Zm-4.78 2.77c-.18.1-.47.1-.64 0-.18-.1-.18-.27 0-.37a.7.7 0 0 1 .64 0c.17.1.17.27 0 .37Zm-4.79 2.76a.7.7 0 0 1-.64 0c-.17-.1-.17-.26 0-.37a.7.7 0 0 1 .64 0c.18.1.18.27 0 .37Zm-4.79 2.77a.7.7 0 0 1-.64 0c-.17-.1-.17-.27 0-.37a.7.7 0 0 1 .64 0c.18.1.18.27 0 .37Zm-4.78 2.76a.7.7 0 0 1-.64 0c-.18-.1-.18-.27 0-.37.17-.1.46-.1.64 0 .17.1.17.27 0 .37Zm-4.79 2.76a.7.7 0 0 1-.64 0c-.18-.1-.18-.26 0-.36a.7.7 0 0 1 .64 0c.18.1.18.26 0 .36Zm-4.79 2.77a.7.7 0 0 1-.64 0c-.17-.1-.17-.27 0-.37a.7.7 0 0 1 .64 0c.18.1.18.27 0 .37Zm-4.79 2.76a.7.7 0 0 1-.63 0c-.18-.1-.18-.27 0-.37a.7.7 0 0 1 .63 0c.18.1.18.27 0 .37Zm-4.78 2.77c-.18.1-.47.1-.64 0-.18-.1-.18-.27 0-.37a.7.7 0 0 1 .64 0c.17.1.17.26 0 .37Zm-4.79 2.76a.7.7 0 0 1-.64 0c-.18-.1-.18-.27 0-.37a.7.7 0 0 1 .64 0c.18.1.18.27 0 .37Zm-4.79 2.76a.7.7 0 0 1-.64 0c-.17-.1-.17-.26 0-.37.18-.1.47-.1.64 0 .18.1.18.27 0 .37Zm-4.79 2.76a.7.7 0 0 1-.63 0c-.18-.1-.18-.26 0-.36a.7.7 0 0 1 .63 0c.18.1.18.26 0 .37Zm-4.78 2.77a.7.7 0 0 1-.64 0c-.18-.1-.18-.27 0-.37a.7.7 0 0 1 .64 0c.17.1.17.27 0 .37Zm-4.79 2.76a.7.7 0 0 1-.64 0c-.17-.1-.17-.26 0-.36.18-.1.46-.1.64 0s.18.26 0 .36Zm-4.79 2.77a.7.7 0 0 1-.63 0c-.18-.1-.18-.27 0-.37a.7.7 0 0 1 .63 0c.18.1.18.27 0 .37Zm-4.78 2.76a.7.7 0 0 1-.64 0c-.18-.1-.18-.26 0-.37a.7.7 0 0 1 .64 0c.17.1.17.27 0 .37Zm143.61-77.38a.7.7 0 0 1-.63 0c-.18-.1-.18-.27 0-.37a.7.7 0 0 1 .63 0c.18.1.18.27 0 .37Zm-4.78 2.76a.7.7 0 0 1-.64 0c-.18-.1-.18-.26 0-.37.17-.1.46-.1.64 0 .17.1.17.27 0 .37Zm-4.8 2.76c-.17.1-.45.1-.63 0s-.18-.26 0-.36a.7.7 0 0 1 .64 0c.18.1.18.26 0 .37Zm-4.78 2.77a.7.7 0 0 1-.64 0c-.17-.1-.17-.27 0-.37a.7.7 0 0 1 .64 0c.18.1.18.27 0 .37Zm-4.79 2.76a.7.7 0 0 1-.63 0c-.18-.1-.18-.26 0-.37a.7.7 0 0 1 .63 0c.18.1.18.27 0 .37Zm-4.78 2.77c-.18.1-.47.1-.64 0-.18-.1-.18-.27 0-.37a.7.7 0 0 1 .64 0c.17.1.17.26 0 .37Zm-4.79 2.76a.7.7 0 0 1-.64 0c-.17-.1-.17-.27 0-.37a.7.7 0 0 1 .64 0c.18.1.18.27 0 .37Zm-4.79 2.76a.7.7 0 0 1-.64 0c-.17-.1-.17-.26 0-.37.18-.1.47-.1.64 0 .18.1.18.27 0 .37Zm-4.78 2.77c-.18.1-.47.1-.64 0-.18-.1-.18-.27 0-.37a.7.7 0 0 1 .64 0c.17.1.17.27 0 .37Zm-4.79 2.76a.7.7 0 0 1-.64 0c-.18-.1-.18-.26 0-.37a.7.7 0 0 1 .64 0c.18.1.18.27 0 .37Zm-4.79 2.76a.7.7 0 0 1-.64 0c-.17-.1-.17-.26 0-.36a.7.7 0 0 1 .64 0c.18.1.18.26 0 .36Zm-4.79 2.77a.7.7 0 0 1-.63 0c-.18-.1-.18-.27 0-.37a.7.7 0 0 1 .63 0c.18.1.18.27 0 .37Zm-4.78 2.76a.7.7 0 0 1-.64 0c-.18-.1-.18-.26 0-.37a.7.7 0 0 1 .64 0c.17.1.17.27 0 .37Zm-4.79 2.76a.7.7 0 0 1-.64 0c-.17-.1-.17-.26 0-.36a.7.7 0 0 1 .64 0c.18.1.18.26 0 .37Zm-4.79 2.77c-.17.1-.46.1-.64 0-.17-.1-.17-.27 0-.37a.7.7 0 0 1 .64 0c.18.1.18.27 0 .37Zm-4.79 2.76a.7.7 0 0 1-.63 0c-.18-.1-.18-.26 0-.37a.7.7 0 0 1 .63 0c.18.1.18.27 0 .37Zm-4.78 2.77a.7.7 0 0 1-.64 0c-.18-.1-.18-.27 0-.37a.7.7 0 0 1 .64 0c.17.1.17.27 0 .37Zm-4.79 2.76a.7.7 0 0 1-.64 0c-.17-.1-.17-.27 0-.37.18-.1.46-.1.64 0s.18.27 0 .37Zm-4.79 2.76a.7.7 0 0 1-.64 0c-.17-.1-.17-.26 0-.36a.7.7 0 0 1 .64 0c.18.1.18.26 0 .36Zm-4.78 2.77a.7.7 0 0 1-.64 0c-.18-.1-.18-.27 0-.37a.7.7 0 0 1 .64 0c.17.1.17.27 0 .37Zm-4.79 2.76a.7.7 0 0 1-.64 0c-.18-.1-.18-.27 0-.37.18-.1.46-.1.64 0s.18.27 0 .37Zm-4.79 2.77c-.18.1-.46.1-.64 0-.17-.1-.17-.27 0-.37a.7.7 0 0 1 .64 0c.18.1.18.26 0 .37Zm-4.79 2.76a.7.7 0 0 1-.63 0c-.18-.1-.18-.27 0-.37a.7.7 0 0 1 .63 0c.18.1.18.27 0 .37Zm-4.78 2.76a.7.7 0 0 1-.64 0c-.18-.1-.18-.26 0-.37.18-.1.46-.1.64 0 .17.1.17.27 0 .37Zm-4.79 2.76c-.18.1-.46.1-.64 0s-.18-.26 0-.36a.7.7 0 0 1 .64 0c.18.1.18.26 0 .37Zm-4.79 2.77a.7.7 0 0 1-.64 0c-.17-.1-.17-.27 0-.37a.7.7 0 0 1 .64 0c.18.1.18.27 0 .37Zm-4.79 2.76a.7.7 0 0 1-.63 0c-.18-.1-.18-.26 0-.36a.7.7 0 0 1 .63 0c.18.1.18.26 0 .36Zm-4.78 2.77c-.18.1-.46.1-.64 0s-.18-.27 0-.37a.7.7 0 0 1 .64 0c.17.1.17.27 0 .37Zm-4.79 2.76a.7.7 0 0 1-.64 0c-.17-.1-.17-.26 0-.37a.7.7 0 0 1 .64 0c.18.1.18.27 0 .37Zm-4.79 2.76a.7.7 0 0 1-.63 0c-.18-.1-.18-.26 0-.36a.7.7 0 0 1 .63 0c.18.1.18.26 0 .36Zm143.62-77.38a.7.7 0 0 1-.64 0c-.17-.1-.17-.26 0-.37.18-.1.46-.1.64 0s.18.27 0 .37Zm-4.79 2.76a.7.7 0 0 1-.63 0c-.18-.1-.18-.26 0-.36a.7.7 0 0 1 .63 0c.18.1.18.26 0 .37Zm-4.78 2.77a.7.7 0 0 1-.64 0c-.18-.1-.18-.27 0-.37a.7.7 0 0 1 .64 0c.17.1.17.27 0 .37Zm-4.8 2.76a.7.7 0 0 1-.63 0c-.18-.1-.18-.26 0-.37.18-.1.46-.1.64 0s.18.27 0 .37Zm-4.78 2.77c-.17.1-.46.1-.64 0-.17-.1-.17-.27 0-.37a.7.7 0 0 1 .64 0c.18.1.18.26 0 .37Zm-4.79 2.76a.7.7 0 0 1-.63 0c-.18-.1-.18-.27 0-.37a.7.7 0 0 1 .63 0c.18.1.18.27 0 .37Zm-4.78 2.76a.7.7 0 0 1-.64 0c-.18-.1-.18-.26 0-.37.17-.1.46-.1.64 0 .17.1.17.27 0 .37Zm-4.79 2.77c-.18.1-.46.1-.64 0-.17-.1-.17-.27 0-.37a.7.7 0 0 1 .64 0c.18.1.18.27 0 .37Zm-4.79 2.76a.7.7 0 0 1-.64 0c-.17-.1-.17-.26 0-.37a.7.7 0 0 1 .64 0c.18.1.18.27 0 .37Zm-4.78 2.76a.7.7 0 0 1-.64 0c-.18-.1-.18-.26 0-.36a.7.7 0 0 1 .64 0c.17.1.17.26 0 .36Zm-4.79 2.77c-.18.1-.46.1-.64 0s-.18-.27 0-.37a.7.7 0 0 1 .64 0c.18.1.18.27 0 .37Zm-4.79 2.76a.7.7 0 0 1-.64 0c-.17-.1-.17-.26 0-.37a.7.7 0 0 1 .64 0c.18.1.18.27 0 .37Zm-4.79 2.76a.7.7 0 0 1-.63 0c-.18-.1-.18-.26 0-.36a.7.7 0 0 1 .63 0c.18.1.18.26 0 .37Zm-4.78 2.77c-.18.1-.47.1-.64 0-.18-.1-.18-.27 0-.37a.7.7 0 0 1 .64 0c.17.1.17.27 0 .37Zm-4.79 2.76a.7.7 0 0 1-.64 0c-.17-.1-.17-.26 0-.37a.7.7 0 0 1 .64 0c.18.1.18.27 0 .37Zm-4.79 2.77a.7.7 0 0 1-.64 0c-.17-.1-.17-.27 0-.37a.7.7 0 0 1 .64 0c.18.1.18.27 0 .37Zm-4.79 2.76a.7.7 0 0 1-.63 0c-.18-.1-.18-.27 0-.37a.7.7 0 0 1 .63 0c.18.1.18.27 0 .37Zm-4.78 2.76a.7.7 0 0 1-.64 0c-.18-.1-.18-.26 0-.36a.7.7 0 0 1 .64 0c.17.1.17.26 0 .36Zm-4.79 2.77a.7.7 0 0 1-.64 0c-.17-.1-.17-.27 0-.37a.7.7 0 0 1 .64 0c.18.1.18.27 0 .37Zm-4.79 2.76a.7.7 0 0 1-.64 0c-.17-.1-.17-.27 0-.37.18-.1.47-.1.64 0 .18.1.18.27 0 .37Zm-4.78 2.77c-.18.1-.47.1-.64 0-.18-.1-.18-.27 0-.37a.7.7 0 0 1 .64 0c.17.1.17.26 0 .37Zm-4.79 2.76a.7.7 0 0 1-.64 0c-.18-.1-.18-.27 0-.37a.7.7 0 0 1 .64 0c.18.1.18.27 0 .37Zm-4.79 2.76a.7.7 0 0 1-.64 0c-.17-.1-.17-.26 0-.37.18-.1.46-.1.64 0s.18.27 0 .37Zm-4.79 2.76a.7.7 0 0 1-.63 0c-.18-.1-.18-.26 0-.36a.7.7 0 0 1 .63 0c.18.1.18.26 0 .37Zm-4.78 2.77a.7.7 0 0 1-.64 0c-.18-.1-.18-.27 0-.37a.7.7 0 0 1 .64 0c.17.1.17.27 0 .37Zm-4.79 2.76a.7.7 0 0 1-.64 0c-.18-.1-.18-.26 0-.36.18-.1.46-.1.64 0s.18.26 0 .36ZM150.1 254c-.17.1-.46.1-.64 0-.17-.1-.17-.27 0-.37a.7.7 0 0 1 .64 0c.18.1.18.27 0 .37Zm-4.79 2.76a.7.7 0 0 1-.63 0c-.18-.1-.18-.26 0-.37a.7.7 0 0 1 .63 0c.18.1.18.27 0 .37Zm-4.78 2.76a.7.7 0 0 1-.64 0c-.18-.1-.18-.26 0-.36.18-.1.46-.1.64 0 .17.1.17.26 0 .36Zm-4.79 2.77c-.18.1-.46.1-.64 0-.17-.1-.17-.27 0-.37a.7.7 0 0 1 .64 0c.18.1.18.27 0 .37Zm143.62-77.39c-.18.1-.46.1-.64 0s-.18-.26 0-.36a.7.7 0 0 1 .64 0c.17.1.17.26 0 .37Zm-4.79 2.77a.7.7 0 0 1-.64 0c-.17-.1-.17-.27 0-.37a.7.7 0 0 1 .64 0c.18.1.18.27 0 .37Zm-4.79 2.76a.7.7 0 0 1-.63 0c-.18-.1-.18-.26 0-.37a.7.7 0 0 1 .63 0c.18.1.18.27 0 .37ZM265 193.2c-.18.1-.47.1-.64 0-.18-.1-.18-.27 0-.37a.7.7 0 0 1 .64 0c.17.1.17.26 0 .37Zm-4.8 2.76a.7.7 0 0 1-.63 0c-.18-.1-.18-.27 0-.37a.7.7 0 0 1 .64 0c.18.1.18.27 0 .37Zm-4.78 2.76a.7.7 0 0 1-.64 0c-.17-.1-.17-.26 0-.37.18-.1.47-.1.64 0 .18.1.18.27 0 .37Zm-4.79 2.77a.7.7 0 0 1-.63 0c-.18-.1-.18-.27 0-.37a.7.7 0 0 1 .63 0c.18.1.18.27 0 .37Zm-4.78 2.76a.7.7 0 0 1-.64 0c-.18-.1-.18-.26 0-.37a.7.7 0 0 1 .64 0c.17.1.17.27 0 .37Zm-4.79 2.76a.7.7 0 0 1-.64 0c-.17-.1-.17-.26 0-.36a.7.7 0 0 1 .64 0c.18.1.18.26 0 .36Zm-4.79 2.77c-.17.1-.46.1-.64 0-.17-.1-.17-.27 0-.37a.7.7 0 0 1 .64 0c.18.1.18.27 0 .37Zm-4.78 2.76a.7.7 0 0 1-.64 0c-.18-.1-.18-.26 0-.37a.7.7 0 0 1 .64 0c.17.1.17.27 0 .37Zm-4.79 2.76a.7.7 0 0 1-.64 0c-.18-.1-.18-.26 0-.36a.7.7 0 0 1 .64 0c.18.1.18.26 0 .37Zm-4.79 2.77c-.17.1-.46.1-.64 0-.17-.1-.17-.27 0-.37a.7.7 0 0 1 .64 0c.18.1.18.27 0 .37Zm-4.79 2.76a.7.7 0 0 1-.63 0c-.18-.1-.18-.26 0-.37a.7.7 0 0 1 .63 0c.18.1.18.27 0 .37Zm-4.78 2.77a.7.7 0 0 1-.64 0c-.18-.1-.18-.27 0-.37a.7.7 0 0 1 .64 0c.17.1.17.27 0 .37Zm-4.79 2.76a.7.7 0 0 1-.64 0c-.17-.1-.17-.27 0-.37.18-.1.46-.1.64 0s.18.27 0 .37Zm-4.79 2.76a.7.7 0 0 1-.64 0c-.17-.1-.17-.26 0-.36a.7.7 0 0 1 .64 0c.18.1.18.26 0 .36Zm-4.79 2.77a.7.7 0 0 1-.63 0c-.18-.1-.18-.27 0-.37a.7.7 0 0 1 .63 0c.18.1.18.27 0 .37Zm-4.78 2.76a.7.7 0 0 1-.64 0c-.18-.1-.18-.27 0-.37.17-.1.46-.1.64 0 .17.1.17.27 0 .37Zm-4.79 2.77c-.18.1-.46.1-.64 0-.17-.1-.17-.27 0-.37a.7.7 0 0 1 .64 0c.18.1.18.26 0 .37Zm-4.79 2.76a.7.7 0 0 1-.64 0c-.17-.1-.17-.27 0-.37a.7.7 0 0 1 .64 0c.18.1.18.27 0 .37Zm-4.78 2.76a.7.7 0 0 1-.64 0c-.18-.1-.18-.26 0-.37.17-.1.46-.1.64 0 .17.1.17.27 0 .37Zm-4.79 2.76c-.18.1-.46.1-.64 0s-.18-.26 0-.36a.7.7 0 0 1 .64 0c.18.1.18.26 0 .37Zm-4.79 2.77a.7.7 0 0 1-.64 0c-.17-.1-.17-.27 0-.37a.7.7 0 0 1 .64 0c.18.1.18.27 0 .37Zm-4.79 2.76a.7.7 0 0 1-.63 0c-.18-.1-.18-.26 0-.36a.7.7 0 0 1 .63 0c.18.1.18.26 0 .36Zm-4.78 2.77c-.18.1-.47.1-.64 0-.18-.1-.18-.27 0-.37a.7.7 0 0 1 .64 0c.17.1.17.27 0 .37Zm-4.79 2.76a.7.7 0 0 1-.64 0c-.18-.1-.18-.26 0-.37a.7.7 0 0 1 .64 0c.18.1.18.27 0 .37Zm-4.79 2.76a.7.7 0 0 1-.64 0c-.17-.1-.17-.26 0-.36.18-.1.47-.1.64 0 .18.1.18.26 0 .36Zm-4.79 2.77a.7.7 0 0 1-.63 0c-.18-.1-.18-.27 0-.37a.7.7 0 0 1 .63 0c.18.1.18.27 0 .37Zm-4.78 2.76a.7.7 0 0 1-.64 0c-.18-.1-.18-.26 0-.37a.7.7 0 0 1 .64 0c.17.1.17.27 0 .37Zm143.61-77.38a.7.7 0 0 1-.63 0c-.18-.1-.18-.27 0-.37a.7.7 0 0 1 .63 0c.18.1.18.27 0 .37Zm-4.78 2.76a.7.7 0 0 1-.64 0c-.18-.1-.18-.26 0-.37.18-.1.46-.1.64 0 .17.1.17.27 0 .37Zm-4.79 2.77c-.18.1-.46.1-.64 0-.17-.1-.17-.27 0-.37a.7.7 0 0 1 .64 0c.18.1.18.26 0 .37Zm-4.79 2.76a.7.7 0 0 1-.63 0c-.18-.1-.18-.27 0-.37a.7.7 0 0 1 .63 0c.18.1.18.27 0 .37Zm-4.78 2.76a.7.7 0 0 1-.64 0c-.18-.1-.18-.26 0-.37.17-.1.46-.1.64 0 .17.1.17.27 0 .37Zm-4.8 2.77c-.17.1-.45.1-.63 0s-.18-.27 0-.37a.7.7 0 0 1 .64 0c.18.1.18.27 0 .37Zm-4.78 2.76a.7.7 0 0 1-.64 0c-.17-.1-.17-.26 0-.37a.7.7 0 0 1 .64 0c.18.1.18.27 0 .37Zm-4.79 2.76a.7.7 0 0 1-.63 0c-.18-.1-.18-.26 0-.36a.7.7 0 0 1 .63 0c.18.1.18.26 0 .36Zm-4.78 2.77c-.18.1-.47.1-.64 0-.18-.1-.18-.27 0-.37a.7.7 0 0 1 .64 0c.17.1.17.27 0 .37Zm-4.79 2.76a.7.7 0 0 1-.64 0c-.17-.1-.17-.26 0-.37a.7.7 0 0 1 .64 0c.18.1.18.27 0 .37Zm-4.79 2.76a.7.7 0 0 1-.64 0c-.17-.1-.17-.26 0-.36a.7.7 0 0 1 .64 0c.18.1.18.26 0 .37Zm-4.78 2.77c-.18.1-.47.1-.64 0-.18-.1-.18-.27 0-.37a.7.7 0 0 1 .64 0c.17.1.17.27 0 .37Zm-4.79 2.76a.7.7 0 0 1-.64 0c-.18-.1-.18-.26 0-.37a.7.7 0 0 1 .64 0c.18.1.18.27 0 .37Zm-4.79 2.77a.7.7 0 0 1-.64 0c-.17-.1-.17-.27 0-.37a.7.7 0 0 1 .64 0c.18.1.18.27 0 .37Zm-4.79 2.76a.7.7 0 0 1-.63 0c-.18-.1-.18-.27 0-.37a.7.7 0 0 1 .63 0c.18.1.18.27 0 .37Zm-4.78 2.76a.7.7 0 0 1-.64 0c-.18-.1-.18-.26 0-.36a.7.7 0 0 1 .64 0c.17.1.17.26 0 .36Zm-4.79 2.77a.7.7 0 0 1-.64 0c-.17-.1-.17-.27 0-.37a.7.7 0 0 1 .64 0c.18.1.18.27 0 .37Zm-4.79 2.76a.7.7 0 0 1-.64 0c-.17-.1-.17-.27 0-.37.18-.1.47-.1.64 0 .18.1.18.27 0 .37Zm-4.79 2.77a.7.7 0 0 1-.63 0c-.18-.1-.18-.27 0-.37a.7.7 0 0 1 .63 0c.18.1.18.26 0 .37Zm-4.78 2.76a.7.7 0 0 1-.64 0c-.18-.1-.18-.27 0-.37a.7.7 0 0 1 .64 0c.17.1.17.27 0 .37Zm-4.79 2.76a.7.7 0 0 1-.64 0c-.17-.1-.17-.26 0-.37.18-.1.46-.1.64 0s.18.27 0 .37Zm-4.79 2.76c-.17.1-.46.1-.64 0-.17-.1-.17-.26 0-.36a.7.7 0 0 1 .64 0c.18.1.18.26 0 .37Zm-4.78 2.77a.7.7 0 0 1-.64 0c-.18-.1-.18-.27 0-.37a.7.7 0 0 1 .64 0c.17.1.17.27 0 .37Zm-4.79 2.76a.7.7 0 0 1-.64 0c-.18-.1-.18-.26 0-.36.18-.1.46-.1.64 0s.18.26 0 .36Zm-4.79 2.77c-.18.1-.46.1-.64 0-.17-.1-.17-.27 0-.37a.7.7 0 0 1 .64 0c.18.1.18.27 0 .37Zm-4.79 2.76a.7.7 0 0 1-.63 0c-.18-.1-.18-.26 0-.37a.7.7 0 0 1 .63 0c.18.1.18.27 0 .37Zm-4.78 2.76a.7.7 0 0 1-.64 0c-.18-.1-.18-.26 0-.36.18-.1.46-.1.64 0 .17.1.17.26 0 .36Zm-4.79 2.77c-.18.1-.46.1-.64 0s-.18-.27 0-.37a.7.7 0 0 1 .64 0c.18.1.18.27 0 .37Zm-4.79 2.76a.7.7 0 0 1-.64 0c-.17-.1-.17-.26 0-.37a.7.7 0 0 1 .64 0c.18.1.18.27 0 .37Zm-4.79 2.77a.7.7 0 0 1-.63 0c-.18-.1-.18-.27 0-.37a.7.7 0 0 1 .63 0c.18.1.18.26 0 .37Z"/>
  </mask>
  <g mask="url(#a)">
    <path fill="#0086BF" fill-rule="evenodd" d="m117 123.8 36.65 25.12 37.8-21.67-2.8-28.58h105.39v175.66H151.39l24.16-20.06.92-35.96-8.53-6-1.61-4.84v-1.84h-3.23l-2.54 1.15-7.37-3.69-7.15-4.84-8.07 2.08-1.84 2.76-5.53 2.54-3.23-1.38-3.69 1.38-1.84 6.69-8.76 3.68v37.58l34.36 20.75H10.03v-66.95l.92 3.32 19.14 13.14 46.8-31.12L74.8 145l-35.5-26.5-29.28 20.27v-40.1h109.45L117 123.79Zm2.48-25.13.05-.47V80.68l21.67-16.13h19.83l25.35 11.06 2.27 23.06h-69.17Zm-109.45 40.1-6 4.16v42.87l6 21.58v-68.6Zm137.4 135.56 2.3 1.38 1.67-1.38h-3.96Zm89.67-77.92 20.28 14.3 28.59-14.3 5.07-25.13-2.07-20.75-7.15-10.83-26.51-12.45-31.35 20.06-.7 37.34-.68 3.69 14.52 8.07Z" clip-rule="evenodd"/>
  </g>
  <path fill="#FFB500" d="M44.86 210.44 15.2 193.33l-.01-34.21 29.66 17.11z" opacity=".3"/>
  <path fill="#FFB500" d="M44.82 210.44v-34.2l29.67-17.12-.01 34.2z"/>
  <path fill="#FFB500" d="m74.56 159.12-29.68 17.1-29.68-17.1L44.88 142z" opacity=".5"/>
  <path fill="#FFB500" fill-rule="evenodd" d="M36.57 151.88H23.6v6.75c0 .95.64 1.9 1.9 2.62a10.15 10.15 0 0 0 9.17 0c1.25-.72 1.89-1.67 1.9-2.62v-6.75Z" clip-rule="evenodd" opacity=".7"/>
  <path fill="#FFB500" d="M34.63 149.22c2.53 1.45 2.53 3.81 0 5.27a10.1 10.1 0 0 1-9.14 0c-2.52-1.46-2.52-3.82 0-5.27a10.1 10.1 0 0 1 9.14 0Z"/>
  <path fill="#FFB500" fill-rule="evenodd" d="M51.42 143.92H38.46v6.73c0 .95.64 1.9 1.9 2.63a10.15 10.15 0 0 0 9.16 0c1.26-.73 1.9-1.68 1.9-2.63v-6.73Z" clip-rule="evenodd" opacity=".7"/>
  <path fill="#FFB500" d="M49.5 141.25c2.52 1.46 2.52 3.82 0 5.28a10.1 10.1 0 0 1-9.15 0c-2.52-1.46-2.52-3.82 0-5.28a10.1 10.1 0 0 1 9.14 0Z"/>
  <path fill="#FFB500" fill-rule="evenodd" d="M51.42 159.93H38.46v6.73c0 .96.64 1.9 1.9 2.63a10.14 10.14 0 0 0 9.16 0c1.26-.72 1.9-1.67 1.9-2.63v-6.72Z" clip-rule="evenodd" opacity=".7"/>
  <path fill="#FFB500" d="M49.5 157.26c2.52 1.46 2.52 3.82 0 5.28a10.1 10.1 0 0 1-9.15 0c-2.52-1.46-2.52-3.82 0-5.28a10.1 10.1 0 0 1 9.14 0Z"/>
  <path fill="#FFB500" fill-rule="evenodd" d="M66.2 151.38H53.23v6.73c.01.95.64 1.9 1.9 2.63a10.15 10.15 0 0 0 9.17 0c1.26-.73 1.89-1.68 1.9-2.63v-6.73Z" clip-rule="evenodd" opacity=".7"/>
  <path fill="#FFB500" d="M64.27 148.71c2.52 1.46 2.52 3.82 0 5.28a10.1 10.1 0 0 1-9.14 0c-2.53-1.46-2.53-3.82 0-5.28a10.1 10.1 0 0 1 9.14 0Z"/>
  <path fill="#FFB500" d="m254 70.28-29.66-17.11V18.96l29.65 17.11z" opacity=".3"/>
  <path fill="#FFB500" d="m253.96 70.29.01-34.22 29.66-17.11v34.2z"/>
  <path fill="#FFB500" d="m283.7 18.95-29.68 17.12-29.68-17.12 29.68-17.1z" opacity=".5"/>
  <path fill="#FFB500" fill-rule="evenodd" d="M245.7 11.72h-12.96v6.74c.01.95.64 1.9 1.9 2.62a10.14 10.14 0 0 0 9.17 0c1.26-.72 1.89-1.67 1.9-2.62v-6.74Z" clip-rule="evenodd" opacity=".7"/>
  <path fill="#FFB500" d="M243.78 9.06c2.52 1.45 2.52 3.82 0 5.27a10.1 10.1 0 0 1-9.14 0c-2.53-1.45-2.53-3.82 0-5.27a10.1 10.1 0 0 1 9.14 0Z"/>
  <path fill="#FFB500" fill-rule="evenodd" d="M260.56 3.76H247.6v6.73c0 .95.64 1.9 1.9 2.63a10.15 10.15 0 0 0 9.17 0c1.25-.73 1.89-1.68 1.9-2.63V3.76Z" clip-rule="evenodd" opacity=".7"/>
  <path fill="#FFB500" d="M258.63 1.1c2.53 1.45 2.53 3.81 0 5.27a10.1 10.1 0 0 1-9.14 0c-2.52-1.46-2.52-3.82 0-5.28a10.1 10.1 0 0 1 9.14 0Z"/>
  <path fill="#FFB500" fill-rule="evenodd" d="M260.56 19.77H247.6v6.73c0 .96.64 1.9 1.9 2.63a10.15 10.15 0 0 0 9.17 0c1.25-.73 1.89-1.67 1.9-2.63v-6.73Z" clip-rule="evenodd" opacity=".7"/>
  <path fill="#FFB500" d="M258.63 17.1c2.53 1.46 2.53 3.82 0 5.28a10.1 10.1 0 0 1-9.14 0c-2.52-1.46-2.52-3.82 0-5.28a10.1 10.1 0 0 1 9.14 0Z"/>
  <path fill="#FFB500" fill-rule="evenodd" d="M275.34 11.22h-12.97v6.73c.01.95.64 1.9 1.9 2.63a10.14 10.14 0 0 0 9.17 0c1.26-.73 1.9-1.68 1.9-2.63v-6.73Z" clip-rule="evenodd" opacity=".7"/>
  <path fill="#FFB500" d="M273.4 8.55c2.53 1.46 2.53 3.82 0 5.28a10.1 10.1 0 0 1-9.13 0c-2.53-1.46-2.53-3.82 0-5.28a10.1 10.1 0 0 1 9.14 0Z"/>
  <path fill="#FFB500" d="m254.18 206.3-29.66-17.12-.01-34.21 29.66 17.11z" opacity=".3"/>
  <path fill="#FFB500" d="M254.14 206.3v-34.22l29.67-17.11-.01 34.21z"/>
  <path fill="#FFB500" d="m283.88 154.97-29.68 17.1-29.68-17.1 29.68-17.12z" opacity=".5"/>
  <path fill="#FFB500" fill-rule="evenodd" d="M245.88 147.74h-12.96v6.73c0 .95.64 1.9 1.9 2.62a10.14 10.14 0 0 0 9.17 0c1.25-.72 1.89-1.67 1.9-2.62v-6.73Z" clip-rule="evenodd" opacity=".7"/>
  <path fill="#FFB500" d="M243.95 145.07c2.53 1.45 2.53 3.82 0 5.27a10.1 10.1 0 0 1-9.14 0c-2.52-1.45-2.52-3.82 0-5.27a10.1 10.1 0 0 1 9.14 0Z"/>
  <path fill="#FFB500" fill-rule="evenodd" d="M260.74 139.77h-12.96v6.73c0 .96.64 1.9 1.9 2.63a10.14 10.14 0 0 0 9.16 0c1.26-.73 1.9-1.67 1.9-2.63v-6.73Z" clip-rule="evenodd" opacity=".7"/>
  <path fill="#FFB500" d="M258.81 137.1c2.52 1.46 2.52 3.82 0 5.28a10.1 10.1 0 0 1-9.14 0c-2.52-1.46-2.52-3.82 0-5.28a10.11 10.11 0 0 1 9.14 0Z"/>
  <path fill="#FFB500" fill-rule="evenodd" d="M260.74 155.78h-12.96v6.73c0 .96.64 1.9 1.9 2.63a10.15 10.15 0 0 0 9.16 0c1.26-.72 1.9-1.67 1.9-2.63v-6.73Z" clip-rule="evenodd" opacity=".7"/>
  <path fill="#FFB500" d="M258.81 153.12c2.52 1.45 2.52 3.81 0 5.27a10.1 10.1 0 0 1-9.14 0c-2.52-1.46-2.52-3.82 0-5.27a10.1 10.1 0 0 1 9.14 0Z"/>
  <path fill="#FFB500" fill-rule="evenodd" d="M275.52 147.23h-12.97v6.74c0 .95.64 1.9 1.9 2.62a10.14 10.14 0 0 0 9.17 0c1.25-.72 1.89-1.67 1.9-2.63v-6.72Z" clip-rule="evenodd" opacity=".7"/>
  <path fill="#FFB500" d="M273.58 144.56c2.53 1.46 2.53 3.82 0 5.28a10.1 10.1 0 0 1-9.14 0c-2.52-1.46-2.52-3.82 0-5.28a10.1 10.1 0 0 1 9.14 0Z"/>
  <path fill="#FFB500" d="m144.91 268.54-29.66-17.12-.01-34.21 29.66 17.11z" opacity=".3"/>
  <path fill="#FFB500" d="M144.87 268.54v-34.22l29.67-17.11-.01 34.21z"/>
  <path fill="#FFB500" d="m174.61 217.2-29.68 17.12-29.68-17.11 29.68-17.11z" opacity=".5"/>
  <path fill="#FFB500" fill-rule="evenodd" d="M136.61 209.98h-12.96v6.72c0 .95.64 1.9 1.9 2.63a10.14 10.14 0 0 0 9.17 0c1.25-.73 1.89-1.68 1.9-2.63v-6.72Z" clip-rule="evenodd" opacity=".7"/>
  <path fill="#FFB500" d="M134.68 207.3c2.53 1.47 2.53 3.83 0 5.28a10.1 10.1 0 0 1-9.14 0c-2.52-1.45-2.52-3.81 0-5.27a10.1 10.1 0 0 1 9.14 0Z"/>
  <path fill="#FFB500" fill-rule="evenodd" d="M151.47 202.01h-12.96v6.74c0 .95.64 1.9 1.9 2.62a10.14 10.14 0 0 0 9.16 0c1.26-.72 1.9-1.67 1.9-2.62V202Z" clip-rule="evenodd" opacity=".7"/>
  <path fill="#FFB500" d="M149.54 199.34c2.53 1.46 2.53 3.82 0 5.28a10.1 10.1 0 0 1-9.14 0c-2.52-1.46-2.52-3.82 0-5.28a10.1 10.1 0 0 1 9.14 0Z"/>
  <path fill="#FFB500" fill-rule="evenodd" d="M151.47 218.03h-12.96v6.72c0 .95.64 1.9 1.9 2.62a10.15 10.15 0 0 0 9.16 0c1.26-.72 1.9-1.67 1.9-2.62v-6.73Z" clip-rule="evenodd" opacity=".7"/>
  <path fill="#FFB500" d="M149.54 215.36c2.53 1.45 2.53 3.82 0 5.27a10.1 10.1 0 0 1-9.14 0c-2.52-1.45-2.52-3.82 0-5.27a10.1 10.1 0 0 1 9.14 0Z"/>
  <path fill="#FFB500" fill-rule="evenodd" d="M166.25 209.47h-12.97v6.74c0 .95.64 1.9 1.9 2.62a10.14 10.14 0 0 0 9.17 0c1.25-.72 1.89-1.67 1.9-2.62v-6.74Z" clip-rule="evenodd" opacity=".7"/>
  <path fill="#FFB500" d="M164.31 206.8c2.53 1.46 2.53 3.82 0 5.28a10.1 10.1 0 0 1-9.14 0c-2.52-1.46-2.52-3.82 0-5.27a10.1 10.1 0 0 1 9.14 0Z"/>
  <path fill="#FFB500" d="m153.21 146.82-29.66-17.12-.01-34.2 29.66 17.1z" opacity=".3"/>
  <path fill="#FFB500" d="m153.16 146.82.02-34.21 29.66-17.12-.01 34.21z"/>
  <path fill="#FFB500" d="m182.9 95.49-29.67 17.11-29.68-17.11 29.68-17.11z" opacity=".5"/>
  <path fill="#FFB500" fill-rule="evenodd" d="M144.91 88.26h-12.96v6.73c0 .95.64 1.9 1.9 2.63a10.14 10.14 0 0 0 9.16 0c1.26-.73 1.9-1.68 1.9-2.63v-6.73Z" clip-rule="evenodd" opacity=".7"/>
  <path fill="#FFB500" d="M142.98 85.6c2.53 1.45 2.53 3.81 0 5.27a10.1 10.1 0 0 1-9.14 0c-2.52-1.46-2.52-3.82 0-5.28a10.1 10.1 0 0 1 9.14 0Z"/>
  <path fill="#FFB500" fill-rule="evenodd" d="M159.77 80.3h-12.96v6.73c0 .95.64 1.9 1.9 2.62a10.15 10.15 0 0 0 9.16 0c1.26-.72 1.9-1.67 1.9-2.62V80.3Z" clip-rule="evenodd" opacity=".7"/>
  <path fill="#FFB500" d="M157.84 77.63c2.52 1.45 2.52 3.82 0 5.27a10.1 10.1 0 0 1-9.14 0c-2.52-1.45-2.52-3.82 0-5.27a10.1 10.1 0 0 1 9.14 0Z"/>
  <path fill="#FFB500" fill-rule="evenodd" d="M159.77 96.3h-12.96v6.75c0 .95.64 1.9 1.9 2.63a10.15 10.15 0 0 0 9.16 0c1.26-.73 1.9-1.68 1.9-2.63v-6.74Z" clip-rule="evenodd" opacity=".7"/>
  <path fill="#FFB500" d="M157.84 93.64c2.52 1.46 2.52 3.82 0 5.27a10.1 10.1 0 0 1-9.14 0c-2.52-1.45-2.52-3.81 0-5.27a10.1 10.1 0 0 1 9.14 0Z"/>
  <path fill="#FFB500" fill-rule="evenodd" d="M174.54 87.76h-12.96v6.73c0 .95.64 1.9 1.9 2.62a10.14 10.14 0 0 0 9.17 0c1.25-.72 1.89-1.67 1.9-2.62v-6.73Z" clip-rule="evenodd" opacity=".7"/>
  <path fill="#FFB500" d="M172.61 85.09c2.53 1.46 2.53 3.82 0 5.27a10.1 10.1 0 0 1-9.14 0c-2.52-1.45-2.52-3.81 0-5.27a10.1 10.1 0 0 1 9.14 0Z"/>
  <path stroke="#0086BF" stroke-dasharray="10 10" d="M254.07 129.63V74.3"/>
</svg>
