<svg width="281" height="238" viewBox="0 0 281 238" fill="none" xmlns="http://www.w3.org/2000/svg">
<g opacity="0.5">
<rect opacity="0.7" width="63.9062" height="31.9531" transform="matrix(0.966682 -0.255979 0.709182 0.705025 152.293 151.103)" fill="#FFB500"/>
</g>
<g opacity="0.5">
<rect width="31.8461" height="31.846" transform="matrix(-0.709888 -0.707879 0.256722 -0.963878 166.732 204.331)" fill="#FFB500"/>
</g>
<path d="M236.651 157.231L228.387 187.889L166.71 204.318L174.974 173.66L236.651 157.231Z" fill="#FFB500"/>
<path opacity="0.7" fill-rule="evenodd" clip-rule="evenodd" d="M177.318 148.508L165.621 145.374L164.006 151.399L164.002 151.415L164.002 151.415C163.781 152.27 164.123 153.275 165.084 154.23C167.017 156.151 170.72 157.144 173.355 156.446C174.664 156.099 175.463 155.4 175.699 154.549L175.699 154.549L175.703 154.533L177.318 148.508Z" fill="#FFB500"/>
<path d="M176.217 145.647C178.144 147.564 177.576 149.684 174.949 150.381C172.321 151.078 168.629 150.089 166.702 148.171C164.775 146.254 165.343 144.134 167.971 143.437C170.598 142.74 174.29 143.729 176.217 145.647Z" fill="#FFB500"/>
<path opacity="0.7" fill-rule="evenodd" clip-rule="evenodd" d="M194.943 143.314L183.246 140.179L181.631 146.205L181.627 146.221L181.627 146.221C181.406 147.076 181.748 148.081 182.709 149.036C184.642 150.957 188.345 151.95 190.98 151.252C192.289 150.905 193.088 150.206 193.324 149.355L193.324 149.355L193.328 149.339L194.943 143.314Z" fill="#FFB500"/>
<path d="M193.842 140.453C195.769 142.37 195.201 144.49 192.574 145.187C189.946 145.884 186.254 144.894 184.327 142.977C182.4 141.06 182.968 138.94 185.596 138.243C188.223 137.546 191.915 138.535 193.842 140.453Z" fill="#FFB500"/>
<path opacity="0.7" fill-rule="evenodd" clip-rule="evenodd" d="M211.7 137.726L200.003 134.592L198.388 140.617L198.384 140.633L198.384 140.633C198.163 141.488 198.505 142.493 199.466 143.448C201.399 145.369 205.102 146.362 207.737 145.664C209.046 145.317 209.845 144.618 210.081 143.767L210.081 143.767L210.085 143.752L211.7 137.726Z" fill="#FFB500"/>
<path d="M210.599 134.865C212.526 136.782 211.958 138.902 209.331 139.599C206.703 140.296 203.011 139.307 201.084 137.389C199.157 135.472 199.725 133.352 202.352 132.655C204.98 131.958 208.672 132.947 210.599 134.865Z" fill="#FFB500"/>
<path opacity="0.7" fill-rule="evenodd" clip-rule="evenodd" d="M188.034 160.006L176.338 156.872L174.723 162.898L174.719 162.914L174.719 162.914C174.497 163.769 174.84 164.773 175.801 165.728C177.734 167.65 181.437 168.642 184.072 167.944C185.381 167.598 186.18 166.899 186.416 166.048L186.416 166.048L186.419 166.036C186.42 166.033 186.42 166.031 186.421 166.028L188.034 160.006Z" fill="#FFB500"/>
<path d="M186.934 157.145C188.861 159.063 188.293 161.182 185.665 161.879C183.038 162.576 179.346 161.587 177.419 159.67C175.492 157.752 176.06 155.633 178.687 154.936C181.315 154.239 185.007 155.228 186.934 157.145Z" fill="#FFB500"/>
<path opacity="0.7" fill-rule="evenodd" clip-rule="evenodd" d="M205.659 154.812L193.963 151.678L192.348 157.704L192.344 157.72L192.344 157.72C192.122 158.574 192.465 159.579 193.426 160.534C195.359 162.456 199.062 163.448 201.697 162.75C203.006 162.404 203.805 161.705 204.041 160.854L204.041 160.854L204.045 160.839C204.045 160.838 204.045 160.838 204.045 160.837L205.659 154.812Z" fill="#FFB500"/>
<path d="M204.559 151.951C206.486 153.869 205.918 155.988 203.29 156.685C200.663 157.382 196.971 156.393 195.044 154.476C193.117 152.558 193.685 150.439 196.312 149.742C198.94 149.044 202.632 150.034 204.559 151.951Z" fill="#FFB500"/>
<path opacity="0.7" fill-rule="evenodd" clip-rule="evenodd" d="M222.416 149.224L210.72 146.09L209.105 152.116L209.101 152.131L209.101 152.131C208.879 152.986 209.222 153.991 210.183 154.946C212.116 156.868 215.819 157.86 218.453 157.162C219.763 156.815 220.562 156.117 220.797 155.265L220.798 155.265L220.802 155.25L222.416 149.224Z" fill="#FFB500"/>
<path d="M221.316 146.363C223.243 148.281 222.675 150.4 220.047 151.097C217.42 151.794 213.728 150.805 211.801 148.887C209.874 146.97 210.442 144.85 213.069 144.153C215.697 143.456 219.389 144.446 221.316 146.363Z" fill="#FFB500"/>
<g opacity="0.5">
<rect opacity="0.7" width="63.9062" height="31.9531" transform="matrix(0.709182 -0.705025 0.966682 0.255979 29.4106 55.7979)" fill="#FFB500"/>
</g>
<g opacity="0.5">
<rect width="31.8461" height="31.846" transform="matrix(-0.968721 -0.258097 -0.259611 -0.963103 68.5288 94.6753)" fill="#FFB500"/>
</g>
<path d="M105.53 18.9263L113.702 49.6092L68.5028 94.6756L60.3307 63.9927L105.53 18.9263Z" fill="#FFB500"/>
<path opacity="0.7" fill-rule="evenodd" clip-rule="evenodd" d="M49.785 41.0383L38.0884 44.1724L39.703 50.1982L39.7072 50.2139L39.7073 50.2139C39.9428 51.0651 40.742 51.7639 42.0513 52.1106C44.6862 52.8083 48.3891 51.8161 50.3221 49.8945C51.2827 48.9395 51.6254 47.9347 51.4037 47.0798L51.4038 47.0798L51.3996 47.0641L49.785 41.0383Z" fill="#FFB500"/>
<path d="M47.4013 39.111C50.0288 39.8081 50.5967 41.9275 48.6697 43.845C46.7428 45.7624 43.0507 46.7517 40.4232 46.0546C37.7957 45.3576 37.2278 43.2381 39.1547 41.3207C41.0817 39.4032 44.7738 38.4139 47.4013 39.111Z" fill="#FFB500"/>
<path opacity="0.7" fill-rule="evenodd" clip-rule="evenodd" d="M62.4515 27.7275L50.7549 30.8616L52.3695 36.8874L52.3737 36.9031L52.3738 36.9031C52.6093 37.7543 53.4085 38.4531 54.7178 38.7998C57.3527 39.4975 61.0556 38.5053 62.9886 36.5837C63.9492 35.6287 64.2919 34.6239 64.0702 33.769L64.0703 33.769L64.0661 33.7533L62.4515 27.7275Z" fill="#FFB500"/>
<path d="M60.0678 25.8002C62.6953 26.4973 63.2632 28.6168 61.3362 30.5342C59.4093 32.4516 55.7172 33.4409 53.0897 32.7439C50.4622 32.0468 49.8943 29.9273 51.8212 28.0099C53.7482 26.0924 57.4403 25.1031 60.0678 25.8002Z" fill="#FFB500"/>
<path opacity="0.7" fill-rule="evenodd" clip-rule="evenodd" d="M74.1693 14.5097L62.4727 17.6438L64.0873 23.6697L64.0915 23.6853L64.0915 23.6853C64.327 24.5365 65.1262 25.2353 66.4356 25.5821C69.0704 26.2798 72.7734 25.2876 74.7064 23.3659C75.667 22.411 76.0097 21.4062 75.788 20.5513L75.7881 20.5512L75.7839 20.5356L74.1693 14.5097Z" fill="#FFB500"/>
<path d="M71.7855 12.5824C74.413 13.2795 74.981 15.399 73.054 17.3164C71.1271 19.2339 67.435 20.2232 64.8075 19.5261C62.18 18.829 61.612 16.7095 63.539 14.7921C65.4659 12.8747 69.158 11.8854 71.7855 12.5824Z" fill="#FFB500"/>
<path opacity="0.7" fill-rule="evenodd" clip-rule="evenodd" d="M64.8157 45.6376L53.1191 48.7717L54.7338 54.7976L54.738 54.8133L54.738 54.8133C54.9735 55.6644 55.7727 56.3633 57.0821 56.71C59.7169 57.4077 63.4199 56.4155 65.3528 54.4939C66.3135 53.5389 66.6562 52.5341 66.4345 51.6792L66.4346 51.6792L66.4314 51.6673C66.4307 51.6648 66.43 51.6622 66.4294 51.6597L64.8157 45.6376Z" fill="#FFB500"/>
<path d="M62.432 43.7104C65.0595 44.4074 65.6274 46.5269 63.7005 48.4443C61.7735 50.3618 58.0814 51.3511 55.4539 50.654C52.8264 49.9569 52.2585 47.8375 54.1855 45.92C56.1124 44.0026 59.8045 43.0133 62.432 43.7104Z" fill="#FFB500"/>
<path opacity="0.7" fill-rule="evenodd" clip-rule="evenodd" d="M77.4822 32.3268L65.7856 35.4609L67.4003 41.4868L67.4045 41.5025L67.4045 41.5025C67.64 42.3536 68.4392 43.0525 69.7486 43.3992C72.3834 44.0969 76.0864 43.1047 78.0194 41.1831C78.98 40.2281 79.3227 39.2233 79.101 38.3684L79.1011 38.3684L79.0971 38.3536C79.097 38.353 79.0968 38.3524 79.0966 38.3518L77.4822 32.3268Z" fill="#FFB500"/>
<path d="M75.0985 30.3996C77.726 31.0966 78.2939 33.2161 76.367 35.1336C74.4401 37.051 70.7479 38.0403 68.1204 37.3432C65.4929 36.6461 64.925 34.5267 66.852 32.6092C68.7789 30.6918 72.471 29.7025 75.0985 30.3996Z" fill="#FFB500"/>
<path opacity="0.7" fill-rule="evenodd" clip-rule="evenodd" d="M89.2 19.1091L77.5034 22.2432L79.118 28.269L79.1222 28.2847L79.1223 28.2847C79.3578 29.1359 80.157 29.8347 81.4664 30.1814C84.1012 30.8791 87.8042 29.8869 89.7371 27.9653C90.6977 27.0103 91.0404 26.0055 90.8188 25.1506L90.8188 25.1506L90.8146 25.1349L89.2 19.1091Z" fill="#FFB500"/>
<path d="M86.8163 17.1818C89.4438 17.8789 90.0117 19.9983 88.0848 21.9158C86.1578 23.8332 82.4657 24.8225 79.8382 24.1254C77.2107 23.4284 76.6428 21.3089 78.5697 19.3915C80.4967 17.474 84.1888 16.4847 86.8163 17.1818Z" fill="#FFB500"/>
<mask id="mask0_1326_87182" style="mask-type:alpha" maskUnits="userSpaceOnUse" x="0" y="33" width="281" height="157">
<path fill-rule="evenodd" clip-rule="evenodd" d="M114.733 33.0674H173.997V47.6686H114.733V33.0674ZM29.273 63.9875H0.5V156.748H6.08296V171.35H32.7087V79.4479H29.273V63.9875ZM280.5 60.9815H233.69V75.5828H240.562V154.172H280.5V63.9875H280.5V60.9815ZM103.997 175.215H143.936V189.816H103.997V175.215Z" fill="#D9D9D9"/>
</mask>
<g mask="url(#mask0_1326_87182)">
<path d="M210.272 53.7021C213.568 55.1166 216.771 56.6356 219.869 58.2589L219.457 58.5207C220.976 59.3167 222.469 60.1379 223.935 60.9843C225.402 61.8308 226.824 62.6929 228.203 63.5697L228.656 63.3321C231.468 65.1204 234.1 66.9697 236.55 68.8721L236.058 69.0831C238.538 71.0081 240.831 72.9877 242.938 75.0138L243.463 74.8318C245.608 76.8948 247.562 79.0057 249.323 81.156L248.77 81.3071C250.54 83.4684 252.116 85.6697 253.496 87.9021L254.073 87.7832C255.47 90.0429 256.669 92.3342 257.669 94.6484L257.075 94.734C258.075 97.048 258.876 99.385 259.477 101.736L260.082 101.684C260.688 104.053 261.091 106.435 261.293 108.822L260.682 108.84C260.883 111.217 260.883 113.6 260.682 115.978L261.293 115.995C261.091 118.382 260.688 120.765 260.082 123.133L259.477 123.082C258.876 125.432 258.075 127.769 257.075 130.083L257.669 130.169C256.669 132.483 255.47 134.775 254.073 137.034L253.496 136.915C252.116 139.148 250.54 141.349 248.77 143.51L249.323 143.661C247.562 145.812 245.608 147.923 243.463 149.986L242.938 149.804C240.831 151.83 238.538 153.809 236.058 155.734L236.55 155.945C234.1 157.848 231.468 159.697 228.656 161.485L228.203 161.248C226.824 162.124 225.402 162.987 223.935 163.833C222.586 164.612 221.213 165.37 219.819 166.106L220.233 166.367C217.394 167.866 214.465 169.277 211.457 170.6L211.086 170.319C208.044 171.657 204.922 172.904 201.729 174.061L202.054 174.36C198.805 175.537 195.484 176.621 192.101 177.611L191.824 177.295C188.424 178.291 184.961 179.191 181.449 179.997L181.675 180.326C178.119 181.142 174.512 181.861 170.865 182.483L170.692 182.144C167.044 182.767 163.357 183.292 159.643 183.72L159.763 184.067C156.017 184.499 152.245 184.832 148.457 185.067L148.392 184.715C144.616 184.95 140.825 185.085 137.032 185.123L137.042 185.476C133.229 185.514 129.414 185.453 125.609 185.293L125.654 184.941C121.872 184.782 118.1 184.524 114.35 184.169L114.251 184.518C110.494 184.162 106.76 183.708 103.06 183.156L103.214 182.814C101.378 182.54 99.5516 182.242 97.7351 181.92C96.1103 181.631 94.4936 181.324 92.8862 180.996L92.6826 181.33C89.4667 180.675 86.2875 179.944 83.1535 179.135L83.4034 178.812C80.3088 178.013 77.2586 177.139 74.2611 176.189L73.9664 176.499C70.9836 175.553 68.0527 174.533 65.1821 173.438L65.5197 173.143C62.6977 172.067 59.9341 170.919 57.2369 169.697L56.859 169.976C54.188 168.766 51.5818 167.486 49.0479 166.136L49.4633 165.876C48.218 165.212 46.9902 164.531 45.7808 163.833C44.3146 162.987 42.892 162.124 41.5133 161.248L41.0598 161.485C38.2478 159.697 35.6167 157.848 33.1664 155.945L33.6579 155.734C31.1786 153.809 28.8855 151.83 26.7784 149.804L26.2534 149.986C24.108 147.923 22.1546 145.812 20.3931 143.661L20.9467 143.51C19.1763 141.349 17.6007 139.148 16.22 136.915L15.6433 137.034C14.2458 134.775 13.047 132.483 12.0469 130.169L12.6411 130.083C11.641 127.769 10.8405 125.432 10.2397 123.082L9.63388 123.133C9.0285 120.765 8.62485 118.382 8.42293 115.995L9.03459 115.978C8.83346 113.6 8.83346 111.217 9.03459 108.84L8.42293 108.822C8.62485 106.435 9.02849 104.053 9.63388 101.684L10.2397 101.736C10.8405 99.385 11.641 97.0481 12.641 94.734L12.0469 94.6484C13.047 92.3343 14.2458 90.0429 15.6433 87.7833L16.22 87.9021C17.6007 85.6697 19.1763 83.4684 20.9467 81.3071L20.3931 81.156C22.1546 79.0057 24.108 76.8948 26.2534 74.8318L26.7784 75.0138C28.8854 72.9877 31.1786 71.0081 33.6579 69.0831L33.1664 68.8721C35.6167 66.9697 38.2478 65.1204 41.0598 63.3321L41.5133 63.5697C42.892 62.6929 44.3145 61.8308 45.7808 60.9843C47.247 60.1379 48.7404 59.3167 50.2592 58.5207L49.8476 58.2589C52.9453 56.6356 56.1486 55.1166 59.444 53.7021L59.8094 53.9858C63.1439 52.5545 66.573 51.2307 70.0826 50.0143L69.7674 49.7112C73.3408 48.4726 76.9974 47.3449 80.7221 46.3281L80.9839 46.6476C84.7277 45.6256 88.5407 44.716 92.4078 43.9189L92.2019 43.586C96.116 42.7792 100.085 42.0871 104.094 41.5098L104.242 41.8528C108.25 41.2754 112.298 40.8133 116.37 40.4665L116.281 40.1167C120.384 39.7672 124.511 39.5342 128.646 39.4177L128.676 39.7708C132.795 39.6546 136.922 39.6547 141.04 39.7708L141.07 39.4177C145.205 39.5342 149.332 39.7673 153.435 40.1167L153.346 40.4665C157.418 40.8133 161.466 41.2754 165.474 41.8528L165.623 41.5098C169.631 42.0871 173.6 42.7792 177.514 43.586L177.308 43.9189C181.175 44.716 184.989 45.6256 188.732 46.6476L188.994 46.328C192.719 47.3449 196.375 48.4726 199.949 49.7112L199.634 50.0143C203.143 51.2307 206.572 52.5545 209.907 53.9858L210.272 53.7021Z" stroke="#0086BF" stroke-dasharray="10 10"/>
</g>
<g opacity="0.3">
<rect width="31.8872" height="31.8872" transform="matrix(-0.966468 -0.258707 -0.259004 -0.965364 77.6782 198.067)" fill="#FFB500"/>
</g>
<rect width="31.8872" height="31.8872" transform="matrix(-0.258378 -0.965531 0.707632 -0.707281 77.6367 198.078)" fill="#FFB500"/>
<rect opacity="0.5" width="31.9082" height="31.9082" transform="matrix(-0.707537 0.706676 -0.966083 -0.258231 92.0229 144.725)" fill="#FFB500"/>
<path opacity="0.7" fill-rule="evenodd" clip-rule="evenodd" d="M56.0947 147.38L44.4302 150.505L46.0491 156.547L46.0533 156.563L46.0534 156.563C46.2894 157.416 47.0877 158.118 48.3944 158.467C51.0239 159.17 54.7167 158.18 56.6425 156.257C57.5995 155.301 57.94 154.294 57.7178 153.437L57.7178 153.437L57.7147 153.425C57.714 153.423 57.7133 153.42 57.7125 153.417L56.0947 147.38Z" fill="#FFB500"/>
<path d="M53.714 145.445C56.3362 146.147 56.9056 148.272 54.9859 150.191C53.0661 152.111 49.3841 153.097 46.7619 152.395C44.1397 151.693 43.5703 149.568 45.4901 147.648C47.4099 145.729 51.0918 144.743 53.714 145.445Z" fill="#FFB500"/>
<path opacity="0.7" fill-rule="evenodd" clip-rule="evenodd" d="M67.542 136.633L55.8774 139.758L57.4963 145.8L57.5006 145.816L57.5006 145.816C57.7367 146.669 58.5349 147.371 59.8417 147.72C62.4712 148.423 66.164 147.433 68.0897 145.51C69.0468 144.554 69.3873 143.547 69.165 142.69L69.1651 142.69L67.542 136.633Z" fill="#FFB500"/>
<path d="M65.1613 134.698C67.7835 135.4 68.3529 137.525 66.4331 139.444C64.5133 141.364 60.8314 142.35 58.2092 141.648C55.587 140.946 55.0176 138.821 56.9373 136.901C58.8571 134.982 62.5391 133.996 65.1613 134.698Z" fill="#FFB500"/>
<path opacity="0.7" fill-rule="evenodd" clip-rule="evenodd" d="M71.4018 151.038L59.7373 154.164L61.3562 160.206L61.3604 160.221L61.3605 160.221C61.5966 161.075 62.3948 161.776 63.7015 162.126C66.331 162.828 70.0238 161.839 71.9496 159.916C72.9066 158.96 73.2472 157.953 73.0249 157.096L73.025 157.096L71.4018 151.038Z" fill="#FFB500"/>
<path d="M69.0212 149.104C71.6433 149.806 72.2128 151.931 70.293 153.85C68.3732 155.769 64.6912 156.756 62.069 156.054C59.4468 155.351 58.8774 153.226 60.7972 151.307C62.717 149.388 66.399 148.401 69.0212 149.104Z" fill="#FFB500"/>
<path opacity="0.7" fill-rule="evenodd" clip-rule="evenodd" d="M82.6328 139.784L70.9683 142.909L72.5872 148.951L72.5914 148.967L72.5914 148.967C72.8275 149.82 73.6257 150.522 74.9325 150.871C77.562 151.574 81.2548 150.584 83.1806 148.661C84.1376 147.705 84.4781 146.698 84.2558 145.841L84.2559 145.841L82.6328 139.784Z" fill="#FFB500"/>
<path d="M80.2521 137.849C82.8743 138.551 83.4437 140.676 81.5239 142.595C79.6042 144.515 75.9222 145.501 73.3 144.799C70.6778 144.097 70.1084 141.972 72.0282 140.053C73.9479 138.133 77.6299 137.147 80.2521 137.849Z" fill="#FFB500"/>
<g opacity="0.3">
<rect width="31.8872" height="31.8872" transform="matrix(-0.707632 -0.707281 0.258378 -0.965531 199.361 80.4092)" fill="#FFB500"/>
</g>
<rect width="31.8872" height="31.8872" transform="matrix(0.259003 -0.965364 0.966468 -0.258707 199.319 80.3982)" fill="#FFB500"/>
<rect opacity="0.5" width="31.9082" height="31.9082" transform="matrix(-0.966083 0.258231 -0.707537 -0.706676 238.456 41.386)" fill="#FFB500"/>
<path opacity="0.7" fill-rule="evenodd" clip-rule="evenodd" d="M206.013 25.721L194.349 22.5955L192.73 28.6373L192.726 28.653L192.726 28.653C192.503 29.5102 192.844 30.5168 193.801 31.4727C195.727 33.3961 199.419 34.3856 202.049 33.6827C203.356 33.3334 204.154 32.6319 204.39 31.7785L204.39 31.7785L204.393 31.7668C204.394 31.7641 204.395 31.7615 204.395 31.7588L206.013 25.721Z" fill="#FFB500"/>
<path d="M204.919 22.8552C206.838 24.7744 206.269 26.8995 203.647 27.6017C201.025 28.3039 197.343 27.3173 195.423 25.3981C193.503 23.4789 194.073 21.3538 196.695 20.6516C199.317 19.9494 202.999 20.936 204.919 22.8552Z" fill="#FFB500"/>
<path opacity="0.7" fill-rule="evenodd" clip-rule="evenodd" d="M221.3 22.1377L209.636 19.0122L208.017 25.054L208.013 25.0698L208.013 25.0698C207.79 25.9269 208.131 26.9336 209.088 27.8894C211.014 29.8129 214.707 30.8023 217.336 30.0995C218.643 29.7502 219.441 29.0487 219.677 28.1952L219.677 28.1953L221.3 22.1377Z" fill="#FFB500"/>
<path d="M220.206 19.2719C222.126 21.1912 221.556 23.3162 218.934 24.0185C216.312 24.7207 212.63 23.7341 210.71 21.8149C208.79 19.8956 209.36 17.7705 211.982 17.0683C214.604 16.3661 218.286 17.3527 220.206 19.2719Z" fill="#FFB500"/>
<path opacity="0.7" fill-rule="evenodd" clip-rule="evenodd" d="M217.44 36.5435L205.775 33.418L204.156 39.4598L204.152 39.4755L204.152 39.4755C203.93 40.3327 204.271 41.3393 205.228 42.2952C207.153 44.2186 210.846 45.2081 213.476 44.5052C214.782 44.156 215.581 43.4545 215.817 42.601L215.817 42.601L217.44 36.5435Z" fill="#FFB500"/>
<path d="M216.345 33.6777C218.265 35.5969 217.696 37.722 215.074 38.4242C212.451 39.1264 208.769 38.1398 206.85 36.2206C204.93 34.3014 205.499 32.1763 208.121 31.4741C210.744 30.7719 214.426 31.7585 216.345 33.6777Z" fill="#FFB500"/>
<path opacity="0.7" fill-rule="evenodd" clip-rule="evenodd" d="M232.793 32.4119L221.129 29.2864L219.51 35.3282L219.506 35.3439L219.506 35.344C219.284 36.2011 219.624 37.2077 220.581 38.1636C222.507 40.087 226.2 41.0765 228.829 40.3737C230.136 40.0244 230.934 39.3229 231.17 38.4694L231.17 38.4694L232.793 32.4119Z" fill="#FFB500"/>
<path d="M231.699 29.5461C233.619 31.4653 233.049 33.5904 230.427 34.2926C227.805 34.9948 224.123 34.0083 222.203 32.089C220.283 30.1698 220.853 28.0447 223.475 27.3425C226.097 26.6403 229.779 27.6269 231.699 29.5461Z" fill="#FFB500"/>
</svg>
