<svg xmlns="http://www.w3.org/2000/svg" fill="none" viewBox="0 0 1000 375">
  <g clip-path="url(#a)">
    <rect width="1000" height="375" fill="#fff" rx="50"/>
    <rect width="1104" height="430" x="-52" y="-27" fill="url(#b)" rx="50"/>
    <rect width="1104" height="430" x="-52" y="-27" fill="url(#c)" fill-opacity=".5" rx="50" style="mix-blend-mode:multiply"/>
    <g opacity=".5">
      <path fill="#F1F2F1" d="M779.9 339.6 881 373.9l10.8 52.3-101.3-34.3z" opacity=".7"/>
    </g>
    <path fill="#F1F2F1" d="m750.8 427.1-10.7-52.3 39.8-35.3 10.7 52.4z" opacity=".5"/>
    <path fill="#F1F2F1" fill-rule="evenodd" d="m817.2 359-13.5-15-7.8 7c-1 1-1.5 2.6-1 4.9a16 16 0 0 0 9.4 10.7c2.1.7 3.9.5 5-.5l7.9-7Z" clip-rule="evenodd" opacity=".7"/>
    <path fill="#F1F2F1" d="M818.3 354c.9 4.5-1.9 7-6.2 5.5a15.9 15.9 0 0 1-9.4-10.7c-1-4.5 1.8-6.9 6.1-5.4 4.3 1.4 8.6 6.2 9.5 10.7Z"/>
    <path fill="#F1F2F1" fill-rule="evenodd" d="M846.5 368.1 833.1 353l-7.8 7c-1.1 1-1.6 2.7-1.1 4.9a16 16 0 0 0 9.5 10.7c2.1.8 3.9.5 5-.4l7.8-7Z" clip-rule="evenodd" opacity=".7"/>
    <path fill="#F1F2F1" d="M847.6 363.1c1 4.5-1.8 7-6.1 5.4a15.9 15.9 0 0 1-9.5-10.7c-.9-4.4 1.9-6.8 6.2-5.4a16 16 0 0 1 9.4 10.7Z"/>
    <path fill="#F1F2F1" fill-rule="evenodd" d="m875 375.8-13.4-15.2-7.8 7c-1.1 1-1.6 2.7-1 4.9a16 16 0 0 0 9.4 10.7c2.1.8 3.9.5 5-.5l7.8-6.9Z" clip-rule="evenodd" opacity=".7"/>
    <path fill="#F1F2F1" d="M876.2 370.8c.9 4.5-1.9 6.9-6.2 5.4a15.9 15.9 0 0 1-9.4-10.7c-1-4.4 1.8-6.8 6.1-5.4 4.3 1.5 8.5 6.3 9.5 10.7Z"/>
    <path fill="#F1F2F1" fill-rule="evenodd" d="M821.5 385 808 369.8l-7.9 7c-1 1-1.5 2.7-1 4.9a16 16 0 0 0 9.4 10.7c2.2.7 4 .5 5-.5l7.9-6.9Z" clip-rule="evenodd" opacity=".7"/>
    <path fill="#F1F2F1" d="M822.6 380c.9 4.5-1.9 6.9-6.2 5.4a15.9 15.9 0 0 1-9.4-10.7c-1-4.4 1.8-6.8 6.1-5.4 4.3 1.5 8.6 6.3 9.5 10.7Zm29.4 9c.9 4.5-1.9 7-6.2 5.5a15.9 15.9 0 0 1-9.4-10.7c-1-4.5 1.8-6.9 6-5.4 4.4 1.4 8.6 6.2 9.5 10.7Z"/>
    <g opacity=".5">
      <path fill="#F1F2F1" d="m696.7 93.2 104.8-21 35.5 40L732 133z" opacity=".7"/>
    </g>
    <path fill="#F1F2F1" d="m715.3 183.5-35.5-40 16.9-50.4 35.4 40z" opacity=".5"/>
    <path fill="#F1F2F1" d="m836.8 112.1-17 50.3-104.6 21 17-50.2 104.6-21Z"/>
    <path fill="#F1F2F1" fill-rule="evenodd" d="M738.7 91.4 719.5 85l-3.3 9.9c-.5 1.4 0 3.1 1.5 4.8a16 16 0 0 0 13.6 4.6c2.2-.5 3.6-1.6 4-3l3.4-9.9Z" clip-rule="evenodd" opacity=".7"/>
    <path fill="#F1F2F1" d="M737.2 86.5c3 3.4 1.8 7-2.6 7.8-4.5.9-10.6-1.1-13.6-4.5s-1.8-7 2.6-7.8a16 16 0 0 1 13.6 4.5Z"/>
    <path fill="#F1F2F1" fill-rule="evenodd" d="M768.7 84.6 749.5 78l-3.4 10c-.4 1.4 0 3 1.5 4.8a16 16 0 0 0 13.6 4.5c2.2-.4 3.7-1.5 4.1-3l3.4-9.8Z" clip-rule="evenodd" opacity=".7"/>
    <path fill="#F1F2F1" d="M767.1 79.7c3 3.4 1.9 6.9-2.6 7.8-4.4.8-10.5-1.2-13.5-4.6-3-3.4-1.9-6.9 2.6-7.8 4.4-.8 10.5 1.2 13.5 4.6Z"/>
    <path fill="#F1F2F1" fill-rule="evenodd" d="M797.2 77 778 70.5l-3.3 10c-.5 1.4 0 3 1.5 4.8a16 16 0 0 0 13.6 4.5c2.2-.4 3.6-1.5 4-2.9l3.4-10Z" clip-rule="evenodd" opacity=".7"/>
    <path fill="#F1F2F1" d="M795.7 72c3 3.5 1.8 7-2.6 7.9a16 16 0 0 1-13.6-4.6c-3-3.4-1.8-6.9 2.6-7.8 4.5-.8 10.5 1.2 13.6 4.6Z"/>
    <path fill="#F1F2F1" fill-rule="evenodd" d="m755.4 111.7-19.2-6.4-3.3 9.9c-.5 1.4 0 3.1 1.5 4.8a16 16 0 0 0 13.6 4.6c2.2-.5 3.6-1.6 4-3l3.4-9.9Z" clip-rule="evenodd" opacity=".7"/>
    <path fill="#F1F2F1" d="M753.9 106.8c3 3.4 1.8 7-2.6 7.8-4.5.9-10.6-1.1-13.6-4.5s-1.8-7 2.6-7.8a16 16 0 0 1 13.6 4.5Z"/>
    <path fill="#F1F2F1" fill-rule="evenodd" d="m785.4 104.9-19.2-6.5-3.4 10c-.4 1.4 0 3 1.5 4.8a16 16 0 0 0 13.6 4.5c2.2-.4 3.7-1.5 4.1-3l3.4-9.8Z" clip-rule="evenodd" opacity=".7"/>
    <path fill="#F1F2F1" d="M783.8 100c3 3.4 1.9 6.9-2.6 7.8-4.4.9-10.5-1.2-13.5-4.6-3-3.4-1.9-6.9 2.6-7.8 4.4-.8 10.5 1.2 13.5 4.6Z"/>
    <path fill="#F1F2F1" fill-rule="evenodd" d="m814 97.3-19.3-6.5-3.3 10c-.5 1.4 0 3 1.5 4.8a16 16 0 0 0 13.6 4.5c2.2-.4 3.6-1.5 4-2.9l3.4-10Z" clip-rule="evenodd" opacity=".7"/>
    <path fill="#F1F2F1" d="M812.4 92.4c3 3.4 1.8 6.9-2.6 7.8a16 16 0 0 1-13.6-4.6c-3-3.4-1.8-6.9 2.6-7.7 4.5-1 10.5 1 13.6 4.5Z"/>
    <mask id="d" width="485" height="386" x="557" y="77" maskUnits="userSpaceOnUse" style="mask-type:alpha">
      <path fill="#D9D9D9" fill-rule="evenodd" d="m836.6 140.3 82.6 54.8-13.5 20.4-82.6-54.8 13.5-20.4Zm-147.7-35.8-40.1-26.6L563 207.2l7.8 5.1-13.5 20.4 37 24.6 85-128.1-4.8-3.2 14.3-21.5Zm353 228-65.3-43.3-13.5 20.3 9.6 6.4-72.6 109.5 55.6 37 72.7-109.6 13.5-20.4Zm-351.6-4 55.6 37-13.4 20.3-55.7-36.9 13.5-20.3Z" clip-rule="evenodd"/>
    </mask>
    <g mask="url(#d)">
      <path stroke="#0086BF" stroke-dasharray="10 10" d="M956.8 267.2a219 219 0 0 1 4.8 8.7h-.5a207.2 207.2 0 0 1 4.3 8.6h.6c1.3 3 2.6 5.8 3.7 8.7h-.5a87 87 0 0 1 3.2 8.5h.6c1 2.9 1.8 5.7 2.6 8.5l-.5-.1c.8 2.8 1.4 5.6 2 8.3l.6.1c.6 2.8 1 5.5 1.4 8.2l-.5-.1c.4 2.7.7 5.3.9 8l.5.1.3 7.8-.5-.2c0 2.6-.1 5-.3 7.5l.5.3a87 87 0 0 1-1 7.3l-.5-.3a79 79 0 0 1-1.5 7l.6.3c-.6 2.3-1.3 4.5-2.1 6.7l-.5-.3c-.8 2.2-1.7 4.3-2.7 6.4l.5.3c-1 2.1-2 4.1-3.2 6.1l-.5-.3c-1.2 2-2.4 3.8-3.8 5.7l.5.3a71.5 71.5 0 0 1-4.3 5.4l-.5-.4a73.3 73.3 0 0 1-4.9 5l.5.3a58.5 58.5 0 0 1-5.4 4.5l-.4-.3a80.9 80.9 0 0 1-5.9 4l.4.5a87 87 0 0 1-6.3 3.6l-.5-.4a93.6 93.6 0 0 1-6.8 3.3l.4.4c-2.3 1-4.7 1.9-7.3 2.7l-.3-.4c-2.5.9-5 1.6-7.7 2.3l.3.4-8 1.9-.4-.5c-2.8.6-5.6 1-8.5 1.4l.4.4c-3 .4-5.9.7-8.9.9l-.3-.5-9 .4.2.4h-9.4l-.3-.5a201.1 201.1 0 0 1-10-.7l.2.5-10.6-1.2-.2-.5c-3.6-.5-7.2-1-10.9-1.7l.2.4a134 134 0 0 1-11-2.3l-.2-.4a270 270 0 0 1-11.1-2.8v.4c-3.7-1-7.5-2.2-11.3-3.4v-.4a215 215 0 0 1-11.3-3.9v.4c-3.8-1.4-7.6-2.8-11.4-4.4v-.4c-3.8-1.5-7.6-3.2-11.3-4.9v.4c-3.9-1.7-7.6-3.5-11.4-5.4l.1-.3a355 355 0 0 1-11.1-5.8l-.2.3c-3.7-2-7.4-4-11-6.2l.1-.4-10.8-6.6-.2.3-10.6-7 .2-.3a271 271 0 0 1-10.3-7.4l-.3.3a365 365 0 0 1-10-7.7l.2-.3a354 354 0 0 1-9.7-8l-.3.3-9.4-8.3.3-.2a336.6 336.6 0 0 1-9-8.6l-.3.2-8.6-8.9.4-.1-8.1-9-.4.1-7.6-9.1.4-.1c-2.4-3.1-4.8-6.2-7-9.3h-.5l-6.5-9.3h.5L627 273h-.5l-5.3-9.5h.5a202.4 202.4 0 0 1-4.5-9h-.5l-3.8-8.6h.5l-3.2-8.5-.5-.1c-1-2.9-1.9-5.7-2.6-8.5l.5.2c-.8-2.8-1.5-5.6-2-8.3l-.6-.2-1.5-8.2.6.2a113 113 0 0 1-1-8l-.5-.2a103 103 0 0 1-.2-7.8l.5.3c0-2.6.1-5.1.3-7.6l-.5-.2c.2-2.5.5-5 .9-7.3l.5.2 1.5-7-.5-.2 2-6.8.6.3 2.6-6.4-.5-.3c1-2 2-4 3.3-6l.5.3c1.1-2 2.4-3.9 3.7-5.7l-.5-.4c1.4-1.8 2.8-3.6 4.4-5.3l.5.4c1.5-1.8 3.1-3.4 4.8-5l-.5-.4 5.4-4.5.5.4c1.9-1.4 3.8-2.8 5.9-4.1l-.5-.4c2-1.3 4.2-2.5 6.4-3.7l.4.4 6.8-3.2-.4-.4c2.4-1 4.8-2 7.3-2.8l.4.4c2.5-.8 5-1.6 7.7-2.3l-.4-.4 8.1-1.8.4.4c2.7-.5 5.5-1 8.4-1.3l-.3-.5 8.8-.8.3.4c3-.2 6-.3 9.1-.3l-.2-.5 9.4.1.2.5a201.1 201.1 0 0 1 9.7.6l-.2-.5 9.9 1.1.2.5 10 1.5-.1-.4 10.3 2v.4l10.4 2.5v-.4l10.4 3 .1.4c3.5 1 7 2.2 10.5 3.4v-.4c3.5 1.3 7 2.5 10.6 4v.3l10.6 4.3v-.4l10.6 4.7-.1.4 10.5 5.1v-.3l10.4 5.5v.3c3.3 2 6.8 3.9 10.1 6l.2-.4c3.4 2 6.8 4 10 6.2v.3l9.8 6.6.2-.3c3.3 2.2 6.5 4.5 9.7 6.9l-.3.2c3.2 2.3 6.3 4.7 9.4 7.2l.3-.3 9.1 7.4-.3.3c3 2.5 6 5 8.8 7.6l.3-.2 8.5 7.9-.4.2c2.8 2.6 5.5 5.3 8.1 8l.4-.1 7.7 8.2-.4.1a297 297 0 0 1 7.2 8.4l.5-.1 6.8 8.5h-.4a265 265 0 0 1 6.3 8.7h.4l6 8.6h-.6l5.4 8.7h.5Z"/>
    </g>
    <path fill="#F1F2F1" d="m632.5 336-35.3-39.9 16.9-50.5 35.3 40z" opacity=".3"/>
    <path fill="#F1F2F1" d="m632.4 336 17-50.4 52.2-10.6-17 50.5z"/>
    <path fill="#F1F2F1" d="m701.8 275-52.4 10.6-35.4-40 52.4-10.6z" opacity=".5"/>
    <path fill="#F1F2F1" fill-rule="evenodd" d="m649.2 245.5-19.1-6.4-3.3 9.9c-.5 1.4 0 3.1 1.4 4.8a16 16 0 0 0 13.6 4.6c2.2-.5 3.6-1.6 4-3h.1l3.3-10Z" clip-rule="evenodd" opacity=".7"/>
    <path fill="#F1F2F1" d="M647.7 240.6c3 3.4 1.8 6.9-2.6 7.8-4.5.9-10.5-1.1-13.5-4.5-3-3.5-1.9-7 2.6-7.8 4.4-1 10.5 1 13.5 4.5Z"/>
    <path fill="#F1F2F1" fill-rule="evenodd" d="m675.1 241-19.1-6.3-3.4 9.9c-.4 1.4 0 3.1 1.5 4.8a16 16 0 0 0 13.6 4.6c2.2-.5 3.6-1.6 4-3l3.4-10Z" clip-rule="evenodd" opacity=".7"/>
    <path fill="#F1F2F1" d="M673.6 236.2c3 3.4 1.8 6.9-2.6 7.8-4.5.9-10.5-1.1-13.5-4.5-3-3.5-1.9-7 2.6-7.8 4.4-1 10.5 1 13.5 4.5Z"/>
    <path fill="#F1F2F1" fill-rule="evenodd" d="m667.2 264.7-19.2-6.4-3.3 10c-.5 1.4 0 3 1.5 4.8 3 3.4 9 5.4 13.5 4.5 2.3-.4 3.7-1.5 4.1-3l3.4-9.9Z" clip-rule="evenodd" opacity=".7"/>
    <path fill="#F1F2F1" d="M665.7 259.8c3 3.4 1.8 7-2.7 7.8-4.4 1-10.5-1.1-13.5-4.5s-1.8-6.9 2.7-7.8c4.4-.9 10.4 1.1 13.5 4.5Z"/>
    <path fill="#F1F2F1" fill-rule="evenodd" d="m693.2 259.4-19.1-6.4-3.3 10c-.5 1.4 0 3 1.5 4.8 3 3.4 9 5.4 13.5 4.5 2.2-.4 3.6-1.5 4.1-3l3.3-9.9Z" clip-rule="evenodd" opacity=".7"/>
    <path fill="#F1F2F1" d="M691.7 254.5c3 3.4 1.8 7-2.6 7.8-4.5 1-10.5-1.1-13.5-4.5s-1.8-6.9 2.6-7.8c4.5-.9 10.5 1.1 13.5 4.5Z"/>
    <path fill="#F1F2F1" d="m910.8 284.5-10.6-52.2 40-35.3 10.5 52.2z" opacity=".3"/>
    <path fill="#F1F2F1" d="m910.8 284.5 39.9-35.3 50.6 17-40 35.2z"/>
    <path fill="#F1F2F1" d="m1001.4 266.3-50.6-17-10.7-52.4 50.6 17z" opacity=".5"/>
    <path fill="#F1F2F1" fill-rule="evenodd" d="m970.6 214.4-13.3-15-7.9 6.8c-1.1 1-1.6 2.8-1.1 5a16 16 0 0 0 9.4 10.7c2.2.7 4 .5 5-.5l8-7Z" clip-rule="evenodd" opacity=".7"/>
    <path fill="#F1F2F1" d="M971.7 209.4c1 4.5-1.8 7-6.1 5.5a15.7 15.7 0 0 1-9.4-10.7c-1-4.4 1.8-6.9 6.1-5.4 4.3 1.4 8.5 6.2 9.4 10.6Z"/>
    <path fill="#F1F2F1" fill-rule="evenodd" d="M995.2 223.6 982 208.4l-7.9 7c-1 1-1.5 2.7-1 5 .8 4.4 5 9.2 9.4 10.6 2.1.7 3.9.5 5-.5l7.8-7Z" clip-rule="evenodd" opacity=".7"/>
    <path fill="#F1F2F1" d="M996.4 218.6c.9 4.4-1.9 6.9-6.2 5.4a15.7 15.7 0 0 1-9.4-10.7c-1-4.4 1.8-6.8 6.1-5.4 4.3 1.4 8.6 6.2 9.5 10.7Z"/>
    <path fill="#F1F2F1" fill-rule="evenodd" d="m976.6 240-13.4-15-7.9 6.9c-1 1-1.5 2.7-1 5 .8 4.4 5 9.2 9.4 10.6 2.1.7 3.9.5 5-.5l7.9-7Z" clip-rule="evenodd" opacity=".7"/>
    <path fill="#F1F2F1" d="M977.7 235c.9 4.5-1.9 7-6.2 5.5a15.7 15.7 0 0 1-9.4-10.6c-1-4.5 1.8-7 6.1-5.5 4.4 1.5 8.6 6.2 9.5 10.7Z"/>
    <path fill="#F1F2F1" fill-rule="evenodd" d="m1001.8 248.5-13.4-15.1-7.8 7c-1.2 1-1.6 2.6-1.2 4.9 1 4.4 5.2 9.2 9.5 10.7 2.1.7 3.9.4 5-.5l7.9-7Z" clip-rule="evenodd" opacity=".7"/>
    <path fill="#F1F2F1" d="M1002.9 243.5c.9 4.5-1.9 6.9-6.2 5.5a15.7 15.7 0 0 1-9.4-10.7c-.9-4.5 1.9-6.9 6.2-5.5a16 16 0 0 1 9.4 10.7Z"/>
    <g opacity=".5">
      <path fill="#FFB500" d="m199 217.3 92-52 45.6 26.6-92 52z" opacity=".7"/>
    </g>
    <path fill="#FFB500" d="m244.3 296.4-45.6-26.6.2-52.6 45.7 26.7z" opacity=".5"/>
    <path fill="#FFB500" d="m336.5 191.9-.4 52.5-91.8 52 .4-52.5 91.8-52Z"/>
    <path fill="#FFB500" fill-rule="evenodd" d="m238 202.7-20.1-.1v10.3c0 1.5.9 3 2.8 4a15.7 15.7 0 0 0 14.2.2c2-1.1 3-2.6 3-4v-10.4Z" clip-rule="evenodd" opacity=".7"/>
    <path fill="#FFB500" d="M235 198.6c3.9 2.2 3.8 5.9 0 8-4 2.3-10.3 2.3-14.2 0-3.9-2.3-3.9-5.9 0-8.1 4-2.2 10.3-2.2 14.2 0Z"/>
    <path fill="#FFB500" fill-rule="evenodd" d="m264 187-20-.1-.1 10.3c0 1.5 1 3 2.9 4.1a15.7 15.7 0 0 0 14.1 0c2-1 3-2.5 3-4V187Z" clip-rule="evenodd" opacity=".7"/>
    <path fill="#FFB500" d="M261 183c3.9 2.2 3.9 5.8 0 8-4 2.2-10.3 2.2-14.2 0-3.9-2.3-3.8-6 0-8.2 4-2.2 10.3-2.1 14.2.1Z"/>
    <path fill="#FFB500" fill-rule="evenodd" d="M288.4 171h-20v10.3c0 1.5 1 3 2.8 4a15.7 15.7 0 0 0 14.2.2c2-1.2 3-2.6 3-4V171Z" clip-rule="evenodd" opacity=".7"/>
    <path fill="#FFB500" d="M285.5 167c3.9 2.2 3.8 5.9 0 8-4 2.3-10.3 2.3-14.2 0-3.9-2.3-3.9-5.9 0-8.1 4-2.2 10.3-2.2 14.2 0Z"/>
    <path fill="#FFB500" fill-rule="evenodd" d="m259.9 216.6-20-.1-.1 10.3c0 1.5 1 3 2.9 4a15.7 15.7 0 0 0 14.1.2c2-1.1 3-2.6 3-4v-10.4Z" clip-rule="evenodd" opacity=".7"/>
    <path fill="#FFB500" d="M257 212.5c3.8 2.3 3.8 5.9-.1 8.1-4 2.2-10.3 2.2-14.2 0-3.8-2.3-3.8-6 .1-8.2 4-2.2 10.2-2.2 14.1.1Z"/>
    <path fill="#FFB500" fill-rule="evenodd" d="m285.9 201-20-.2v10.3c0 1.5.9 3 2.8 4.1a15.7 15.7 0 0 0 14.2.1c2-1 3-2.5 3-4V201Z" clip-rule="evenodd" opacity=".7"/>
    <path fill="#FFB500" d="M283 196.8c3.8 2.3 3.8 6-.1 8.1-4 2.3-10.2 2.2-14.1 0-4-2.3-3.9-6 0-8.2 4-2.2 10.3-2.1 14.1.1Z"/>
    <path fill="#FFB500" fill-rule="evenodd" d="m310.4 185-20-.1-.1 10.3c0 1.5 1 3 2.9 4a15.7 15.7 0 0 0 14.2.2c2-1.1 2.9-2.6 3-4V185Z" clip-rule="evenodd" opacity=".7"/>
    <path fill="#FFB500" d="M307.4 180.9c4 2.3 3.9 5.9 0 8.1-4 2.2-10.3 2.2-14.1 0-4-2.4-3.9-6 0-8.2 4-2.2 10.2-2.2 14.1.1Z"/>
    <g opacity=".5">
      <path fill="#FFB500" d="m-37.4 116.1 53.7-91 52.8.2-53.7 91z" opacity=".7"/>
    </g>
    <path fill="#FFB500" d="m41.4 162-52.9-.3-26-45.6 52.8.2z" opacity=".5"/>
    <path fill="#FFB500" d="M69 25.3 94.8 71l-53.5 91-25.8-45.7 53.5-91Z"/>
    <path fill="#FFB500" fill-rule="evenodd" d="m3.7 57.4-17.4 9.9 5.1 9c.7 1.3 2.3 2 4.6 2 4.5 0 10-3 12.3-7 1.1-1.9 1.2-3.6.5-4.9l-5.1-9Z" clip-rule="evenodd" opacity=".7"/>
    <path fill="#FFB500" d="M-1 55.3c4.6 0 6.4 3.2 4 7-2.2 4-7.7 7-12.2 7-4.5 0-6.3-3.1-4-7s7.8-7 12.3-7Z"/>
    <path fill="#FFB500" fill-rule="evenodd" d="M17 31.4-.6 41.3l5.1 9c.8 1.2 2.3 2 4.6 2 4.5 0 10-3.1 12.3-7 1.1-2 1.3-3.7.5-5l-5-9Z" clip-rule="evenodd" opacity=".7"/>
    <path fill="#FFB500" d="M12.3 29.3c4.5 0 6.3 3.1 4 7s-7.8 7-12.3 7c-4.4 0-6.2-3.2-4-7 2.3-4 7.8-7 12.3-7Z"/>
    <path fill="#FFB500" fill-rule="evenodd" d="M15 85-2.4 95l5 9c.8 1.2 2.4 2 4.6 2 4.5 0 10-3.1 12.3-7 1.2-2 1.3-3.7.6-5L15 85Z" clip-rule="evenodd" opacity=".7"/>
    <path fill="#FFB500" d="M10.3 83c4.5 0 6.3 3.2 4 7-2.2 4-7.7 7-12.2 7-4.5 0-6.3-3.2-4-7 2.3-4 7.7-7 12.2-7Z"/>
    <path fill="#FFB500" fill-rule="evenodd" d="m29.7 58.5-17.4 9.9 5 9c.8 1.2 2.4 2 4.6 2 4.5 0 10-3 12.3-7 1.2-1.9 1.3-3.6.6-5l-5.1-9Z" clip-rule="evenodd" opacity=".7"/>
    <path fill="#FFB500" d="M25 56.4c4.6 0 6.3 3.2 4 7-2.2 4-7.7 7-12.2 7-4.5 0-6.3-3.1-4-7s7.8-7 12.3-7Z"/>
    <path fill="#FFB500" fill-rule="evenodd" d="m42.9 32.4-17.4 10 5.1 9c.7 1.2 2.3 2 4.6 2 4.5 0 10-3.1 12.3-7 1.1-2 1.2-3.7.5-5l-5.1-9Z" clip-rule="evenodd" opacity=".7"/>
    <path fill="#FFB500" d="M38.3 30.4c4.5 0 6.3 3.1 4 7s-7.8 7-12.3 7c-4.5 0-6.3-3.2-4-7 2.3-4 7.8-7 12.3-7Z"/>
    <mask id="e" width="487" height="292" x="-81" y="19" maskUnits="userSpaceOnUse" style="mask-type:alpha">
      <path fill="#D9D9D9" fill-rule="evenodd" d="m89.6 44.1 94.8-24.7 6.1 23.3-94.8 24.8L89.6 44Zm-123.8 85.2-46 12 38.6 148.4 9-2.3 6 23.3 42.7-11-38.4-147.1-5.5 1.4-6.4-24.7ZM366.5 19.6l-75 19.5 6.2 23.4 11-2.9 32.8 125.8 63.9-16.7-32.8-125.8-6.1-23.3ZM131.8 276l63.9-16.6 6 23.3-63.8 16.7-6.1-23.4Z" clip-rule="evenodd"/>
    </mask>
    <g mask="url(#e)">
      <path stroke="#0086BF" stroke-dasharray="10 10" d="m261.1 39 10.4 2.3-.3.4a204 204 0 0 1 10 2.7l.3-.4c3.3 1 6.4 2 9.5 3.2l-.4.3 9 3.6.4-.3c3 1.3 5.8 2.6 8.5 4l-.5.3a151 151 0 0 1 8 4.4l.4-.3c2.5 1.5 5 3 7.3 4.7l-.5.3a130 130 0 0 1 6.7 5.1l.5-.2a79 79 0 0 1 6 5.4l-.5.3c2 1.9 3.7 3.8 5.4 5.8l.6-.3 4.7 6.1-.6.3c1.5 2 2.8 4.2 4 6.3l.6-.2 3.3 6.6-.6.2a71 71 0 0 1 2.6 6.9l.5-.2c.8 2.3 1.4 4.7 1.9 7l-.6.2c.5 2.4.9 4.8 1.1 7.2h.6c.2 2.4.4 4.8.4 7.3l-.6.1c0 2.5-.2 5-.4 7.5h.6c-.3 2.5-.6 5-1.1 7.6h-.6c-.5 2.6-1.2 5.1-2 7.7h.7a97 97 0 0 1-2.6 7.7h-.6c-1 2.6-2.1 5.1-3.3 7.7h.5a96 96 0 0 1-4 7.8h-.6c-1.4 2.5-3 5-4.7 7.6h.5c-1.7 2.6-3.5 5.2-5.4 7.7h-.6c-1.9 2.4-3.9 5-6 7.4l.5.1c-2.2 2.5-4.4 5-6.8 7.4l-.5-.1a198.3 198.3 0 0 1-7.3 7.2l.5.2a182 182 0 0 1-8 7l-.4-.1c-2.7 2.3-5.5 4.6-8.4 6.8l.4.2-9 6.6-.4-.2c-3 2.2-6.2 4.3-9.4 6.4l.3.2a284 284 0 0 1-9.9 6l-.3-.1c-3.4 2-6.9 3.9-10.4 5.7l.3.3-10.7 5.5-.3-.3a331 331 0 0 1-11 5.1l.2.3-11.4 4.8-.2-.3-11.7 4.4.2.3-11.9 4-.1-.3-12 3.6v.3a366 366 0 0 1-12.1 3.2l-.1-.3c-4 1-8.2 1.9-12.3 2.7v.4c-4 .9-8.1 1.6-12.3 2.3v-.3a350 350 0 0 1-12.3 1.9v.3l-12.3 1.5v-.4a334 334 0 0 1-12.1 1l-.2.3c-4 .3-8 .5-12.1.5l.1-.3h-12l-.1.4c-4 0-8-.2-11.8-.5l.2-.3-11.5-1-.2.4a252 252 0 0 1-11.2-1.4l.3-.3L49 286l-.3.4c-3.6-.7-7-1.5-10.5-2.4l.4-.3a202.3 202.3 0 0 1-10-2.8l-.4.4c-3.2-1-6.4-2-9.5-3.2l.4-.3-9-3.6-.4.4c-2.9-1.3-5.7-2.6-8.4-4l.4-.4c-2.7-1.4-5.4-2.8-7.9-4.3l-.5.3-7.3-4.8.5-.3a84.4 84.4 0 0 1-6.7-5.1l-.5.3a97.2 97.2 0 0 1-6-5.5l.5-.3c-2-1.8-3.7-3.8-5.4-5.7l-.5.2c-1.7-2-3.3-4-4.7-6.1l.5-.2c-1.4-2.1-2.8-4.2-4-6.4l-.5.2A73.2 73.2 0 0 1-44 226l.5-.2c-1-2.2-1.8-4.5-2.5-6.8l-.6.1c-.8-2.3-1.4-4.6-1.9-7l.6-.2c-.5-2.4-.8-4.8-1-7.2l-.7.1c-.2-2.4-.3-4.9-.3-7.4h.6c0-2.6.1-5 .3-7.6l-.5.1c.2-2.5.6-5 1-7.6h.7c.5-2.6 1-5.2 1.8-7.7h-.6a100 100 0 0 1 2.7-7.7h.5c1-2.6 2.1-5.2 3.4-7.8h-.6c1.2-2.6 2.6-5.2 4-7.7h.6c1.5-2.6 3-5.1 4.8-7.7h-.6c1.7-2.6 3.5-5.1 5.5-7.7l.5.1 6-7.5h-.4c2.1-2.6 4.3-5 6.7-7.5l.5.1a198.7 198.7 0 0 1 7.3-7.2l-.4-.2a179 179 0 0 1 7.9-7l.4.1 8.5-6.8-.4-.2 9-6.6.4.2c3-2.2 6.3-4.3 9.5-6.4l-.4-.2c3.3-2.1 6.6-4.2 10-6.1l.3.2c3.4-2 6.9-4 10.4-5.8l-.3-.3c3.5-1.8 7.1-3.7 10.8-5.4l.3.2c3.6-1.7 7.3-3.5 11-5.1l-.2-.3a342 342 0 0 1 11.5-4.8l.2.3 11.6-4.4-.1-.3 11.9-4 .1.3 12.1-3.6-.1-.3 12.2-3.2.1.3c4-1 8.2-1.9 12.3-2.7v-.4l12.3-2.3v.4c4.1-.7 8.2-1.4 12.4-1.9v-.4l12.3-1.4v.4l12.1-1 .2-.3c4-.3 8-.4 12-.5l-.1.4H216l.2-.4c3.9 0 7.8.2 11.6.4l-.2.4c3.9.2 7.7.5 11.4 1l.3-.4c3.7.3 7.4.8 11 1.3l-.2.4c3.6.5 7.2 1.2 10.7 1.9l.3-.4Z"/>
    </g>
    <path fill="#FFB500" d="m99.2 323.6-52.7-.3-26-45.8 52.6.3z" opacity=".3"/>
    <path fill="#FFB500" d="m99.1 323.6-26-45.8 26.7-45.4 26 45.8z"/>
    <path fill="#FFB500" d="M99.9 232.3 73 277.8l-52.8-.3L47 231.9z" opacity=".5"/>
    <path fill="#FFB500" fill-rule="evenodd" d="M43.5 251.5 26 261.4l5.1 9c.8 1.3 2.4 2 4.6 2 4.5 0 10-3 12.3-7 1.1-1.8 1.2-3.6.5-4.9l-5.1-9Z" clip-rule="evenodd" opacity=".7"/>
    <path fill="#FFB500" d="M38.9 249.4c4.5 0 6.3 3.2 4 7-2.3 4-7.8 7-12.2 7-4.5 0-6.3-3.2-4-7 2.2-3.9 7.7-7 12.2-7Z"/>
    <path fill="#FFB500" fill-rule="evenodd" d="m57.3 229.5-17.3 10 5 8.9c.8 1.3 2.4 2 4.6 2 4.5.1 10-3 12.3-6.9 1.1-2 1.3-3.7.5-5l-5-9Z" clip-rule="evenodd" opacity=".7"/>
    <path fill="#FFB500" d="M52.7 227.4c4.5 0 6.3 3.2 4 7.1-2.3 3.9-7.7 7-12.2 7-4.5 0-6.3-3.2-4-7.1 2.2-3.9 7.7-7 12.2-7Z"/>
    <path fill="#FFB500" fill-rule="evenodd" d="m69.5 251-17.3 9.8 5 9c.8 1.3 2.4 2.1 4.6 2.1 4.5 0 10-3 12.3-7 1.1-1.9 1.3-3.6.5-5l-5-9Z" clip-rule="evenodd" opacity=".7"/>
    <path fill="#FFB500" d="M64.9 248.9c4.5 0 6.3 3.2 4 7-2.3 4-7.7 7-12.2 7-4.5 0-6.3-3.2-4-7 2.2-4 7.7-7 12.2-7Z"/>
    <path fill="#FFB500" fill-rule="evenodd" d="M82.8 228.3 65.4 238l5.1 9c.8 1.3 2.4 2.1 4.6 2.1 4.5 0 10-3 12.3-7 1.1-1.9 1.2-3.6.5-5l-5.1-9Z" clip-rule="evenodd" opacity=".7"/>
    <path fill="#FFB500" d="M78.2 226.2c4.5 0 6.3 3.2 4 7-2.3 4-7.8 7-12.3 7-4.4 0-6.2-3.2-4-7 2.3-4 7.8-7 12.3-7Z"/>
    <path fill="#FFB500" d="m1008.9 103.3-43.3-.3-21.4-37.6 43.3.2z" opacity=".3"/>
    <path fill="#FFB500" d="m1008.9 103.3-21.4-37.6 21.9-37.4 21.4 37.6z"/>
    <path fill="#FFB500" d="m1009.5 28.3-22 37.3-43.3-.3 22-37.3z" opacity=".5"/>
    <path fill="#FFB500" fill-rule="evenodd" d="m963.2 44-14.3 8.2 4.2 7.4c.6 1 1.9 1.7 3.7 1.7a13 13 0 0 0 10.1-5.8c1-1.5 1-3 .5-4l-4.2-7.4Z" clip-rule="evenodd" opacity=".7"/>
    <path fill="#FFB500" d="M959.4 42.3c3.7 0 5.1 2.7 3.3 5.8a12.8 12.8 0 0 1-10 5.7c-3.8 0-5.3-2.6-3.4-5.8 1.9-3.1 6.4-5.7 10-5.7Z"/>
    <path fill="#FFB500" fill-rule="evenodd" d="m974.5 26-14.2 8.1 4.2 7.4c.6 1 1.9 1.7 3.7 1.7 3.7 0 8.2-2.5 10-5.7 1-1.6 1.1-3 .5-4v-.1l-4.2-7.4Z" clip-rule="evenodd" opacity=".7"/>
    <path fill="#FFB500" d="M970.7 24.3c3.7 0 5.2 2.6 3.3 5.8a12.8 12.8 0 0 1-10 5.7c-3.7 0-5.2-2.6-3.3-5.8 1.8-3.2 6.3-5.7 10-5.7Z"/>
    <path fill="#FFB500" fill-rule="evenodd" d="m984.5 43.6-14.2 8.1 4.2 7.4c.6 1 1.9 1.7 3.7 1.7 3.7 0 8.2-2.5 10-5.7 1-1.6 1.1-3 .5-4V51l-4.2-7.4Z" clip-rule="evenodd" opacity=".7"/>
    <path fill="#FFB500" d="M980.7 41.9c3.7 0 5.2 2.6 3.3 5.8a12.8 12.8 0 0 1-10 5.7c-3.7 0-5.2-2.6-3.3-5.8 1.8-3.2 6.3-5.7 10-5.7Z"/>
    <path fill="#FFB500" fill-rule="evenodd" d="m995.4 25-14.2 8 4.2 7.5c.6 1 1.9 1.7 3.7 1.7 3.7 0 8.2-2.6 10-5.7 1-1.6 1.1-3 .5-4.1l-4.2-7.4Z" clip-rule="evenodd" opacity=".7"/>
    <path fill="#FFB500" d="M991.6 23.3c3.7 0 5.2 2.6 3.3 5.8a12.8 12.8 0 0 1-10 5.7c-3.7 0-5.2-2.7-3.3-5.8 1.8-3.2 6.3-5.8 10-5.7Z"/>
    <path fill="#FFB500" d="m244.7 84.7-45.5-26.6.3-52.7L245 32z" opacity=".3"/>
    <path fill="#FFB500" d="m244.6 84.7.3-52.7 45.9-26-.4 52.7z"/>
    <path fill="#FFB500" d="m291 6-46 26-45.6-26.7 46-26z" opacity=".5"/>
    <path fill="#FFB500" fill-rule="evenodd" d="m232.5-5.6-20-.1V4.6c0 1.5.9 3 2.8 4.1a15.6 15.6 0 0 0 14.1.1c2-1 3-2.5 3-4V-5.6Z" clip-rule="evenodd" opacity=".7"/>
    <path fill="#FFB500" d="M229.5-9.7c3.9 2.3 3.9 5.9 0 8.1a15.6 15.6 0 0 1-14.1 0c-3.9-2.3-3.9-6 0-8.2a15.6 15.6 0 0 1 14.1 0Z"/>
    <path fill="#FFB500" fill-rule="evenodd" d="m255.3 7-20-.2v10.4c0 1.5.9 3 2.8 4a15.6 15.6 0 0 0 14.1.2c2-1.1 3-2.6 3-4V7Z" clip-rule="evenodd" opacity=".7"/>
    <path fill="#FFB500" d="M252.3 2.8c3.9 2.3 3.9 6 0 8.2a15.6 15.6 0 0 1-14.1-.1c-3.9-2.3-3.9-6 0-8.2a15.6 15.6 0 0 1 14.1.1Z"/>
    <path fill="#FFB500" fill-rule="evenodd" d="m278.1-6-20-.2V4.2c0 1.5 1 3 2.9 4a15.6 15.6 0 0 0 14 .1c2-1 3-2.5 3-4l.1-10.4Z" clip-rule="evenodd" opacity=".7"/>
    <path fill="#FFB500" d="M275.2-10.2c3.8 2.3 3.8 6-.1 8.1a15.6 15.6 0 0 1-14 0c-4-2.3-4-6 0-8.2a15.6 15.6 0 0 1 14 .1Z"/>
    <g opacity=".5">
      <path fill="#F1F2F1" d="m68.8 386.5 93-52.7 46.2 26.8-93 52.7z" opacity=".7"/>
    </g>
    <path fill="#F1F2F1" d="m207.8 360.6-.3 53.1-92.9 52.7.4-53 92.8-52.8Z"/>
    <path fill="#F1F2F1" fill-rule="evenodd" d="m108.1 371.7-20.2-.2V382c0 1.5 1 3 2.9 4.1a16 16 0 0 0 14.3 0c2-1 3-2.5 3-4v-10.4Z" clip-rule="evenodd" opacity=".7"/>
    <path fill="#F1F2F1" d="M105.2 367.5c3.9 2.3 3.9 6 0 8.2-4 2.2-10.4 2.2-14.4 0-3.9-2.4-3.9-6 0-8.3 4-2.2 10.4-2.2 14.4.1Z"/>
    <path fill="#F1F2F1" fill-rule="evenodd" d="m134.5 355.8-20.3-.1V366c0 1.5 1 3 2.9 4.1a16 16 0 0 0 14.3.1c2-1.1 3-2.6 3-4v-10.5Z" clip-rule="evenodd" opacity=".7"/>
    <path fill="#F1F2F1" d="M131.5 351.6c3.9 2.3 3.9 6 0 8.2-4 2.3-10.4 2.2-14.4 0-3.9-2.3-3.9-6 0-8.3 4-2.2 10.4-2.2 14.4.1Z"/>
    <path fill="#F1F2F1" fill-rule="evenodd" d="M159.2 339.6h-20.3V350c0 1.5 1 3 3 4a16 16 0 0 0 14.3.2c2-1.1 3-2.6 3-4.1v-10.5Z" clip-rule="evenodd" opacity=".7"/>
    <path fill="#F1F2F1" d="M156.2 335.5c4 2.3 4 6 0 8.2a16 16 0 0 1-14.3-.1c-4-2.3-4-6 0-8.2 4-2.2 10.4-2.2 14.3 0Z"/>
    <path fill="#F1F2F1" fill-rule="evenodd" d="M156.7 369.8h-20.3v10.4c0 1.5 1 3 2.9 4a16 16 0 0 0 14.3.2c2-1.1 3-2.6 3-4v-10.6Z" clip-rule="evenodd" opacity=".7"/>
    <path fill="#F1F2F1" d="M153.7 365.7c4 2.3 3.9 6 0 8.2a16 16 0 0 1-14.3-.1c-4-2.3-4-6 0-8.2 4-2.2 10.3-2.2 14.3 0Z"/>
    <path fill="#F1F2F1" fill-rule="evenodd" d="m181.4 353.7-20.2-.1-.1 10.5c0 1.4 1 3 3 4a16 16 0 0 0 14.3.1c2-1 3-2.6 3-4v-10.5Z" clip-rule="evenodd" opacity=".7"/>
    <path fill="#F1F2F1" d="M178.4 349.5c4 2.3 4 6 0 8.2a16 16 0 0 1-14.3 0c-4-2.3-4-6 0-8.2a16 16 0 0 1 14.3 0Z"/>
    <path stroke="#0086BF" stroke-dasharray="10 10" d="m600.9-34.6 8.2 7.2-.5.2a144.4 144.4 0 0 1 7.3 7.4l.5-.1c2.4 2.5 4.5 5 6.5 7.6h-.5c2 2.6 3.8 5.2 5.4 7.8h.6l4.5 7.8h-.6c1.3 2.7 2.5 5.3 3.4 7.9h.6a63 63 0 0 1 2.4 7.8h-.6c.6 2.6 1 5.2 1.3 7.7l.6.1c.2 2.6.3 5.1.2 7.6l-.6-.1c-.1 2.5-.4 5-.9 7.3l.6.2a44 44 0 0 1-2 7.1l-.5-.2c-.8 2.4-1.8 4.6-3 6.8l.6.2a53.5 53.5 0 0 1-4.1 6.5l-.6-.3c-1.5 2-3.2 4-5 6l.5.3a64.2 64.2 0 0 1-6 5.5l-.5-.3a76.4 76.4 0 0 1-7 5l.5.3c-2.5 1.6-5 3.1-7.9 4.5l-.4-.3a87.6 87.6 0 0 1-8.7 3.9l.5.3c-3 1.2-6.2 2.3-9.5 3.3l-.4-.4a136.2 136.2 0 0 1-10.2 2.7l.3.4a158 158 0 0 1-11 2l-.4-.4c-3.8.6-7.7 1-11.6 1.4l.3.3c-4 .4-8 .6-12.2.6l-.1-.4c-4.2.1-8.3 0-12.5-.1l.2.4c-4.3-.2-8.5-.5-12.8-1v-.3c-4.3-.4-8.6-1-12.9-1.6v.3a249 249 0 0 1-13-2.3l.1-.4c-4.3-.9-8.6-1.9-12.8-3v.4l-12.8-3.7.1-.4c-4.2-1.3-8.3-2.7-12.4-4.3l-.2.3a243 243 0 0 1-12-5l.2-.2a233.7 233.7 0 0 1-11-5.2l-.3.3-10-5.4.4-.3c-3.3-1.8-6.4-3.7-9.5-5.7l-.3.2-8.9-6 .4-.3a171 171 0 0 1-8.2-6.4l-.4.2c-2.7-2.2-5.2-4.4-7.6-6.7l.5-.1a145.7 145.7 0 0 1-7-7.2l-.6.2c-2.3-2.6-4.4-5.1-6.4-7.7h.5c-2-2.6-3.8-5.2-5.5-7.8h-.5a89 89 0 0 1-4.5-7.8h.6a76.3 76.3 0 0 1-3.5-7.9h-.5c-1-2.6-1.8-5.2-2.4-7.8h.6c-.6-2.6-1-5.2-1.3-7.7l-.6-.1c-.3-2.6-.3-5.1-.2-7.6l.6.1c0-2.5.4-5 .8-7.3l-.6-.2c.5-2.4 1.2-4.8 2-7.1l.6.2a50 50 0 0 1 3-6.8l-.6-.2c1.2-2.2 2.5-4.4 4-6.5l.6.3c1.5-2 3.2-4 5-6l-.5-.3c1.9-1.9 3.9-3.7 6-5.5l.6.3c2.1-1.8 4.5-3.4 7-5l-.5-.3c2.4-1.6 5-3.1 7.8-4.5l.5.3c2.7-1.4 5.6-2.7 8.6-3.9l-.4-.3c3-1.2 6.2-2.3 9.5-3.3l.3.4a135 135 0 0 1 10.1-2.7l-.3-.3c3.5-.8 7-1.5 10.7-2l.3.3c3.6-.5 7.4-1 11.1-1.3l-.2-.4c3.8-.3 7.7-.5 11.6-.6l.2.4h12l-.1-.3c4 .1 8.1.3 12.2.7l.1.4c4.1.3 8.3.8 12.4 1.4v-.4c4.1.6 8.3 1.3 12.4 2.1v.4c4.2.8 8.3 1.7 12.4 2.7l.1-.3c4.1 1 8.3 2.1 12.3 3.4v.3c4 1.2 8 2.5 12 4l.2-.4c4 1.5 8 3 11.8 4.6l-.2.3 11.3 5 .3-.2 11 5.6-.4.3 10.3 6 .4-.2c3.3 2 6.6 4.2 9.7 6.5l-.4.2c3.1 2.2 6 4.5 9 6.8l.4-.2Zm-42 431.6 1.2 10-.5-.1a154 154 0 0 1 .6 9.7l.5.2v9.4l-.5-.3c-.1 3-.4 6-.7 9l.4.2c-.3 3-.7 5.8-1.3 8.5l-.4-.3-2 8 .4.3-2.6 7.5-.5-.4c-1 2.4-2 4.6-3.2 6.8l.4.4a62.2 62.2 0 0 1-3.9 6.2l-.4-.4c-1.4 2-2.8 3.8-4.4 5.5l.4.5a53.2 53.2 0 0 1-5 4.8l-.4-.5a51 51 0 0 1-5.6 4l.4.5a51 51 0 0 1-6.1 3.3l-.3-.5c-2.1 1-4.3 1.7-6.5 2.4l.2.5c-2.2.7-4.6 1.3-7 1.7l-.2-.6c-2.4.4-4.9.7-7.4.8l.3.5c-2.6.2-5.1.1-7.8 0l-.2-.6a76 76 0 0 1-8-1l.2.6a82 82 0 0 1-8.3-1.8l-.2-.6c-2.7-.7-5.6-1.6-8.4-2.7v.6c-2.8-1-5.6-2.2-8.6-3.6v-.5a134.3 134.3 0 0 1-8.6-4.3v.5c-2.9-1.5-5.7-3.2-8.5-5v-.4c-2.9-1.8-5.7-3.7-8.5-5.7v.4c-3-2-5.7-4.2-8.5-6.4l.1-.4a201 201 0 0 1-8.2-7l-.2.3c-2.7-2.4-5.4-5-8-7.6l.1-.4-7.8-8.1-.2.3-7.5-8.7.2-.2-7.1-9.1-.3.2c-2.3-3-4.6-6.2-6.8-9.4l.3-.2-6.4-9.8-.3.2-6-10 .4-.2c-1.9-3.3-3.7-6.7-5.4-10.1h-.4l-5-10.3h.4a250.8 250.8 0 0 1-4.5-10.8h-.4a232 232 0 0 1-4-11h.3l-3.4-11-.4-.2c-1-3.6-2-7.3-2.7-11l.4.2a201 201 0 0 1-2-10.7l-.4-.2c-.6-3.5-1-7-1.4-10.4l.5.2a154 154 0 0 1-.6-10l-.5-.2v-9.4l.5.3c.1-3 .4-6 .7-9l-.4-.2c.3-3 .8-5.8 1.3-8.5l.5.3c.5-2.8 1.2-5.4 2-8l-.5-.3a79 79 0 0 1 2.7-7.5l.4.4c1-2.4 2-4.6 3.2-6.8l-.4-.4c1.2-2.2 2.5-4.3 3.9-6.2l.4.4c1.4-2 2.9-3.8 4.4-5.5l-.3-.5c1.5-1.7 3.2-3.3 5-4.8l.3.5c1.8-1.4 3.7-2.8 5.6-4l-.4-.5c2-1.2 4-2.3 6.1-3.3l.3.5a47 47 0 0 1 6.6-2.4l-.3-.5c2.2-.7 4.6-1.3 7-1.7l.2.6c2.4-.4 4.9-.7 7.4-.8l-.2-.5c2.5-.2 5-.1 7.7 0l.2.6c2.6.2 5.3.5 8 1l-.2-.6c2.8.5 5.5 1 8.4 1.8v.6c2.8.7 5.7 1.6 8.5 2.7v-.6c2.8 1 5.7 2.3 8.6 3.6v.5a134.3 134.3 0 0 1 8.7 4.3v-.5c3 1.6 5.8 3.3 8.7 5.1v.5c3 1.8 5.8 3.8 8.7 5.9v-.5c3 2.1 5.8 4.3 8.6 6.6v.4l8.3 7.2.1-.4c2.8 2.6 5.6 5.2 8.3 8l-.2.3 8 8.3.1-.3a246 246 0 0 1 7.7 9l-.3.2c2.5 3 5 6.2 7.3 9.3l.2-.2 7 9.7-.4.2c2.2 3.3 4.4 6.6 6.4 10l.3-.1c2.1 3.3 4 6.8 6 10.2l-.3.1 5.4 10.5.3-.1c1.8 3.5 3.4 7 5 10.6h-.4c1.5 3.5 3 7 4.3 10.6h.4c1.3 3.5 2.6 7 3.7 10.6h-.4c1.2 3.5 2.2 7 3.1 10.5h.5l2.5 10.5-.5-.1c.8 3.4 1.4 6.8 2 10.2l.4.2Z"/>
  </g>
  <defs>
    <linearGradient id="b" x1="1200.2" x2="-79.6" y1="-109" y2="-26.9" gradientUnits="userSpaceOnUse">
      <stop stop-color="#CF1BC0"/>
      <stop offset="1" stop-color="#005EB8"/>
    </linearGradient>
    <linearGradient id="c" x1="1855.8" x2="681.1" y1="1152.5" y2="1028" gradientUnits="userSpaceOnUse">
      <stop stop-color="#743DA8"/>
      <stop offset="1" stop-color="#00A6FF"/>
    </linearGradient>
    <clipPath id="a">
      <rect width="1000" height="375" fill="#fff" rx="50"/>
    </clipPath>
  </defs>
</svg>
