<svg xmlns="http://www.w3.org/2000/svg" fill="none" viewBox="0 0 145 273">
  <g opacity=".5">
    <path fill="#005EB8" d="m17.71 219.59 46.25-26.73 23.12 13.36-46.24 26.73z" opacity=".7"/>
  </g>
  <path fill="#005EB8" d="M40.84 259.66 17.72 246.3v-26.73l23.12 13.36z" opacity=".5"/>
  <path fill="#005EB8" d="M87 206.2v26.74l-46.18 26.72v-26.73l46.19-26.72Z"/>
  <path fill="#005EB8" fill-rule="evenodd" d="M37.32 212.03h-10.1v5.26c0 .74.5 1.49 1.48 2.05a7.88 7.88 0 0 0 7.14 0c.98-.56 1.47-1.3 1.48-2.05v-5.26Z" clip-rule="evenodd" opacity=".7"/>
  <path fill="#005EB8" d="M35.81 209.95c1.97 1.14 1.97 2.98 0 4.12a7.85 7.85 0 0 1-7.12 0c-1.97-1.14-1.97-2.98 0-4.12a7.86 7.86 0 0 1 7.12 0Z"/>
  <path fill="#005EB8" fill-rule="evenodd" d="M50.4 203.98H40.3v5.26c0 .74.5 1.48 1.48 2.05a7.88 7.88 0 0 0 7.14 0c.98-.57 1.47-1.3 1.48-2.05v-5.26Z" clip-rule="evenodd" opacity=".7"/>
  <path fill="#005EB8" d="M48.9 201.9c1.96 1.14 1.96 2.98 0 4.12a7.86 7.86 0 0 1-7.13 0c-1.97-1.14-1.97-2.98 0-4.12a7.86 7.86 0 0 1 7.12 0Z"/>
  <path fill="#005EB8" fill-rule="evenodd" d="M62.7 195.8H52.6v5.26c0 .74.5 1.48 1.47 2.05a7.88 7.88 0 0 0 7.14 0c.98-.57 1.48-1.31 1.48-2.05v-5.26Z" clip-rule="evenodd" opacity=".7"/>
  <path fill="#005EB8" d="M61.19 193.72c1.97 1.13 1.97 2.98 0 4.12a7.86 7.86 0 0 1-7.12 0c-1.97-1.14-1.97-2.99 0-4.12a7.86 7.86 0 0 1 7.12 0Z"/>
  <path fill="#005EB8" fill-rule="evenodd" d="M48.44 219.04h-10.1v5.26c0 .74.5 1.48 1.47 2.05a7.88 7.88 0 0 0 7.15 0c.98-.57 1.47-1.31 1.48-2.05v-5.26Z" clip-rule="evenodd" opacity=".7"/>
  <path fill="#005EB8" d="M46.93 216.96c1.97 1.13 1.97 2.98 0 4.11a7.86 7.86 0 0 1-7.12 0c-1.97-1.13-1.97-2.98 0-4.11a7.86 7.86 0 0 1 7.12 0Z"/>
  <path fill="#005EB8" fill-rule="evenodd" d="M61.52 210.99h-10.1v5.25c0 .75.5 1.49 1.47 2.05a7.9 7.9 0 0 0 7.15 0c.98-.56 1.47-1.3 1.48-2.05V211Z" clip-rule="evenodd" opacity=".7"/>
  <path fill="#005EB8" d="M60.01 208.9c1.97 1.14 1.97 2.98 0 4.12a7.86 7.86 0 0 1-7.12 0c-1.97-1.14-1.97-2.98 0-4.12s5.16-1.14 7.12 0Z"/>
  <path fill="#005EB8" fill-rule="evenodd" d="M73.81 202.8h-10.1v5.26c0 .74.5 1.49 1.48 2.05a7.88 7.88 0 0 0 7.14 0c.98-.56 1.47-1.3 1.48-2.05v-5.26Z" clip-rule="evenodd" opacity=".7"/>
  <path fill="#005EB8" d="M72.3 200.72c1.97 1.14 1.97 2.98 0 4.12a7.86 7.86 0 0 1-7.11 0c-1.97-1.14-1.97-2.98 0-4.12a7.86 7.86 0 0 1 7.12 0Z"/>
  <path fill="#005EB8" d="M47.87 165.04 22 158.1l-6.93-25.91 25.88 6.94z" opacity=".3"/>
  <path fill="#005EB8" d="m47.85 165.05-6.95-25.92 18.94-18.95 6.95 25.91z"/>
  <path fill="#005EB8" d="m59.9 120.17-18.95 18.96-25.89-6.95 18.95-18.96z" opacity=".5"/>
  <path fill="#005EB8" fill-rule="evenodd" d="m29.73 122.38-9.8 2.62 1.37 5.09v.01c.2.72.88 1.31 1.97 1.6a7.9 7.9 0 0 0 6.93-1.85c.8-.8 1.08-1.65.9-2.37v-.01l-1.37-5.09Z" clip-rule="evenodd" opacity=".7"/>
  <path fill="#005EB8" d="M27.73 120.75c2.2.6 2.68 2.38 1.07 4a7.88 7.88 0 0 1-6.9 1.85c-2.2-.6-2.68-2.39-1.07-4a7.88 7.88 0 0 1 6.9-1.85Z"/>
  <path fill="#005EB8" fill-rule="evenodd" d="m39.34 113.34-9.8 2.63 1.37 5.08v.01c.2.72.87 1.31 1.97 1.6 2.2.6 5.3-.23 6.92-1.85.8-.8 1.09-1.65.9-2.37v-.01l-1.36-5.09Z" clip-rule="evenodd" opacity=".7"/>
  <path fill="#005EB8" d="M37.34 111.71c2.2.6 2.68 2.38 1.07 4a7.88 7.88 0 0 1-6.9 1.85c-2.2-.6-2.69-2.38-1.08-4a7.88 7.88 0 0 1 6.9-1.85Z"/>
  <path fill="#005EB8" fill-rule="evenodd" d="m42.58 125.47-9.79 2.62 1.37 5.08v.02c.2.72.87 1.3 1.97 1.6 2.2.6 5.3-.24 6.92-1.85.8-.8 1.09-1.65.9-2.38v-.01l-1.37-5.08Z" clip-rule="evenodd" opacity=".7"/>
  <path fill="#005EB8" d="M40.59 123.84c2.2.59 2.67 2.38 1.06 4a7.88 7.88 0 0 1-6.9 1.84c-2.2-.6-2.68-2.38-1.07-4a7.88 7.88 0 0 1 6.9-1.84Z"/>
  <path fill="#005EB8" fill-rule="evenodd" d="m52 116-9.78 2.63 1.36 5.08v.01c.2.72.87 1.31 1.97 1.6 2.2.6 5.3-.23 6.92-1.85.8-.8 1.09-1.65.9-2.37v-.01L52 116Z" clip-rule="evenodd" opacity=".7"/>
  <path fill="#005EB8" d="M50 114.37c2.21.6 2.69 2.38 1.08 4a7.88 7.88 0 0 1-6.9 1.85c-2.2-.6-2.69-2.38-1.07-4a7.88 7.88 0 0 1 6.9-1.85Z"/>
  <path fill="#005EB8" d="M78.33 102.69 59.39 83.76l6.9-25.82 18.94 18.92z" opacity=".3"/>
  <path fill="#005EB8" d="m78.29 102.68 6.93-25.82 25.87-6.92-6.94 25.82z"/>
  <path fill="#005EB8" d="m111.13 69.96-25.87 6.9-18.95-18.92 25.87-6.9z" opacity=".5"/>
  <path fill="#005EB8" fill-rule="evenodd" d="m83.9 56.81-9.79-2.62-1.36 5.07c-.19.73.1 1.57.9 2.37a7.93 7.93 0 0 0 6.92 1.86c1.1-.3 1.77-.88 1.97-1.6v-.01l1.36-5.07Z" clip-rule="evenodd" opacity=".7"/>
  <path fill="#005EB8" d="M82.98 54.4c1.61 1.62 1.14 3.4-1.07 3.99a7.9 7.9 0 0 1-6.9-1.85c-1.61-1.61-1.13-3.4 1.07-3.98a7.9 7.9 0 0 1 6.9 1.85Z"/>
  <path fill="#005EB8" fill-rule="evenodd" d="m96.73 53.8-9.79-2.62-1.36 5.07v.01c-.19.72.1 1.57.9 2.37a7.93 7.93 0 0 0 6.92 1.85c1.1-.29 1.77-.88 1.97-1.6l1.36-5.07Z" clip-rule="evenodd" opacity=".7"/>
  <path fill="#005EB8" d="M95.81 51.4c1.62 1.61 1.14 3.4-1.06 3.98a7.9 7.9 0 0 1-6.9-1.85c-1.62-1.6-1.14-3.39 1.06-3.98a7.9 7.9 0 0 1 6.9 1.85Z"/>
  <path fill="#005EB8" fill-rule="evenodd" d="m93.5 65.89-9.8-2.62-1.36 5.07c-.19.73.1 1.57.9 2.38a7.93 7.93 0 0 0 6.93 1.85c1.1-.3 1.76-.88 1.96-1.6v-.01l1.36-5.07Z" clip-rule="evenodd" opacity=".7"/>
  <path fill="#005EB8" d="M92.58 63.49c1.6 1.6 1.13 3.39-1.07 3.98a7.9 7.9 0 0 1-6.9-1.85c-1.62-1.61-1.14-3.4 1.06-3.98a7.9 7.9 0 0 1 6.9 1.85Z"/>
  <path fill="#005EB8" fill-rule="evenodd" d="m106.38 62.43-9.8-2.63-1.35 5.07v.01c-.19.72.1 1.57.9 2.37a7.94 7.94 0 0 0 6.92 1.86c1.1-.3 1.77-.89 1.97-1.6v-.01l1.36-5.07Z" clip-rule="evenodd" opacity=".7"/>
  <path fill="#005EB8" d="M105.46 60.02c1.61 1.61 1.14 3.4-1.06 3.98a7.9 7.9 0 0 1-6.9-1.85c-1.62-1.6-1.14-3.39 1.06-3.98a7.9 7.9 0 0 1 6.9 1.85Z"/>
  <path fill="#005EB8" d="M40.9 55.01 17.74 41.62V14.83L40.9 28.22z" opacity=".3"/>
  <path fill="#005EB8" d="M40.87 55.01V28.22l23.15-13.39v26.8z"/>
  <path fill="#005EB8" d="M64.08 14.84 40.92 28.23l-23.17-13.4L40.92 1.45z" opacity=".5"/>
  <path fill="#005EB8" fill-rule="evenodd" d="M34.42 9.18H24.3v5.27c.01.74.5 1.48 1.49 2.05a7.9 7.9 0 0 0 7.15 0c.99-.57 1.48-1.31 1.49-2.05V9.18Z" clip-rule="evenodd" opacity=".7"/>
  <path fill="#005EB8" d="M32.92 7.09c1.97 1.14 1.97 2.99 0 4.13a7.87 7.87 0 0 1-7.14 0c-1.97-1.14-1.97-3 0-4.13a7.87 7.87 0 0 1 7.14 0Z"/>
  <path fill="#005EB8" fill-rule="evenodd" d="M46.02 2.94H35.9v5.27c0 .75.5 1.49 1.48 2.06a7.9 7.9 0 0 0 7.16 0c.98-.57 1.48-1.31 1.48-2.06V2.94Z" clip-rule="evenodd" opacity=".7"/>
  <path fill="#005EB8" d="M44.51.85c1.97 1.15 1.97 3 0 4.13a7.87 7.87 0 0 1-7.13 0c-1.97-1.14-1.97-2.99 0-4.13a7.87 7.87 0 0 1 7.13 0Z"/>
  <path fill="#005EB8" fill-rule="evenodd" d="M46.02 15.47H35.9v5.27c0 .75.5 1.5 1.48 2.06a7.9 7.9 0 0 0 7.16 0c.98-.57 1.48-1.31 1.48-2.06v-5.26Z" clip-rule="evenodd" opacity=".7"/>
  <path fill="#005EB8" d="M44.51 13.39c1.97 1.14 1.97 2.99 0 4.13a7.87 7.87 0 0 1-7.13 0c-1.97-1.14-1.97-3 0-4.13a7.87 7.87 0 0 1 7.13 0Z"/>
  <path fill="#005EB8" fill-rule="evenodd" d="M57.55 8.78H47.43v5.27c0 .75.5 1.49 1.48 2.06a7.9 7.9 0 0 0 7.16 0c.98-.57 1.48-1.31 1.48-2.06V8.78Z" clip-rule="evenodd" opacity=".7"/>
  <path fill="#005EB8" d="M56.04 6.7c1.97 1.14 1.97 2.98 0 4.12a7.87 7.87 0 0 1-7.13 0c-1.97-1.14-1.97-2.99 0-4.13a7.87 7.87 0 0 1 7.13 0Z"/>
  <g opacity=".5">
    <path fill="#005EB8" d="m63.7 166.16 46.37-26.72 23.2 13.36-46.39 26.72z" opacity=".7"/>
  </g>
  <path fill="#005EB8" d="M86.89 206.24 63.7 192.87l-.01-26.72 23.17 13.37z" opacity=".5"/>
  <path fill="#005EB8" d="m133.19 152.78-.01 26.72-46.31 26.73v-26.71l46.32-26.74Z"/>
  <path fill="#005EB8" fill-rule="evenodd" d="M83.35 158.6H73.22v5.27c.01.74.5 1.48 1.49 2.05a7.93 7.93 0 0 0 7.16 0c.98-.57 1.48-1.31 1.48-2.05v-5.26Z" clip-rule="evenodd" opacity=".7"/>
  <path fill="#005EB8" d="M81.84 156.53c1.98 1.13 1.98 2.98 0 4.12a7.9 7.9 0 0 1-7.14 0c-1.97-1.14-1.97-2.99 0-4.12a7.9 7.9 0 0 1 7.15 0Z"/>
  <path fill="#005EB8" fill-rule="evenodd" d="M96.47 150.56H86.34v5.25c0 .75.5 1.49 1.48 2.05a7.94 7.94 0 0 0 7.17 0c.98-.56 1.48-1.3 1.48-2.05v-5.25Z" clip-rule="evenodd" opacity=".7"/>
  <path fill="#005EB8" d="M94.96 148.47c1.98 1.14 1.98 2.99 0 4.12a7.9 7.9 0 0 1-7.14 0c-1.97-1.13-1.97-2.98 0-4.12a7.9 7.9 0 0 1 7.14 0Z"/>
  <path fill="#005EB8" fill-rule="evenodd" d="M108.8 142.38H98.67v5.25c0 .75.5 1.49 1.49 2.05a7.93 7.93 0 0 0 7.16 0c.98-.56 1.48-1.3 1.48-2.05v-5.25Z" clip-rule="evenodd" opacity=".7"/>
  <path fill="#005EB8" d="M107.3 140.3c1.97 1.13 1.97 2.97 0 4.11a7.9 7.9 0 0 1-7.15 0c-1.97-1.14-1.97-2.98 0-4.12a7.9 7.9 0 0 1 7.14 0Z"/>
  <path fill="#005EB8" fill-rule="evenodd" d="M94.5 165.61H84.37v5.26c.01.74.5 1.48 1.49 2.05a7.93 7.93 0 0 0 7.16 0c.98-.57 1.48-1.3 1.48-2.05v-5.26Z" clip-rule="evenodd" opacity=".7"/>
  <path fill="#005EB8" d="M93 163.53c1.97 1.14 1.97 2.98 0 4.12a7.9 7.9 0 0 1-7.15 0c-1.97-1.14-1.97-2.98 0-4.12a7.9 7.9 0 0 1 7.15 0Z"/>
  <path fill="#005EB8" fill-rule="evenodd" d="M107.62 157.56H97.5v5.26c0 .74.5 1.48 1.49 2.05a7.93 7.93 0 0 0 7.16 0c.98-.57 1.48-1.3 1.48-2.05v-5.26Z" clip-rule="evenodd" opacity=".7"/>
  <path fill="#005EB8" d="M106.11 155.48c1.98 1.14 1.98 2.98 0 4.12a7.9 7.9 0 0 1-7.14 0c-1.97-1.14-1.97-2.98 0-4.12a7.9 7.9 0 0 1 7.14 0Z"/>
  <path fill="#005EB8" fill-rule="evenodd" d="M119.95 149.38h-10.13v5.26c0 .74.5 1.48 1.49 2.05a7.93 7.93 0 0 0 7.16 0c.98-.57 1.48-1.31 1.48-2.05v-5.26Z" clip-rule="evenodd" opacity=".7"/>
  <path fill="#005EB8" d="M118.44 147.3c1.98 1.13 1.98 2.98 0 4.12a7.9 7.9 0 0 1-7.14 0c-1.97-1.14-1.97-2.99 0-4.12a7.9 7.9 0 0 1 7.14 0Z"/>
  <path fill="#005EB8" fill-rule="evenodd" d="M40.15 70.34v-4.1h3v4.1h-3Zm0 16.41v-8.2h3v8.2h-3Zm0 12.31v-4.1h3v4.1h-3Zm-7.32 79.35v-5.79h3v5.79h-3Zm0 17.36V190h3v5.79h-3Z" clip-rule="evenodd"/>
</svg>
