<svg xmlns="http://www.w3.org/2000/svg" width="145" height="273" fill="none"><g opacity=".5"><path fill="#005EB8" d="m17.714 219.585 46.245-26.722 23.123 13.361-46.245 26.722z" opacity=".7"/></g><path fill="#005EB8" d="M40.837 259.66 17.719 246.3l.004-26.726 23.118 13.36z" opacity=".5"/><path fill="#005EB8" d="m87.005 206.208.004 26.728-46.185 26.719-.004-26.728 46.185-26.719Z"/><path fill="#005EB8" fill-rule="evenodd" d="M37.318 212.034H27.217V217.291c.006.742.499 1.484 1.48 2.05 1.972 1.14 5.17 1.14 7.142 0 .98-.566 1.473-1.308 1.479-2.05v-5.257Z" clip-rule="evenodd" opacity=".7"/><path fill="#005EB8" d="M35.813 209.95c1.967 1.138 1.967 2.982 0 4.12-1.966 1.138-5.155 1.138-7.121 0-1.967-1.138-1.967-2.982 0-4.12 1.966-1.137 5.155-1.137 7.121 0Z"/><path fill="#005EB8" fill-rule="evenodd" d="M50.398 203.982H40.297v5.257c.006.743.499 1.484 1.48 2.05 1.972 1.14 5.17 1.14 7.142 0 .98-.566 1.473-1.307 1.479-2.05v-5.257Z" clip-rule="evenodd" opacity=".7"/><path fill="#005EB8" d="M48.894 201.899c1.966 1.137 1.966 2.982 0 4.119-1.967 1.138-5.155 1.138-7.122 0-1.967-1.137-1.967-2.982 0-4.119 1.967-1.138 5.155-1.138 7.122 0Z"/><path fill="#005EB8" fill-rule="evenodd" d="M62.693 195.799H52.592v5.258c.006.742.499 1.483 1.48 2.05 1.971 1.14 5.17 1.14 7.142 0 .98-.567 1.473-1.308 1.479-2.05v-5.258Z" clip-rule="evenodd" opacity=".7"/><path fill="#005EB8" d="M61.188 193.716c1.967 1.138 1.967 2.982 0 4.12-1.966 1.137-5.155 1.137-7.121 0-1.967-1.138-1.967-2.982 0-4.12 1.966-1.137 5.155-1.137 7.121 0Z"/><path fill="#005EB8" fill-rule="evenodd" d="M48.436 219.038H38.335v5.257c.006.743.5 1.484 1.48 2.05 1.972 1.14 5.17 1.14 7.142 0 .98-.566 1.473-1.307 1.48-2.05v-5.257Z" clip-rule="evenodd" opacity=".7"/><path fill="#005EB8" d="M46.932 216.955c1.966 1.137 1.966 2.982 0 4.119-1.967 1.138-5.156 1.138-7.122 0-1.967-1.137-1.967-2.982 0-4.119 1.966-1.138 5.155-1.138 7.122 0Z"/><path fill="#005EB8" fill-rule="evenodd" d="M61.516 210.986H51.415v5.258c.006.742.5 1.483 1.48 2.05 1.972 1.139 5.17 1.139 7.142 0 .98-.567 1.473-1.308 1.48-2.05v-5.258Z" clip-rule="evenodd" opacity=".7"/><path fill="#005EB8" d="M60.012 208.903c1.966 1.138 1.966 2.982 0 4.12-1.967 1.137-5.155 1.137-7.122 0-1.967-1.138-1.967-2.982 0-4.12s5.155-1.138 7.122 0Z"/><path fill="#005EB8" fill-rule="evenodd" d="M73.811 202.804H63.71V208.061c.006.742.5 1.484 1.48 2.05 1.972 1.14 5.17 1.14 7.142 0 .98-.566 1.473-1.308 1.48-2.05V202.804Z" clip-rule="evenodd" opacity=".7"/><path fill="#005EB8" d="M72.307 200.721c1.966 1.137 1.966 2.981 0 4.119-1.967 1.138-5.156 1.138-7.122 0-1.967-1.138-1.967-2.982 0-4.119 1.966-1.138 5.155-1.138 7.122 0Z"/><path fill="#005EB8" d="m47.873 165.042-25.878-6.949-6.938-25.917 25.878 6.948z" opacity=".3"/><path fill="#005EB8" d="m47.85 165.048-6.95-25.915 18.936-18.956 6.95 25.914z"/><path fill="#005EB8" d="M59.894 120.165 40.95 139.126l-25.885-6.95 18.942-18.96z" opacity=".5"/><path fill="#005EB8" fill-rule="evenodd" d="m29.73 122.38-9.791 2.623 1.362 5.085.004.013c.199.718.87 1.309 1.966 1.603 2.209.593 5.308-.237 6.924-1.855.803-.803 1.088-1.65.901-2.372l-.003-.012v-.002l-1.363-5.083Z" clip-rule="evenodd" opacity=".7"/><path fill="#005EB8" d="M27.731 120.75c2.202.593 2.681 2.381 1.07 3.995-1.61 1.614-4.701 2.442-6.903 1.85-2.202-.593-2.681-2.381-1.07-3.995 1.61-1.614 4.701-2.442 6.903-1.85Z"/><path fill="#005EB8" fill-rule="evenodd" d="m39.336 113.343-9.792 2.624 1.363 5.084.003.013c.2.719.87 1.309 1.967 1.604 2.208.593 5.308-.238 6.924-1.855.802-.804 1.088-1.651.9-2.372l-.002-.012-.001-.003-1.362-5.083Z" clip-rule="evenodd" opacity=".7"/><path fill="#005EB8" d="M37.337 111.714c2.201.592 2.68 2.38 1.07 3.994-1.61 1.614-4.702 2.442-6.903 1.85-2.202-.592-2.682-2.381-1.07-3.995 1.61-1.613 4.7-2.442 6.902-1.849Z"/><path fill="#005EB8" fill-rule="evenodd" d="m42.584 125.466-9.792 2.624 1.363 5.085.003.013c.2.718.87 1.309 1.967 1.603 2.208.593 5.308-.238 6.924-1.855.803-.804 1.088-1.65.9-2.372l-.002-.012v-.002l-1.363-5.084Z" clip-rule="evenodd" opacity=".7"/><path fill="#005EB8" d="M40.585 123.837c2.201.592 2.68 2.381 1.07 3.995-1.61 1.613-4.702 2.442-6.904 1.849-2.201-.592-2.68-2.38-1.07-3.994 1.61-1.614 4.702-2.442 6.904-1.85Z"/><path fill="#005EB8" fill-rule="evenodd" d="m52.007 116.002-9.791 2.624 1.362 5.085.004.013c.199.718.869 1.309 1.966 1.603 2.208.593 5.308-.237 6.924-1.855.803-.804 1.088-1.65.901-2.372l-.002-.01-.002-.006-1.362-5.082Z" clip-rule="evenodd" opacity=".7"/><path fill="#005EB8" d="M50.008 114.373c2.202.592 2.681 2.381 1.07 3.995-1.61 1.613-4.701 2.442-6.903 1.849-2.202-.592-2.681-2.38-1.07-3.994 1.61-1.614 4.701-2.442 6.903-1.85Z"/><path fill="#005EB8" d="m78.325 102.69-18.94-18.925 6.909-25.828 18.94 18.925z" opacity=".3"/><path fill="#005EB8" d="m78.29 102.68 6.931-25.822 25.865-6.92-6.931 25.822z"/><path fill="#005EB8" d="M111.134 69.956 85.26 76.865l-18.952-18.92 25.873-6.909z" opacity=".5"/><path fill="#005EB8" fill-rule="evenodd" d="m83.9 56.81-9.79-2.624-1.359 5.069-.003.013c-.187.719.1 1.564.903 2.366 1.616 1.614 4.716 2.444 6.923 1.855 1.097-.293 1.767-.881 1.965-1.597l.003-.012.001-.003 1.358-5.067Z" clip-rule="evenodd" opacity=".7"/><path fill="#005EB8" d="M82.982 54.405c1.612 1.61 1.134 3.393-1.067 3.982-2.2.59-5.291-.24-6.903-1.85-1.612-1.61-1.134-3.393 1.067-3.981 2.2-.59 5.292.239 6.903 1.85Z"/><path fill="#005EB8" fill-rule="evenodd" d="m96.732 53.806-9.792-2.624-1.358 5.069-.003.013c-.187.719.1 1.563.903 2.365 1.617 1.614 4.716 2.445 6.923 1.855 1.097-.292 1.767-.88 1.965-1.597l.004-.012v-.002l1.358-5.067Z" clip-rule="evenodd" opacity=".7"/><path fill="#005EB8" d="M95.813 51.401c1.612 1.61 1.134 3.393-1.067 3.982-2.2.589-5.291-.24-6.903-1.85-1.612-1.61-1.134-3.393 1.067-3.982 2.2-.589 5.292.24 6.903 1.85Z"/><path fill="#005EB8" fill-rule="evenodd" d="m93.494 65.89-9.792-2.623-1.358 5.069-.003.013c-.187.719.099 1.563.903 2.366 1.616 1.614 4.716 2.444 6.923 1.855 1.097-.293 1.767-.881 1.965-1.597l.003-.013v-.002l1.359-5.067Z" clip-rule="evenodd" opacity=".7"/><path fill="#005EB8" d="M92.575 63.486c1.612 1.61 1.134 3.393-1.067 3.982-2.2.589-5.292-.24-6.903-1.85-1.612-1.61-1.134-3.393 1.067-3.981 2.2-.59 5.291.239 6.903 1.85Z"/><path fill="#005EB8" fill-rule="evenodd" d="m106.38 62.426-9.791-2.623-1.358 5.069-.004.013c-.186.719.1 1.563.903 2.365 1.617 1.614 4.717 2.445 6.924 1.856 1.097-.293 1.767-.882 1.965-1.598l.002-.01a.016.016 0 0 0 .002-.006l1.357-5.066Z" clip-rule="evenodd" opacity=".7"/><path fill="#005EB8" d="M105.462 60.022c1.611 1.61 1.134 3.393-1.067 3.982-2.201.589-5.292-.24-6.904-1.85-1.611-1.61-1.134-3.393 1.067-3.982 2.201-.588 5.292.24 6.904 1.85Z"/><path fill="#005EB8" d="M40.895 55.01 17.739 41.622l.007-26.79L40.902 28.22z" opacity=".3"/><path fill="#005EB8" d="m40.873 55.01-.007-26.79L64.02 14.832l.008 26.79z"/><path fill="#005EB8" d="M64.081 14.835 40.918 28.227 17.754 14.835 40.918 1.443z" opacity=".5"/><path fill="#005EB8" fill-rule="evenodd" d="M34.425 9.176h-10.12V14.446c.007.744.5 1.487 1.483 2.054 1.975 1.143 5.179 1.143 7.155 0 .982-.567 1.476-1.31 1.482-2.054v-5.27Z" clip-rule="evenodd" opacity=".7"/><path fill="#005EB8" d="M32.918 7.088c1.97 1.14 1.97 2.989 0 4.13-1.97 1.14-5.165 1.14-7.135 0-1.97-1.141-1.97-2.99 0-4.13 1.97-1.14 5.165-1.14 7.135 0Z"/><path fill="#005EB8" fill-rule="evenodd" d="M46.021 2.943H35.902V8.213c.006.744.5 1.487 1.482 2.054 1.976 1.143 5.18 1.143 7.155 0 .982-.567 1.476-1.31 1.482-2.054V2.943Z" clip-rule="evenodd" opacity=".7"/><path fill="#005EB8" d="M44.514.855c1.97 1.14 1.97 2.989 0 4.13-1.97 1.14-5.164 1.14-7.134 0-1.97-1.141-1.97-2.99 0-4.13 1.97-1.14 5.164-1.14 7.134 0Z"/><path fill="#005EB8" fill-rule="evenodd" d="M46.021 15.475H35.902v5.269c.006.744.5 1.487 1.482 2.055 1.976 1.142 5.18 1.142 7.155 0 .982-.568 1.476-1.31 1.482-2.055v-5.269Z" clip-rule="evenodd" opacity=".7"/><path fill="#005EB8" d="M44.514 13.387c1.97 1.14 1.97 2.989 0 4.129-1.97 1.14-5.164 1.14-7.134 0-1.97-1.14-1.97-2.989 0-4.13 1.97-1.14 5.164-1.14 7.134 0Z"/><path fill="#005EB8" fill-rule="evenodd" d="M57.552 8.783h-10.12v5.269c.007.744.5 1.487 1.482 2.055 1.976 1.142 5.18 1.142 7.156 0 .982-.568 1.476-1.31 1.482-2.055V8.783Z" clip-rule="evenodd" opacity=".7"/><path fill="#005EB8" d="M56.044 6.695c1.97 1.14 1.97 2.988 0 4.129-1.97 1.14-5.164 1.14-7.134 0-1.97-1.14-1.97-2.99 0-4.13 1.97-1.14 5.164-1.14 7.135 0Z"/><g opacity=".5"><path fill="#005EB8" d="m63.694 166.16 46.379-26.722 23.19 13.361-46.38 26.722z" opacity=".7"/></g><path fill="#005EB8" d="m86.887 206.236-23.178-13.37-.012-26.717 23.177 13.37z" opacity=".5"/><path fill="#005EB8" d="m133.189 152.783-.012 26.714-46.31 26.733.012-26.713 46.31-26.734Z"/><path fill="#005EB8" fill-rule="evenodd" d="M83.354 158.609h-10.13v5.257c.006.743.5 1.484 1.483 2.05 1.978 1.14 5.185 1.14 7.164 0 .983-.566 1.477-1.307 1.483-2.05v-5.257Z" clip-rule="evenodd" opacity=".7"/><path fill="#005EB8" d="M81.845 156.526c1.972 1.137 1.972 2.982 0 4.119-1.972 1.138-5.17 1.138-7.142 0-1.972-1.137-1.972-2.982 0-4.119 1.972-1.138 5.17-1.138 7.142 0Z"/><path fill="#005EB8" fill-rule="evenodd" d="M96.471 150.557h-10.13v5.258c.006.742.5 1.483 1.483 2.05 1.978 1.139 5.186 1.139 7.164 0 .983-.567 1.477-1.308 1.483-2.05v-5.258Z" clip-rule="evenodd" opacity=".7"/><path fill="#005EB8" d="M94.962 148.474c1.973 1.138 1.973 2.982 0 4.12-1.972 1.137-5.17 1.137-7.142 0-1.972-1.138-1.972-2.982 0-4.12 1.972-1.137 5.17-1.137 7.142 0Z"/><path fill="#005EB8" fill-rule="evenodd" d="M108.802 142.375h-10.13v5.257c.006.743.5 1.484 1.483 2.05 1.979 1.14 5.186 1.14 7.164 0 .983-.566 1.477-1.307 1.483-2.05v-5.257Z" clip-rule="evenodd" opacity=".7"/><path fill="#005EB8" d="M107.293 140.292c1.973 1.137 1.973 2.982 0 4.119-1.972 1.138-5.17 1.138-7.142 0-1.972-1.137-1.972-2.982 0-4.119 1.972-1.138 5.17-1.138 7.142 0Z"/><path fill="#005EB8" fill-rule="evenodd" d="M94.504 165.613h-10.13v5.258c.006.742.5 1.483 1.484 2.05 1.978 1.139 5.185 1.139 7.163 0 .983-.567 1.477-1.308 1.483-2.05v-5.258Z" clip-rule="evenodd" opacity=".7"/><path fill="#005EB8" d="M92.996 163.53c1.972 1.138 1.972 2.982 0 4.12-1.973 1.137-5.17 1.137-7.143 0-1.972-1.138-1.972-2.982 0-4.12 1.973-1.138 5.17-1.138 7.143 0Z"/><path fill="#005EB8" fill-rule="evenodd" d="M107.622 157.562h-10.13V162.819c.005.742.5 1.484 1.483 2.05 1.978 1.14 5.185 1.14 7.163 0 .983-.566 1.478-1.308 1.484-2.05v-5.257Z" clip-rule="evenodd" opacity=".7"/><path fill="#005EB8" d="M106.113 155.478c1.972 1.138 1.972 2.982 0 4.12-1.973 1.138-5.17 1.138-7.143 0-1.972-1.138-1.972-2.982 0-4.12 1.973-1.137 5.17-1.137 7.143 0Z"/><path fill="#005EB8" fill-rule="evenodd" d="M119.953 149.379h-10.131v5.258c.006.742.501 1.483 1.484 2.05 1.978 1.139 5.185 1.139 7.163 0 .983-.567 1.478-1.308 1.484-2.05v-5.258Z" clip-rule="evenodd" opacity=".7"/><path fill="#005EB8" d="M118.444 147.296c1.972 1.138 1.972 2.982 0 4.12-1.972 1.137-5.17 1.137-7.143 0-1.972-1.138-1.972-2.982 0-4.12 1.973-1.138 5.171-1.138 7.143 0Z"/><path fill="#005EB8" fill-rule="evenodd" d="M40.152 70.338v-4.103h3v4.103h-3Zm0 16.412v-8.206h3v8.206h-3Zm0 12.31v-4.103h3v4.103h-3ZM32.825 178.41v-5.788h3v5.788h-3Zm0 17.365v-5.789h3v5.789h-3Z" clip-rule="evenodd"/></svg>