<svg width="26" height="27" viewBox="0 0 26 27" fill="none" xmlns="http://www.w3.org/2000/svg">
<path d="M17.0523 9.59402C17.0523 9.83506 16.9809 10.0707 16.8469 10.2711C16.713 10.4715 16.5227 10.6277 16.3 10.72C16.0773 10.8122 15.8322 10.8364 15.5958 10.7893C15.3594 10.7423 15.1423 10.6262 14.9718 10.4558C14.8014 10.2854 14.6853 10.0682 14.6383 9.83178C14.5912 9.59537 14.6154 9.35032 14.7076 9.12762C14.7999 8.90492 14.9561 8.71458 15.1565 8.58066C15.3569 8.44674 15.5925 8.37527 15.8336 8.37527C16.1568 8.37527 16.4668 8.50367 16.6954 8.73223C16.9239 8.96079 17.0523 9.27078 17.0523 9.59402ZM10.1461 8.37527C9.90505 8.37527 9.66941 8.44674 9.46899 8.58066C9.26857 8.71458 9.11236 8.90492 9.02012 9.12762C8.92787 9.35032 8.90374 9.59537 8.95076 9.83178C8.99779 10.0682 9.11386 10.2854 9.28431 10.4558C9.45475 10.6262 9.67191 10.7423 9.90833 10.7893C10.1447 10.8364 10.3898 10.8122 10.6125 10.72C10.8352 10.6277 11.0255 10.4715 11.1594 10.2711C11.2934 10.0707 11.3648 9.83506 11.3648 9.59402C11.3648 9.27078 11.2364 8.96079 11.0079 8.73223C10.7793 8.50367 10.4693 8.37527 10.1461 8.37527ZM25.5938 13.2503C25.5938 13.4658 25.5081 13.6724 25.3558 13.8248C25.2034 13.9772 24.9967 14.0628 24.7812 14.0628H21.9375V14.8753C21.9391 15.6887 21.8297 16.4985 21.6125 17.2823L23.9586 18.6432C24.1121 18.7333 24.2318 18.8712 24.2993 19.0359C24.3667 19.2006 24.3783 19.3828 24.3322 19.5547C24.286 19.7266 24.1847 19.8785 24.0439 19.9873C23.903 20.096 23.7303 20.1554 23.5523 20.1565C23.4092 20.1577 23.2685 20.119 23.1461 20.0448L21.0234 18.8159C20.2872 20.3161 19.1452 21.5798 17.7269 22.4636C16.3087 23.3475 14.6711 23.816 13 23.816C11.3289 23.816 9.69129 23.3475 8.27305 22.4636C6.85481 21.5798 5.71276 20.3161 4.97656 18.8159L2.85391 20.0448C2.73147 20.119 2.59081 20.1577 2.44766 20.1565C2.2697 20.1554 2.09703 20.096 1.95615 19.9873C1.81527 19.8785 1.71398 19.7266 1.66784 19.5547C1.6217 19.3828 1.63326 19.2006 1.70075 19.0359C1.76824 18.8712 1.88792 18.7333 2.04141 18.6432L4.3875 17.2823C4.17026 16.4985 4.06092 15.6887 4.0625 14.8753V14.0628H1.21875C1.00326 14.0628 0.796599 13.9772 0.644226 13.8248C0.491852 13.6724 0.40625 13.4658 0.40625 13.2503C0.40625 13.0348 0.491852 12.8281 0.644226 12.6757C0.796599 12.5234 1.00326 12.4378 1.21875 12.4378H4.0625V11.6253C4.06092 10.8119 4.17026 10.0021 4.3875 9.21823L2.04141 7.8573C1.85432 7.75078 1.71716 7.57438 1.66003 7.36682C1.6029 7.15926 1.63048 6.93751 1.73672 6.75027C1.84687 6.56421 2.02583 6.429 2.23491 6.37388C2.44398 6.31876 2.66635 6.34816 2.85391 6.45573L4.97656 7.68464C5.71276 6.18446 6.85481 4.92072 8.27305 4.0369C9.69129 3.15308 11.3289 2.68457 13 2.68457C14.6711 2.68457 16.3087 3.15308 17.7269 4.0369C19.1452 4.92072 20.2872 6.18446 21.0234 7.68464L23.1461 6.45573C23.3337 6.34816 23.556 6.31876 23.7651 6.37388C23.9742 6.429 24.1531 6.56421 24.2633 6.75027C24.3695 6.93751 24.3971 7.15926 24.34 7.36682C24.2828 7.57438 24.1457 7.75078 23.9586 7.8573L21.6125 9.21823C21.8297 10.0021 21.9391 10.8119 21.9375 11.6253V12.4378H24.7812C24.9967 12.4378 25.2034 12.5234 25.3558 12.6757C25.5081 12.8281 25.5938 13.0348 25.5938 13.2503ZM13.8125 14.8753C13.8125 14.6598 13.7269 14.4531 13.5745 14.3007C13.4222 14.1484 13.2155 14.0628 13 14.0628C12.7845 14.0628 12.5778 14.1484 12.4255 14.3007C12.2731 14.4531 12.1875 14.6598 12.1875 14.8753V21.3753C12.1875 21.5908 12.2731 21.7974 12.4255 21.9498C12.5778 22.1022 12.7845 22.1878 13 22.1878C13.2155 22.1878 13.4222 22.1022 13.5745 21.9498C13.7269 21.7974 13.8125 21.5908 13.8125 21.3753V14.8753ZM20.3125 11.6253C20.3125 9.68587 19.5421 7.82591 18.1707 6.45455C16.7994 5.08319 14.9394 4.31277 13 4.31277C11.0606 4.31277 9.20064 5.08319 7.82928 6.45455C6.45792 7.82591 5.6875 9.68587 5.6875 11.6253V12.4378H20.3125V11.6253Z" fill="white"/>
</svg>
