<svg width="86" height="85" viewBox="0 0 86 85" fill="none" xmlns="http://www.w3.org/2000/svg">
<path d="M56.2812 36.5234H72.2188C73.4516 36.5234 74.6339 36.0337 75.5057 35.1619C76.3774 34.2902 76.8672 33.1078 76.8672 31.875V15.9375C76.8672 14.7047 76.3774 13.5223 75.5057 12.6506C74.6339 11.7788 73.4516 11.2891 72.2188 11.2891H56.2812C55.0484 11.2891 53.8661 11.7788 52.9943 12.6506C52.1226 13.5223 51.6328 14.7047 51.6328 15.9375V21.9141H48.3125C45.6707 21.9141 43.1371 22.9635 41.2691 24.8316C39.401 26.6996 38.3516 29.2332 38.3516 31.875V40.5078H26.3984V37.1875C26.3984 35.9547 25.9087 34.7723 25.0369 33.9006C24.1652 33.0288 22.9828 32.5391 21.75 32.5391H11.125C9.89216 32.5391 8.70981 33.0288 7.83806 33.9006C6.96631 34.7723 6.47656 35.9547 6.47656 37.1875V47.8125C6.47656 49.0453 6.96631 50.2277 7.83806 51.0994C8.70981 51.9712 9.89216 52.4609 11.125 52.4609H21.75C22.9828 52.4609 24.1652 51.9712 25.0369 51.0994C25.9087 50.2277 26.3984 49.0453 26.3984 47.8125V44.4922H38.3516V53.125C38.3516 55.7668 39.401 58.3004 41.2691 60.1684C43.1371 62.0365 45.6707 63.0859 48.3125 63.0859H51.6328V69.0625C51.6328 70.2953 52.1226 71.4777 52.9943 72.3494C53.8661 73.2212 55.0484 73.7109 56.2812 73.7109H72.2188C73.4516 73.7109 74.6339 73.2212 75.5057 72.3494C76.3774 71.4777 76.8672 70.2953 76.8672 69.0625V53.125C76.8672 51.8922 76.3774 50.7098 75.5057 49.8381C74.6339 48.9663 73.4516 48.4766 72.2188 48.4766H56.2812C55.0484 48.4766 53.8661 48.9663 52.9943 49.8381C52.1226 50.7098 51.6328 51.8922 51.6328 53.125V59.1016H48.3125C46.7274 59.1016 45.2073 58.4719 44.0864 57.3511C42.9656 56.2302 42.3359 54.7101 42.3359 53.125V31.875C42.3359 30.2899 42.9656 28.7698 44.0864 27.6489C45.2073 26.5281 46.7274 25.8984 48.3125 25.8984H51.6328V31.875C51.6328 33.1078 52.1226 34.2902 52.9943 35.1619C53.8661 36.0337 55.0484 36.5234 56.2812 36.5234ZM22.4141 47.8125C22.4141 47.9886 22.3441 48.1575 22.2196 48.2821C22.095 48.4066 21.9261 48.4766 21.75 48.4766H11.125C10.9489 48.4766 10.78 48.4066 10.6554 48.2821C10.5309 48.1575 10.4609 47.9886 10.4609 47.8125V37.1875C10.4609 37.0114 10.5309 36.8425 10.6554 36.7179C10.78 36.5934 10.9489 36.5234 11.125 36.5234H21.75C21.9261 36.5234 22.095 36.5934 22.2196 36.7179C22.3441 36.8425 22.4141 37.0114 22.4141 37.1875V47.8125ZM55.6172 53.125C55.6172 52.9489 55.6871 52.78 55.8117 52.6554C55.9362 52.5309 56.1051 52.4609 56.2812 52.4609H72.2188C72.3949 52.4609 72.5638 52.5309 72.6883 52.6554C72.8129 52.78 72.8828 52.9489 72.8828 53.125V69.0625C72.8828 69.2386 72.8129 69.4075 72.6883 69.5321C72.5638 69.6566 72.3949 69.7266 72.2188 69.7266H56.2812C56.1051 69.7266 55.9362 69.6566 55.8117 69.5321C55.6871 69.4075 55.6172 69.2386 55.6172 69.0625V53.125ZM55.6172 15.9375C55.6172 15.7614 55.6871 15.5925 55.8117 15.4679C55.9362 15.3434 56.1051 15.2734 56.2812 15.2734H72.2188C72.3949 15.2734 72.5638 15.3434 72.6883 15.4679C72.8129 15.5925 72.8828 15.7614 72.8828 15.9375V31.875C72.8828 32.0511 72.8129 32.22 72.6883 32.3446C72.5638 32.4691 72.3949 32.5391 72.2188 32.5391H56.2812C56.1051 32.5391 55.9362 32.4691 55.8117 32.3446C55.6871 32.22 55.6172 32.0511 55.6172 31.875V15.9375Z" fill="black"/>
</svg>
