<svg width="27" height="26" viewBox="0 0 27 26" fill="none" xmlns="http://www.w3.org/2000/svg">
<path d="M3.91675 21.1241L9.22847 9.17291C10.0054 7.4257 11.275 5.94768 12.8847 4.9217L20.3445 0.14734C20.4968 0.0508365 20.6746 4.5418e-05 20.8523 4.5418e-05C21.3703 -0.00503369 21.7917 0.416532 21.7917 0.93968V1.02095C21.7917 1.153 21.7664 1.27998 21.7207 1.40188L18.6839 8.97991C18.5875 9.21863 18.5417 9.47258 18.5417 9.72654C18.5417 10.0059 18.6027 10.2852 18.7144 10.5443L23.4167 21.1241H12.9L13.4992 19.3261L15.5507 18.6404C15.8808 18.5286 16.1042 18.2188 16.1042 17.8683C16.1042 17.5179 15.8808 17.2081 15.5507 17.0963L13.4992 16.4106L12.8136 14.3587C12.7019 14.0336 12.3921 13.8101 12.0417 13.8101C11.6914 13.8101 11.3816 14.0336 11.2699 14.3638L10.5843 16.4157L8.53276 17.1014C8.20269 17.2131 7.97925 17.523 7.97925 17.8734C7.97925 18.2239 8.20269 18.5337 8.53276 18.6455L10.5843 19.3311L11.1835 21.1241H3.91675ZM14.8652 7.1819C14.8093 7.01429 14.657 6.90255 14.4792 6.90255C14.3015 6.90255 14.1492 7.01429 14.0933 7.1819L13.7531 8.20788L12.7273 8.54818C12.5597 8.60405 12.448 8.75643 12.448 8.9342C12.448 9.11197 12.5597 9.26434 12.7273 9.32021L13.7531 9.66051L14.0933 10.6865C14.1492 10.8541 14.3015 10.9658 14.4792 10.9658C14.657 10.9658 14.8093 10.8541 14.8652 10.6865L15.2054 9.66051L16.2312 9.32021C16.3988 9.26434 16.5105 9.11197 16.5105 8.9342C16.5105 8.75643 16.3988 8.60405 16.2312 8.54818L15.2054 8.20788L14.8652 7.1819ZM2.29175 22.7494H25.0417C25.9406 22.7494 26.6667 23.4757 26.6667 24.3747C26.6667 25.2737 25.9406 26 25.0417 26H2.29175C1.39292 26 0.666748 25.2737 0.666748 24.3747C0.666748 23.4757 1.39292 22.7494 2.29175 22.7494Z" fill="white"/>
</svg>
