<svg width="55" height="54" viewBox="0 0 55 54" fill="none" xmlns="http://www.w3.org/2000/svg">
<path fill-rule="evenodd" clip-rule="evenodd" d="M27.5 22.7812C23.7721 22.7812 20.75 25.8033 20.75 29.5312C20.75 33.2592 23.7721 36.2812 27.5 36.2812C31.2279 36.2812 34.25 33.2592 34.25 29.5312C34.25 25.8033 31.2279 22.7812 27.5 22.7812ZM17.375 29.5312C17.375 23.9394 21.9081 19.4062 27.5 19.4062C33.0919 19.4062 37.625 23.9394 37.625 29.5312C37.625 35.1231 33.0919 39.6562 27.5 39.6562C21.9081 39.6562 17.375 35.1231 17.375 29.5312Z" fill="white"/>
<path fill-rule="evenodd" clip-rule="evenodd" d="M46.7514 27.3098C45.2286 26.5484 43.549 26.1534 41.8466 26.1563C40.9146 26.1578 40.1578 25.4036 40.1563 24.4716C40.1547 23.5396 40.9089 22.7828 41.8409 22.7813C44.0693 22.7775 46.2676 23.2946 48.2607 24.2911C50.2538 25.2876 51.9864 26.7361 53.3204 28.521C53.8784 29.2675 53.7255 30.325 52.979 30.883C52.2325 31.4409 51.175 31.288 50.6171 30.5415C49.5979 29.1778 48.2741 28.0712 46.7514 27.3098Z" fill="white"/>
<path fill-rule="evenodd" clip-rule="evenodd" d="M13.1535 26.1563C11.4511 26.1534 9.77148 26.5484 8.24874 27.3098C6.726 28.0712 5.40225 29.1778 4.38304 30.5415C3.8251 31.288 2.76763 31.4409 2.02111 30.883C1.27459 30.325 1.12172 29.2675 1.67966 28.521C3.01367 26.7361 4.74632 25.2876 6.7394 24.2911C8.73248 23.2946 10.9308 22.7775 13.1592 22.7813C14.0912 22.7828 14.8454 23.5396 14.8439 24.4716C14.8423 25.4036 14.0855 26.1578 13.1535 26.1563Z" fill="white"/>
<path fill-rule="evenodd" clip-rule="evenodd" d="M27.5 39.6616C25.2834 39.6616 23.1114 40.2842 21.2314 41.4583C19.3514 42.6325 17.8389 44.3111 16.8664 46.3029C16.4574 47.1404 15.447 47.4878 14.6096 47.0789C13.7721 46.6699 13.4247 45.6595 13.8336 44.822C15.0836 42.2622 17.0274 40.1048 19.4436 38.5958C21.8598 37.0867 24.6513 36.2866 27.5 36.2866C30.3487 36.2866 33.1402 37.0867 35.5564 38.5958C37.9726 40.1048 39.9164 42.2622 41.1664 44.822C41.5753 45.6595 41.2279 46.6699 40.3904 47.0789C39.553 47.4878 38.5425 47.1404 38.1336 46.3029C37.161 44.3111 35.6486 42.6325 33.7686 41.4583C31.8886 40.2842 29.7166 39.6616 27.5 39.6616Z" fill="white"/>
<path fill-rule="evenodd" clip-rule="evenodd" d="M14.4067 12.8149C13.476 12.5762 12.4965 12.6074 11.5828 12.9047C10.6691 13.2021 9.85892 13.7533 9.24686 14.494C8.63481 15.2347 8.24619 16.1343 8.12641 17.0877C8.00663 18.041 8.16064 19.0088 8.57044 19.8779C8.98024 20.747 9.62891 21.4815 10.4407 21.9956C11.2524 22.5097 12.1937 22.7822 13.1546 22.7812C14.0865 22.7803 14.8428 23.5351 14.8438 24.467C14.8447 25.399 14.09 26.1553 13.158 26.1562C11.5565 26.1579 9.98772 25.7037 8.63481 24.8468C7.28191 23.99 6.20079 22.7658 5.51779 21.3173C4.83478 19.8688 4.5781 18.2559 4.77773 16.6669C4.97737 15.078 5.62507 13.5787 6.64516 12.3442C7.66525 11.1097 9.0156 10.191 10.5384 9.6954C12.0613 9.19984 13.6937 9.14788 15.2449 9.54561C16.7962 9.94333 18.2022 10.7743 19.2987 11.9415C20.3953 13.1086 21.137 14.5637 21.4373 16.1367C21.612 17.0522 21.0116 17.9359 20.0961 18.1107C19.1807 18.2854 18.2969 17.685 18.1221 16.7695C17.942 15.8257 17.4969 14.9527 16.839 14.2524C16.1811 13.5521 15.3375 13.0535 14.4067 12.8149Z" fill="white"/>
<path fill-rule="evenodd" clip-rule="evenodd" d="M43.4174 12.9047C42.5037 12.6074 41.5243 12.5762 40.5935 12.8149C39.6628 13.0535 38.8191 13.5521 38.1612 14.2524C37.5033 14.9527 37.0583 15.8257 36.8781 16.7695C36.7033 17.685 35.8196 18.2854 34.9041 18.1107C33.9887 17.9359 33.3882 17.0522 33.563 16.1367C33.8632 14.5637 34.605 13.1086 35.7015 11.9415C36.798 10.7743 38.204 9.94333 39.7553 9.54561C41.3066 9.14788 42.939 9.19984 44.4618 9.6954C45.9846 10.191 47.335 11.1097 48.3551 12.3442C49.3752 13.5787 50.0229 15.078 50.2225 16.6669C50.4221 18.2559 50.1654 19.8688 49.4824 21.3173C48.7994 22.7658 47.7183 23.99 46.3654 24.8468C45.0125 25.7037 43.4437 26.1579 41.8422 26.1562C40.9103 26.1553 40.1555 25.399 40.1565 24.467C40.1574 23.5351 40.9137 22.7803 41.8457 22.7812C42.8065 22.7822 43.7478 22.5097 44.5596 21.9956C45.3713 21.4815 46.02 20.747 46.4298 19.8779C46.8396 19.0088 46.9936 18.041 46.8738 17.0877C46.754 16.1343 46.3654 15.2347 45.7534 14.494C45.1413 13.7533 44.3311 13.2021 43.4174 12.9047Z" fill="white"/>
</svg>
