<svg width="49" height="48" viewBox="0 0 49 48" fill="none" xmlns="http://www.w3.org/2000/svg">
<path fill-rule="evenodd" clip-rule="evenodd" d="M41 22.5C41.8284 22.5 42.5 23.1716 42.5 24V33C42.5 33.8284 41.8284 34.5 41 34.5C40.1716 34.5 39.5 33.8284 39.5 33V24C39.5 23.1716 40.1716 22.5 41 22.5Z" fill="white"/>
<path fill-rule="evenodd" clip-rule="evenodd" d="M35 28.5C35 27.6716 35.6716 27 36.5 27H45.5C46.3284 27 47 27.6716 47 28.5C47 29.3284 46.3284 30 45.5 30H36.5C35.6716 30 35 29.3284 35 28.5Z" fill="white"/>
<path fill-rule="evenodd" clip-rule="evenodd" d="M16.25 6C17.0784 6 17.75 6.67157 17.75 7.5V15C17.75 15.8284 17.0784 16.5 16.25 16.5C15.4216 16.5 14.75 15.8284 14.75 15V7.5C14.75 6.67157 15.4216 6 16.25 6Z" fill="white"/>
<path fill-rule="evenodd" clip-rule="evenodd" d="M11 11.25C11 10.4216 11.6716 9.75 12.5 9.75H20C20.8284 9.75 21.5 10.4216 21.5 11.25C21.5 12.0784 20.8284 12.75 20 12.75H12.5C11.6716 12.75 11 12.0784 11 11.25Z" fill="white"/>
<path fill-rule="evenodd" clip-rule="evenodd" d="M32 33C32.8284 33 33.5 33.6716 33.5 34.5V40.5C33.5 41.3284 32.8284 42 32 42C31.1716 42 30.5 41.3284 30.5 40.5V34.5C30.5 33.6716 31.1716 33 32 33Z" fill="white"/>
<path fill-rule="evenodd" clip-rule="evenodd" d="M27.5 37.5C27.5 36.6716 28.1716 36 29 36H35C35.8284 36 36.5 36.6716 36.5 37.5C36.5 38.3284 35.8284 39 35 39H29C28.1716 39 27.5 38.3284 27.5 37.5Z" fill="white"/>
<path fill-rule="evenodd" clip-rule="evenodd" d="M6.51195 38.1201C5.34037 36.9485 5.34037 35.049 6.51194 33.8775L34.394 5.99536C35.5656 4.82379 37.4651 4.82379 38.6367 5.99536L42.5147 9.8734C43.6863 11.045 43.6863 12.9445 42.5147 14.116L14.6326 41.9981C13.4611 43.1697 11.5616 43.1697 10.39 41.9981L6.51195 38.1201ZM36.5154 8.11668L8.63327 35.9988L12.5113 39.8768L40.3934 11.9947L36.5154 8.11668Z" fill="white"/>
<path fill-rule="evenodd" clip-rule="evenodd" d="M26.4393 13.9393C27.0251 13.3536 27.9749 13.3536 28.5607 13.9393L34.5607 19.9393C35.1464 20.5251 35.1464 21.4749 34.5607 22.0607C33.9749 22.6464 33.0251 22.6464 32.4393 22.0607L26.4393 16.0607C25.8536 15.4749 25.8536 14.5251 26.4393 13.9393Z" fill="white"/>
</svg>
