<svg width="55" height="54" viewBox="0 0 55 54" fill="none" xmlns="http://www.w3.org/2000/svg">
<path fill-rule="evenodd" clip-rule="evenodd" d="M15.2964 17.4822C15.893 18.1982 15.7963 19.2623 15.0803 19.8589L6.51096 27L15.0803 34.1412C15.7963 34.7378 15.893 35.8019 15.2964 36.5179C14.6997 37.2338 13.6357 37.3306 12.9197 36.7339L2.79469 28.2964C2.40995 27.9758 2.1875 27.5009 2.1875 27C2.1875 26.4992 2.40995 26.0243 2.79469 25.7037L12.9197 17.2662C13.6357 16.6695 14.6997 16.7663 15.2964 17.4822Z" fill="white"/>
<path fill-rule="evenodd" clip-rule="evenodd" d="M39.7037 17.4822C40.3003 16.7663 41.3644 16.6695 42.0804 17.2662L52.2054 25.7037C52.5901 26.0243 52.8125 26.4992 52.8125 27C52.8125 27.5009 52.5901 27.9758 52.2054 28.2964L42.0804 36.7339C41.3644 37.3306 40.3003 37.2338 39.7037 36.5179C39.107 35.8019 39.2038 34.7378 39.9197 34.1412L48.4891 27L39.9197 19.8589C39.2038 19.2623 39.107 18.1982 39.7037 17.4822Z" fill="white"/>
<path fill-rule="evenodd" clip-rule="evenodd" d="M34.8267 6.85157C35.7025 7.17007 36.1544 8.13829 35.8359 9.01416L22.3359 46.1392C22.0174 47.015 21.0491 47.4669 20.1733 47.1484C19.2974 46.8299 18.8456 45.8616 19.1641 44.9858L32.6641 7.86078C32.9826 6.98491 33.9508 6.53307 34.8267 6.85157Z" fill="white"/>
</svg>
