<svg width="86" height="85" viewBox="0 0 86 85" fill="none" xmlns="http://www.w3.org/2000/svg">
<path d="M23.0249 30.7494L8.92353 42.5L23.0249 54.2505C23.2283 54.4172 23.3967 54.6225 23.5203 54.8546C23.644 55.0867 23.7205 55.3409 23.7454 55.6027C23.7703 55.8645 23.7431 56.1286 23.6654 56.3798C23.5878 56.631 23.4611 56.8644 23.2928 57.0664C23.1245 57.2685 22.9179 57.4352 22.6849 57.557C22.4518 57.6788 22.197 57.7533 21.935 57.7761C21.673 57.7989 21.4091 57.7696 21.1585 57.6899C20.9079 57.6103 20.6756 57.4818 20.4749 57.3119L4.5374 44.0306C4.31297 43.8437 4.13239 43.6096 4.00847 43.3451C3.88455 43.0806 3.82031 42.7921 3.82031 42.5C3.82031 42.2078 3.88455 41.9193 4.00847 41.6548C4.13239 41.3903 4.31297 41.1562 4.5374 40.9693L20.4749 27.688C20.8814 27.3549 21.4031 27.1959 21.9264 27.2457C22.4496 27.2955 22.932 27.55 23.2684 27.9539C23.6048 28.3577 23.7679 28.8781 23.7223 29.4018C23.6767 29.9254 23.426 30.4098 23.0249 30.7494ZM81.4624 40.9693L65.5249 27.688C65.3242 27.5181 65.0919 27.3896 64.8413 27.31C64.5907 27.2303 64.3268 27.201 64.0648 27.2238C63.8028 27.2467 63.548 27.3211 63.3149 27.4429C63.0819 27.5647 62.8752 27.7314 62.7069 27.9335C62.5387 28.1355 62.412 28.3689 62.3344 28.6201C62.2567 28.8713 62.2295 29.1355 62.2544 29.3972C62.2793 29.659 62.3558 29.9133 62.4795 30.1453C62.6031 30.3774 62.7715 30.5827 62.9749 30.7494L77.0763 42.5L62.9749 54.2505C62.7715 54.4172 62.6031 54.6225 62.4795 54.8546C62.3558 55.0867 62.2793 55.3409 62.2544 55.6027C62.2295 55.8645 62.2567 56.1286 62.3344 56.3798C62.412 56.631 62.5387 56.8644 62.7069 57.0664C62.8752 57.2685 63.0819 57.4352 63.3149 57.557C63.548 57.6788 63.8028 57.7533 64.0648 57.7761C64.3268 57.7989 64.5907 57.7696 64.8413 57.6899C65.0919 57.6103 65.3242 57.4818 65.5249 57.3119L81.4624 44.0306C81.6868 43.8437 81.8674 43.6096 81.9913 43.3451C82.1152 43.0806 82.1795 42.7921 82.1795 42.5C82.1795 42.2078 82.1152 41.9193 81.9913 41.6548C81.8674 41.3903 81.6868 41.1562 81.4624 40.9693ZM54.3056 11.4185C54.0592 11.3292 53.7977 11.2894 53.536 11.3014C53.2742 11.3133 53.0174 11.3768 52.7803 11.4881C52.5431 11.5995 52.3302 11.7565 52.1538 11.9502C51.9774 12.144 51.8409 12.3706 51.7522 12.6171L30.5022 71.0546C30.3276 71.5514 30.3567 72.097 30.5831 72.5724C30.8096 73.0477 31.215 73.4141 31.7108 73.5914C31.924 73.6678 32.1485 73.7081 32.3749 73.7109C32.7839 73.711 33.1831 73.5851 33.5181 73.3505C33.8531 73.1159 34.1078 72.7838 34.2476 72.3994L55.4976 13.9619C55.587 13.7159 55.6271 13.4548 55.6156 13.1934C55.6041 12.932 55.5412 12.6754 55.4305 12.4383C55.3198 12.2012 55.1635 11.9882 54.9705 11.8115C54.7774 11.6348 54.5515 11.4979 54.3056 11.4085V11.4185Z" fill="black"/>
</svg>
