<svg width="37" height="36" viewBox="0 0 37 36" fill="none" xmlns="http://www.w3.org/2000/svg">
<path d="M11 12C11 11.6022 11.158 11.2206 11.4393 10.9393C11.7206 10.658 12.1022 10.5 12.5 10.5H24.5C24.8978 10.5 25.2794 10.658 25.5607 10.9393C25.842 11.2206 26 11.6022 26 12C26 12.3978 25.842 12.7794 25.5607 13.0607C25.2794 13.342 24.8978 13.5 24.5 13.5H12.5C12.1022 13.5 11.7206 13.342 11.4393 13.0607C11.158 12.7794 11 12.3978 11 12ZM12.5 19.5H24.5C24.8978 19.5 25.2794 19.342 25.5607 19.0607C25.842 18.7794 26 18.3978 26 18C26 17.6022 25.842 17.2206 25.5607 16.9393C25.2794 16.658 24.8978 16.5 24.5 16.5H12.5C12.1022 16.5 11.7206 16.658 11.4393 16.9393C11.158 17.2206 11 17.6022 11 18C11 18.3978 11.158 18.7794 11.4393 19.0607C11.7206 19.342 12.1022 19.5 12.5 19.5ZM18.5 22.5H12.5C12.1022 22.5 11.7206 22.658 11.4393 22.9393C11.158 23.2206 11 23.6022 11 24C11 24.3978 11.158 24.7794 11.4393 25.0607C11.7206 25.342 12.1022 25.5 12.5 25.5H18.5C18.8978 25.5 19.2794 25.342 19.5607 25.0607C19.842 24.7794 20 24.3978 20 24C20 23.6022 19.842 23.2206 19.5607 22.9393C19.2794 22.658 18.8978 22.5 18.5 22.5ZM36.5 3V23.3794C36.5013 23.7735 36.4242 24.1639 36.2732 24.528C36.1222 24.892 35.9004 25.2224 35.6206 25.5L26 35.1206C25.7224 35.4004 25.392 35.6222 25.028 35.7732C24.6639 35.9242 24.2735 36.0013 23.8794 36H3.5C2.70435 36 1.94129 35.6839 1.37868 35.1213C0.81607 34.5587 0.5 33.7957 0.5 33V3C0.5 2.20435 0.81607 1.44129 1.37868 0.87868C1.94129 0.31607 2.70435 0 3.5 0H33.5C34.2957 0 35.0587 0.31607 35.6213 0.87868C36.1839 1.44129 36.5 2.20435 36.5 3ZM3.5 33H23V24C23 23.6022 23.158 23.2206 23.4393 22.9393C23.7206 22.658 24.1022 22.5 24.5 22.5H33.5V3H3.5V33ZM26 25.5V30.8812L31.3794 25.5H26Z" fill="white"/>
</svg>
