<svg width="26" height="27" viewBox="0 0 26 27" fill="none" xmlns="http://www.w3.org/2000/svg">
<path d="M6.50003 14.4688C6.5014 14.5758 6.48131 14.6821 6.44096 14.7813C6.40061 14.8805 6.34082 14.9706 6.2651 15.0463C6.18937 15.1221 6.09926 15.1818 6.00007 15.2222C5.90088 15.2625 5.79461 15.2826 5.68753 15.2813H1.21878C1.06784 15.28 0.920067 15.2378 0.791266 15.1591C0.662465 15.0804 0.557479 14.9682 0.487532 14.8344C0.422489 14.6982 0.395691 14.5468 0.410002 14.3966C0.424313 14.2463 0.479196 14.1028 0.568782 13.9813C1.28783 13.016 2.24732 12.2562 3.35159 11.7774C2.87709 11.343 2.51251 10.8022 2.28788 10.1994C2.06324 9.59658 1.98497 8.94905 2.0595 8.3101C2.13403 7.67114 2.35923 7.05901 2.71657 6.5241C3.07391 5.98918 3.55317 5.54678 4.11491 5.23329C4.67664 4.9198 5.3048 4.74419 5.94767 4.72092C6.59054 4.69765 7.22974 4.82737 7.81268 5.09942C8.39561 5.37147 8.90561 5.77806 9.30069 6.28574C9.69578 6.79341 9.96465 7.38765 10.0852 8.01955C10.1152 8.18412 10.0944 8.35395 10.0254 8.50638C9.95648 8.6588 9.8427 8.78658 9.69925 8.87267C8.38567 9.65161 7.38662 10.8663 6.87581 12.3055C6.62401 12.9988 6.49679 13.7312 6.50003 14.4688ZM25.4313 13.9813C24.7122 13.016 23.7527 12.2562 22.6485 11.7774C23.123 11.343 23.4876 10.8022 23.7122 10.1994C23.9368 9.59658 24.0151 8.94905 23.9406 8.3101C23.866 7.67114 23.6408 7.05901 23.2835 6.5241C22.9262 5.98918 22.4469 5.54678 21.8852 5.23329C21.3234 4.9198 20.6953 4.74419 20.0524 4.72092C19.4095 4.69765 18.7703 4.82737 18.1874 5.09942C17.6045 5.37147 17.0945 5.77806 16.6994 6.28574C16.3043 6.79341 16.0354 7.38765 15.9149 8.01955C15.8848 8.18412 15.9057 8.35395 15.9746 8.50638C16.0436 8.6588 16.1574 8.78658 16.3008 8.87267C17.6161 9.64961 18.6157 10.865 19.1243 12.3055C19.3761 12.9988 19.5033 13.7312 19.5 14.4688C19.4987 14.5758 19.5188 14.6821 19.5591 14.7813C19.5995 14.8805 19.6592 14.9706 19.735 15.0463C19.8107 15.1221 19.9008 15.1818 20 15.2222C20.0992 15.2625 20.2055 15.2826 20.3125 15.2813H24.7813C24.9322 15.2813 25.0801 15.2392 25.2084 15.1599C25.3368 15.0806 25.4405 14.9671 25.508 14.8321C25.5755 14.6972 25.6041 14.5461 25.5905 14.3958C25.577 14.2455 25.5218 14.102 25.4313 13.9813ZM15.9657 18.3383C16.7743 17.7185 17.3684 16.861 17.6645 15.8861C17.9607 14.9113 17.944 13.8682 17.6167 12.9033C17.2895 11.9385 16.6682 11.1004 15.8401 10.5069C15.0121 9.9133 14.0189 9.5941 13 9.5941C11.9812 9.5941 10.988 9.9133 10.1599 10.5069C9.33185 11.1004 8.71056 11.9385 8.38333 12.9033C8.0561 13.8682 8.03938 14.9113 8.33552 15.8861C8.63166 16.861 9.22579 17.7185 10.0344 18.3383C8.45463 19.0397 7.17388 20.2772 6.41878 21.832C6.3587 21.9556 6.33179 22.0927 6.3407 22.2298C6.3496 22.3669 6.39401 22.4993 6.46956 22.6141C6.53988 22.7318 6.63956 22.8293 6.75884 22.8969C6.87811 22.9646 7.01291 23.0001 7.15003 23H18.85C18.9872 23.0001 19.122 22.9646 19.2412 22.8969C19.3605 22.8293 19.4602 22.7318 19.5305 22.6141C19.6061 22.4993 19.6505 22.3669 19.6594 22.2298C19.6683 22.0927 19.6414 21.9556 19.5813 21.832C18.8262 20.2772 17.5454 19.0397 15.9657 18.3383Z" fill="white"/>
</svg>
