<svg width="49" height="48" viewBox="0 0 49 48" fill="none" xmlns="http://www.w3.org/2000/svg">
<path d="M41.6225 7.64054C41.3607 7.52164 41.0701 7.48052 40.7856 7.52207C40.501 7.56362 40.2344 7.6861 40.0175 7.87491C34.7675 12.4162 30.32 10.2149 25.1656 7.66303C19.8256 5.01741 13.7712 2.02304 7.0175 7.87491C6.85613 8.01478 6.72649 8.1875 6.63724 8.38152C6.54799 8.57553 6.50121 8.78636 6.5 8.99991V40.4999C6.5 40.8977 6.65804 41.2793 6.93934 41.5606C7.22064 41.8419 7.60218 41.9999 8 41.9999C8.39782 41.9999 8.77936 41.8419 9.06066 41.5606C9.34196 41.2793 9.5 40.8977 9.5 40.4999V32.2068C14.5231 28.2393 18.8506 30.3787 23.8344 32.8462C29.1762 35.488 35.2288 38.4824 41.9825 32.6343C42.1439 32.4944 42.2735 32.3217 42.3628 32.1277C42.452 31.9337 42.4988 31.7228 42.5 31.5093V8.99991C42.499 8.71315 42.4158 8.43269 42.2603 8.19176C42.1047 7.95084 41.8834 7.75954 41.6225 7.64054ZM39.5 11.9249V20.2968C36.875 22.3705 34.4375 22.7755 32 22.3368V13.3762C34.5927 13.7812 37.2455 13.2679 39.5 11.9249ZM29 12.6299V21.4424C27.7512 20.9418 26.4819 20.3174 25.1656 19.663C23.5119 18.8455 21.7906 17.9943 20 17.3812V8.56866C21.2487 9.06741 22.5181 9.69366 23.8344 10.3462C25.4881 11.1655 27.2113 12.0168 29 12.6299ZM17 7.67054V16.6293C14.4071 16.225 11.7543 16.7389 9.5 18.0824V9.70866C12.125 7.63491 14.5625 7.23179 17 7.67054ZM15.2338 26.9999C13.2154 27.0034 11.2351 27.5493 9.5 28.5805V21.7087C12.125 19.6349 14.5625 19.2299 17 19.6687V27.1312C16.4152 27.045 15.8249 27.0012 15.2338 26.9999ZM20 27.8755V20.563C21.2487 21.0618 22.5181 21.688 23.8344 22.3405C25.4881 23.1599 27.2094 24.0093 29 24.6224V31.9349C27.7512 31.4343 26.4819 30.8099 25.1656 30.1574C23.5119 29.338 21.7887 28.4887 20 27.8755ZM32 32.8349V25.3724C32.5847 25.4598 33.175 25.5049 33.7663 25.5074C35.7852 25.5012 37.7655 24.9527 39.5 23.9193V30.7968C36.875 32.8705 34.4375 33.2737 32 32.8349Z" fill="white"/>
</svg>
