<svg width="25" height="24" viewBox="0 0 25 24" fill="none" xmlns="http://www.w3.org/2000/svg">
<path d="M21.6667 11.5C21.6702 12.8199 21.3618 14.1219 20.7667 15.3C20.0612 16.7118 18.9765 17.8992 17.6342 18.7293C16.2919 19.5594 14.745 19.9994 13.1667 20C11.8469 20.0035 10.5449 19.6951 9.36675 19.1L3.66675 21L5.56675 15.3C4.97168 14.1219 4.66331 12.8199 4.66675 11.5C4.66736 9.92179 5.10736 8.37488 5.93747 7.03258C6.76757 5.69028 7.955 4.6056 9.36675 3.90003C10.5449 3.30496 11.8469 2.99659 13.1667 3.00003H13.6667C15.7511 3.11502 17.7198 3.99479 19.1959 5.47089C20.672 6.94699 21.5518 8.91568 21.6667 11V11.5Z" stroke="white" stroke-width="2" stroke-linecap="round" stroke-linejoin="round"/>
</svg>
