<svg width="26" height="27" viewBox="0 0 26 27" fill="none" xmlns="http://www.w3.org/2000/svg">
<path d="M17.0625 10.4062C17.0625 10.7295 16.9341 11.0395 16.7055 11.268C16.477 11.4966 16.167 11.625 15.8438 11.625C15.5205 11.625 15.2105 11.4966 14.982 11.268C14.7534 11.0395 14.625 10.7295 14.625 10.4062C14.625 10.083 14.7534 9.77302 14.982 9.54446C15.2105 9.3159 15.5205 9.1875 15.8438 9.1875C16.167 9.1875 16.477 9.3159 16.7055 9.54446C16.9341 9.77302 17.0625 10.083 17.0625 10.4062ZM23.5625 5.9375V18.9375V20.5625C23.5625 20.9935 23.3913 21.4068 23.0865 21.7115C22.7818 22.0163 22.3685 22.1875 21.9375 22.1875H4.0625C3.63152 22.1875 3.2182 22.0163 2.91345 21.7115C2.6087 21.4068 2.4375 20.9935 2.4375 20.5625V17.3125V5.9375C2.4375 5.50652 2.6087 5.0932 2.91345 4.78845C3.2182 4.4837 3.63152 4.3125 4.0625 4.3125H21.9375C22.3685 4.3125 22.7818 4.4837 23.0865 4.78845C23.3913 5.0932 23.5625 5.50652 23.5625 5.9375ZM21.9375 16.9773V5.9375H4.0625V15.3523L7.78984 11.625C8.09577 11.3236 8.50801 11.1546 8.9375 11.1546C9.36699 11.1546 9.77923 11.3236 10.0852 11.625L14.625 16.1648L16.7273 14.0625C17.0333 13.7611 17.4455 13.5921 17.875 13.5921C18.3045 13.5921 18.7167 13.7611 19.0227 14.0625L21.9375 16.9773Z" fill="white"/>
</svg>
