<svg width="100" height="37" viewBox="0 0 100 37" fill="none" xmlns="http://www.w3.org/2000/svg">
<g clip-path="url(#clip0_1280_85711)">
<path d="M13.5914 19.7597C12.8351 17.7533 10.8634 16.4373 8.36395 16.4373C4.53568 16.4373 2.15157 19.051 2.15157 22.6771C2.15157 26.5848 5.13171 29.4562 8.61604 29.4562C10.4256 29.4562 12.6495 28.8728 14.207 26.2609H14.6428C14.2868 27.3617 13.7949 28.4193 13.1771 29.4121C11.7095 29.217 10.7012 29.9956 7.99656 29.9956C3.34753 29.9937 0 27.1002 0 23.106C0 18.9185 3.43938 15.8961 8.22716 15.8961C11.1155 15.8961 12.3525 16.7612 13.0638 16.7612C13.3159 16.7612 13.4312 16.695 13.4761 16.6305H13.8201L14.0252 19.7597H13.5914ZM20.691 29.3881C22.0433 29.3881 23.5793 28.0942 23.5793 25.9351C23.5793 23.4741 21.9769 21.3794 20.05 21.3794C18.5375 21.3794 17.1383 22.8483 17.1383 24.7037C17.1383 27.3174 18.7212 29.3881 20.691 29.3881ZM20.3705 20.8622C23.167 20.8622 25.299 22.8262 25.299 25.3958C25.299 27.9414 23.1689 29.9054 20.4409 29.9054C17.5975 29.9054 15.4205 27.9635 15.4205 25.4381C15.4205 22.4599 17.9884 20.8622 20.3705 20.8622ZM28.4785 27.899C28.4785 29.0219 28.8009 29.2372 30.0848 29.2372V29.6477H25.3166V29.2372C26.6454 29.2372 26.9444 28.6758 26.9444 27.5751V23.3434C26.9444 22.5022 26.8076 22.3071 26.28 22.2427L25.385 22.1359V21.7678L28.1365 20.8622H28.4785V22.5888C30.1298 21.488 31.6423 20.8622 32.5588 20.8622C33.6825 20.8622 34.5072 21.5304 34.7358 22.5888C36.2718 21.6813 37.669 20.8622 38.7927 20.8622C40.442 20.8622 41.085 22.0494 41.085 24.1202C41.085 25.5025 41.085 26.9493 41.0166 28.2653C41.0166 28.72 41.2902 29.2372 42.2301 29.2372H42.963V29.6477H37.8078V29.2372H38.013C38.6774 29.2372 38.9764 29.1305 39.1816 28.9353C39.5255 28.6114 39.549 27.3597 39.549 25.8706V24.1864C39.549 22.5243 38.9529 21.7255 37.8293 21.7255C37.1199 21.7255 36.2034 22.0494 34.7807 22.933V27.899C34.7807 28.9777 35.0563 29.2372 36.2034 29.2372V29.6477H31.5055V29.2372C32.7875 29.2372 33.2447 28.8065 33.2447 27.5751V23.5809C33.2447 22.2225 32.3517 21.7255 31.5505 21.7255C30.9095 21.7255 30.0379 22.0053 28.4785 22.9771V27.899Z" fill="#005EB8"/>
<path d="M44.9914 27.9635C45.818 28.6556 46.8479 29.1304 47.696 29.1304C49.2555 29.1304 50.4006 27.6837 50.4006 25.913C50.4006 23.0636 48.6125 21.985 47.399 21.985C46.6876 21.985 45.8161 22.3716 44.9914 23.0416V27.9635ZM44.9914 33.2738C44.9914 34.3542 45.5659 34.6782 46.5274 34.6782H47.1V35.0887H41.6927V34.6782H41.9214C43.09 34.6782 43.4574 34.3101 43.4574 33.0805V23.1502C43.4574 22.7397 43.3655 22.5667 42.8144 22.4378L42.0816 22.2648V21.8543L44.5341 20.4297H44.9914V22.5022C46.4141 21.488 47.6296 20.9266 48.5441 20.9266C50.3322 20.9266 51.9366 22.8262 51.9366 24.9411C51.9366 27.5548 49.6893 29.7986 47.0785 29.7986C46.459 29.7986 45.863 29.6698 44.9914 29.3661V33.2738ZM57.4611 25.6314C57.0265 25.8626 56.5753 26.065 56.1108 26.2369C54.7116 26.7762 54.1839 26.9916 54.1839 27.877C54.1839 28.6556 54.8484 29.1507 55.5362 29.1507C55.9036 29.1507 56.1792 29.0439 57.4611 28.2009V25.6314ZM52.9235 23.6674C52.8812 23.5716 52.858 23.4692 52.8551 23.3655C52.8551 22.6108 54.7565 20.8622 56.2476 20.8622C56.9354 20.8622 58.0122 21.1641 58.6532 22.0053C58.9971 22.4599 58.9971 22.7397 58.9971 23.8625V26.756C58.9971 28.4825 58.9971 28.8709 59.5931 28.8709C59.8472 28.8709 60.1442 28.8488 60.7168 28.396L60.8301 28.72C59.5931 29.6698 58.9522 29.9072 58.5633 29.9072C57.6214 29.9072 57.5315 28.9353 57.508 28.5893C55.9251 29.8207 55.4678 29.9072 54.8503 29.9072C53.5215 29.9072 52.7183 29.1949 52.7183 28.1365C52.7183 26.8204 53.9553 26.3658 55.4229 26.0197C55.9036 25.913 56.6599 25.6534 57.4611 25.2006V23.4944C57.4611 22.8906 57.4611 22.5446 57.0703 22.1139C56.7752 21.7678 56.2925 21.488 55.7883 21.488C55.0321 21.488 54.3676 22.0918 54.3676 22.5446C54.3676 22.6734 54.3911 22.7618 54.4829 22.955L52.9235 23.6674ZM61.819 27.4665C62.0925 28.7623 62.9661 29.4967 63.9959 29.4967C64.9144 29.4967 65.6238 28.8488 65.6238 28.0721C65.6238 27.6174 65.5085 27.3376 64.891 26.756C63.2631 25.2227 61.4516 25.0718 61.4516 23.279C61.4516 21.8543 62.6436 20.8622 64.3868 20.8622C65.0043 20.8622 65.6472 20.9911 66.2198 21.2064L66.2648 23.1722H65.8759C65.7156 22.0697 64.9574 21.3794 64.0428 21.3794C63.2866 21.3794 62.6436 21.8764 62.6436 22.5888C62.6436 24.4883 66.9077 24.8123 66.9077 27.4462C66.9077 28.8488 65.6687 29.9072 64.0663 29.9072C63.7227 29.9138 63.3805 29.8627 63.056 29.7563C62.8058 29.69 62.6221 29.6274 62.4384 29.6274C62.3017 29.6274 62.1649 29.7121 62.0476 29.8851H61.7037L61.4535 27.4665H61.819ZM68.2991 27.4665C68.5727 28.7623 69.4462 29.4967 70.476 29.4967C71.3945 29.4967 72.1039 28.8488 72.1039 28.0721C72.1039 27.6174 71.9886 27.3376 71.3711 26.756C69.7432 25.2227 67.9317 25.0718 67.9317 23.279C67.9317 21.8543 69.1237 20.8622 70.8669 20.8622C71.4844 20.8622 72.1273 20.9911 72.6999 21.2064L72.7449 23.1722H72.354C72.1957 22.0697 71.4395 21.3794 70.5229 21.3794C69.7667 21.3794 69.1237 21.8764 69.1237 22.5888C69.1237 24.4883 73.3878 24.8123 73.3878 27.4462C73.3878 28.8488 72.1488 29.9072 70.5444 29.9072C70.2015 29.9136 69.86 29.8625 69.5361 29.7563C69.284 29.69 69.1022 29.6274 68.9185 29.6274C68.7818 29.6274 68.643 29.7121 68.5277 29.8851H68.1857L67.9317 27.4665H68.2991ZM77.5287 28.0058C77.5287 28.7623 77.9645 29.239 79.18 29.239V29.6477H74.0913V29.2372C75.4905 29.2372 75.9947 28.8065 75.9947 27.6616V23.3232C75.9947 22.4802 75.8774 22.3734 75.2834 22.2648L74.2066 22.0697V21.7255L77.1848 20.7536H77.5287V28.0058ZM84.3156 29.3881C85.6679 29.3881 87.2039 28.0942 87.2039 25.9351C87.2039 23.4741 85.5995 21.3794 83.6747 21.3794C82.1621 21.3794 80.7629 22.8483 80.7629 24.7037C80.7629 27.3174 82.3458 29.3881 84.3156 29.3881ZM83.9952 20.8622C86.7896 20.8622 88.9217 22.8262 88.9217 25.3958C88.9217 27.9414 86.7916 29.9054 84.0636 29.9054C81.2222 29.9054 79.0452 27.9635 79.0452 25.4381C79.0452 22.4599 81.611 20.8622 83.9952 20.8622ZM92.0034 27.7702C92.0034 28.9574 92.2985 29.2372 93.5375 29.2372V29.6477H88.9314V29.2372C89.9398 29.2372 90.4655 28.72 90.4655 27.877V23.3434C90.4655 22.5446 90.3756 22.3936 89.7796 22.2869L88.9979 22.1359V21.7899L91.6361 20.8825H92.0015V22.5667C93.5375 21.6611 94.8214 20.8622 95.9431 20.8622C97.5025 20.8622 98.3956 21.9408 98.3956 24.0999C98.3956 26.9714 98.2354 27.5328 98.2119 28.3739C98.1904 28.9574 98.5559 29.239 99.4958 29.239H100V29.6477H95.0735V29.2372C95.7379 29.2151 96.1287 29.0642 96.3789 28.8267C96.8147 28.4163 96.8596 26.8407 96.8596 23.9711C96.8596 22.2427 95.9665 21.7034 95.05 21.7034C94.3172 21.7034 93.1935 22.3071 92.0015 23.0839V27.7702" fill="#005EB8"/>
<path d="M19.3758 5.60495C20.8864 5.67121 22.1605 4.68462 22.225 3.40536C22.2895 2.12426 21.117 1.03091 19.6064 0.966491C18.0958 0.898387 16.8197 1.88314 16.7571 3.16424C16.6927 4.44533 17.8652 5.53869 19.3758 5.60495Z" fill="#005EB8"/>
<path d="M26.745 0.984898C26.745 0.984898 25.3263 3.35014 22.1664 5.04171C19.0045 6.73143 16.1963 7.71434 13.5093 11.6313C13.5093 11.6313 14.3085 11.2852 13.7555 12.1246C13.7555 12.1246 14.1698 11.7564 14.5235 11.646C14.5235 11.646 14.7385 11.6037 14.6466 11.8485C14.6466 11.8485 16.0634 10.814 15.7058 11.3147C15.4889 11.6147 16.8295 10.3594 16.9897 10.4827C16.9897 10.4827 17.0366 10.5582 16.8334 10.8453C16.8334 10.8453 20.0343 9.03225 21.2303 8.55368C26.4089 6.47742 27.5228 3.04643 27.046 1.11006C27.046 1.11006 27.0264 0.721684 26.745 0.986738" fill="#005EB8"/>
<path d="M15.9413 17.6981C15.9413 17.6981 16.1641 12.6105 19.5253 10.0096C22.8865 7.40695 26.0914 7.88552 27.428 7.79717C27.428 7.79717 30.16 7.8708 31.526 7.4364C31.526 7.4364 31.7253 9.70594 25.0185 10.7901C25.0185 10.7901 22.8103 10.7606 20.9225 13.1314C20.9225 13.1314 19.0484 15.1119 17.3151 19.2019C17.3151 19.2019 17.2994 18.6092 17.0552 19.0289L16.4103 20.402L16.3868 19.108C16.3868 19.108 16.2715 18.7822 16.1191 19.2313C16.1191 19.2313 15.996 19.3823 16.2031 17.6631C16.2031 17.6631 16.1484 17.295 15.9413 17.6999V17.6981Z" fill="#005EB8"/>
<path fill-rule="evenodd" clip-rule="evenodd" d="M98.6165 17.9852H97.9775V19.5387H98.2335V18.8706H98.5071L98.9566 19.5387H99.2302L98.7592 18.8522C99.0054 18.8282 99.193 18.7104 99.193 18.4288C99.193 18.1325 99.0074 17.9852 98.6165 17.9852ZM98.5032 18.6736H98.2335V18.1803H98.5736C98.7475 18.1803 98.937 18.2116 98.937 18.4196C98.937 18.6644 98.7279 18.6736 98.5032 18.6736Z" fill="#005EB8"/>
<path fill-rule="evenodd" clip-rule="evenodd" d="M99.0699 17.5306C98.8981 17.4647 98.7141 17.4316 98.5286 17.433C98.1539 17.433 97.7945 17.5732 97.5295 17.8228C97.2646 18.0724 97.1157 18.4109 97.1157 18.7638C97.1157 19.1168 97.2646 19.4553 97.5295 19.7048C97.7945 19.9544 98.1539 20.0946 98.5286 20.0946C98.7154 20.0958 98.9005 20.062 99.0732 19.9952C99.246 19.9283 99.4029 19.8298 99.5347 19.7052C99.6666 19.5806 99.7708 19.4326 99.8413 19.2697C99.9118 19.1068 99.9472 18.9324 99.9454 18.7565C99.9454 18.5817 99.9087 18.4087 99.8373 18.2474C99.766 18.0862 99.6614 17.9398 99.5297 17.8167C99.398 17.6937 99.2417 17.5964 99.0699 17.5306ZM99.6874 18.7565C99.6874 19.4081 99.1813 19.8995 98.5286 19.8995V19.8977C97.8681 19.8977 97.362 19.4081 97.362 18.7565C97.362 18.466 97.4845 18.1874 97.7025 17.982C97.9206 17.7767 98.2163 17.6613 98.5247 17.6613C98.8331 17.6613 99.1288 17.7767 99.3469 17.982C99.5649 18.1874 99.6874 18.466 99.6874 18.7565Z" fill="#005EB8"/>
</g>
<defs>
<clipPath id="clip0_1280_85711">
<rect width="100" height="35.7143" fill="white" transform="translate(0 0.892822)"/>
</clipPath>
</defs>
</svg>
